{
.appVersion = "895";
copyright = "Copyright (c) 2010-13 by Vernon Adams";
customParameters = (
{
name = license;
value = "This Font Software is licensed under the SIL Open Font License, Version 1.1. This license is available with a FAQ at: http://scripts.sil.org/OFL";
},
{
name = licenseURL;
value = "http://scripts.sil.org/OFL";
},
{
name = vendorID;
value = newt;
}
);
date = "2016-08-02 10:19:32 +0000";
designer = "Vernon Adams";
designerURL = code.newtypography.co.uk;
familyName = Oswald;
fontMaster = (
{
alignmentZones = (
"{997, 14}",
"{694, 16}",
"{0, -16}",
"{-223, -5}"
);
ascender = 1658;
capHeight = 1658;
customParameters = (
{
name = typoAscender;
value = 426;
},
{
name = typoDescender;
value = -107;
},
{
name = typoLineGap;
value = 0;
},
{
name = hheaAscender;
value = 426;
},
{
name = hheaDescender;
value = -107;
},
{
name = hheaLineGap;
value = 0;
},
{
name = winAscent;
value = 1638;
},
{
name = winDescent;
value = 410;
},
{
name = underlineThickness;
value = 21;
},
{
name = underlinePosition;
value = -67;
}
);
descender = -390;
id = "FCD7E481-103E-4A6C-AD70-01DA443B2AD0";
weight = Light;
weightValue = 200;
xHeight = 1184;
},
{
alignmentZones = (
"{997, 14}",
"{694, 16}",
"{0, -16}",
"{-223, -5}"
);
ascender = 1658;
capHeight = 1658;
customParameters = (
{
name = typoAscender;
value = 1474;
},
{
name = typoDescender;
value = -369;
},
{
name = typoLineGap;
value = 0;
},
{
name = hheaAscender;
value = 1474;
},
{
name = hheaDescender;
value = -369;
},
{
name = hheaLineGap;
value = 0;
},
{
name = winAscent;
value = 1638;
},
{
name = winDescent;
value = 410;
},
{
name = underlineThickness;
value = 3;
},
{
name = underlinePosition;
value = -9;
}
);
descender = -390;
id = "8AC5A1D3-32A8-4416-86FC-94176A419B8F";
weightValue = 400;
xHeight = 1184;
},
{
alignmentZones = (
"{4071, 56}",
"{2834, 64}",
"{0, -64}",
"{-910, -20}"
);
ascender = 1658;
capHeight = 1658;
customParameters = (
{
name = typoAscender;
value = 1638;
},
{
name = typoDescender;
value = -410;
},

glyphs = (
{
glyphname = A;
lastChange = "2016-08-02 09:57:56 +0000";
layers = (
{
layerId = "FCD7E481-103E-4A6C-AD70-01DA443B2AD0";
paths = (
{
closed = 1;
nodes = (
"176 0 LINE",
"265 458 LINE",
"695 458 LINE",
"781 0 LINE",
"893 0 LINE",
"542 1658 LINE",
"414 1658 LINE",
"66 0 LINE"
);
},
{
closed = 1;
nodes = (
"479 1523 LINE",
"679 541 LINE",
"281 541 LINE"
);
}
);
width = 959;
},
{
associatedMasterId = "FCD7E481-103E-4A6C-AD70-01DA443B2AD0";
layerId = "D4C96C0E-1BDB-4B18-A31E-E5FE65809F59";
name = b;
width = 939;
},
{
layerId = "8AC5A1D3-32A8-4416-86FC-94176A419B8F";
paths = (
{
closed = 1;
nodes = (
"257 0 LINE",
"336 418 LINE",
"673 418 LINE",
"749 0 LINE",
"969 0 LINE",
"615 1658 LINE",
"392 1658 LINE",
"38 0 LINE"
);
},
{
closed = 1;
nodes = (
"504 1332 LINE",
"643 583 LINE",
"366 583 LINE"
);
}
);
width = 1007;
},
{
layerId = "3FB85DAF-C7EF-4F81-BE96-1E190958879E";
paths = (
{
closed = 1;
nodes = (
"429 0 LINE",
"479 331 LINE",
"694 331 LINE",
"746 0 LINE",
"1117 0 LINE",
"819 1658 LINE",
"347 1658 LINE",
"46 0 LINE"
);
},
{
closed = 1;
nodes = (
"585 1184 LINE",
"660 565 LINE",
"511 565 LINE"
);
}
);
width = 1164;
}
);
leftKerningGroup = A;
rightKerningGroup = A;
unicode = 0041;
userData = {
com.typemytype.robofont.layerData = {
b = {
anchors = (
);
components = (
);
contours = (
);
lib = {
};
name = A;
unicodes = (
);
width = 939;
};
};
};
},
{
glyphname = AE;
lastChange = "2016-08-02 09:57:56 +0000";
layers = (
{
layerId = "FCD7E481-103E-4A6C-AD70-01DA443B2AD0";
paths = (
{
closed = 1;
nodes = (
"100 0 LINE",
"271 458 LINE",
"645 458 LINE",
"645 0 LINE",
"1220 0 LINE",
"1220 97 LINE",
"762 97 LINE",
"762 822 LINE",
"1089 822 LINE",
"1089 911 LINE",
"762 911 LINE",
"762 1561 LINE",
"1220 1561 LINE",
"1220 1658 LINE",
"612 1658 LINE",
"-31 0 LINE"
);
},
{
closed = 1;
nodes = (
"644 1489 LINE",
"644 548 LINE",
"303 548 LINE"
);
}
);
width = 1289;
},
{
layerId = "8AC5A1D3-32A8-4416-86FC-94176A419B8F";
paths = (
{
closed = 1;
nodes = (
"116 0 LINE",
"293 420 LINE",
"599 420 LINE",
"599 0 LINE",
"1240 0 LINE",
"1240 167 LINE",
"820 167 LINE",
"820 776 LINE",
"1120 776 LINE",
"1120 942 LINE",
"820 942 LINE",
"820 1491 LINE",
"1240 1491 LINE",
"1240 1658 LINE",
"594 1658 LINE",
"-105 0 LINE"
);
},
{
closed = 1;
nodes = (
"599 1239 LINE",
"599 586 LINE",
"355 586 LINE"
);
}
);
width = 1300;
},
{
layerId = "3FB85DAF-C7EF-4F81-BE96-1E190958879E";
paths = (
{
closed = 1;
nodes = (
"406 0 LINE",
"536 325 LINE",
"792 325 LINE",
"792 0 LINE",
"1461 0 LINE",
"1461 271 LINE",
"1133 271 LINE",
"1133 715 LINE",
"1364 715 LINE",
"1364 997 LINE",
"1133 997 LINE",
"1133 1354 LINE",
"1461 1354 LINE",
"1461 1627 LINE",
"724 1627 LINE",
"-5 0 LINE"
);
},
{
closed = 1;
nodes = (
"792 1050 LINE",
"792 573 LINE",
"615 573 LINE"
);
}
);
width = 1493;
}
);
unicode = 00C6;
},
{
glyphname = B;
lastChange = "2016-08-02 09:57:56 +0000";
layers = (
{
layerId = "FCD7E481-103E-4A6C-AD70-01DA443B2AD0";
paths = (
{
closed = 1;
nodes = (
"545 0 LINE SMOOTH",
"864 0 OFFCURVE",
"915 233 OFFCURVE",
"915 483 CURVE SMOOTH",
"915 630 OFFCURVE",
"877 837 OFFCURVE",
"684 894 CURVE",
"845 934 OFFCURVE",
"879 1112 OFFCURVE",
"879 1245 CURVE SMOOTH",
"879 1475 OFFCURVE",
"800 1658 OFFCURVE",
"495 1658 CURVE SMOOTH",
"153 1658 LINE",
"153 0 LINE"
);
},
{
closed = 1;
nodes = (
"265 843 LINE",
"546 843 LINE SMOOTH",
"745 843 OFFCURVE",
"806 679 OFFCURVE",
"806 482 CURVE SMOOTH",
"806 213 OFFCURVE",
"750 88 OFFCURVE",
"531 88 CURVE SMOOTH",
"265 88 LINE"
);
},
{
closed = 1;
nodes = (
"265 1569 LINE",
"470 1569 LINE SMOOTH",
"729 1569 OFFCURVE",
"775 1430 OFFCURVE",
"775 1245 CURVE SMOOTH",
"775 1074 OFFCURVE",
"728 931 OFFCURVE",
"544 931 CURVE SMOOTH",
"265 931 LINE"
);
}
);
width = 1000;
},
{
associatedMasterId = "FCD7E481-103E-4A6C-AD70-01DA443B2AD0";
layerId = "E8310E47-FD66-4677-A33B-45C3AA4121D0";
name = b;
width = 1251.13;
},
{
layerId = "8AC5A1D3-32A8-4416-86FC-94176A419B8F";
paths = (
{
closed = 1;
nodes = (
"571 0 LINE SMOOTH",
"868 0 OFFCURVE",
"997 187 OFFCURVE",
"997 474 CURVE SMOOTH",
"997 708 OFFCURVE",
"913 845 OFFCURVE",
"715 893 CURVE",
"876 915 OFFCURVE",
"953 1039 OFFCURVE",
"953 1243 CURVE SMOOTH",
"953 1528 OFFCURVE",
"809 1658 OFFCURVE",
"509 1658 CURVE SMOOTH",
"130 1658 LINE",
"130 0 LINE"
);
},
{
closed = 1;
nodes = (
"361 790 LINE",
"498 790 LINE SMOOTH",
"701 790 OFFCURVE",
"777 680 OFFCURVE",
"777 474 CURVE SMOOTH",
"777 259 OFFCURVE",
"723 166 OFFCURVE",
"517 166 CURVE SMOOTH",
"361 166 LINE"
);
},
{
closed = 1;
nodes = (
"361 1487 LINE",
"415 1487 LINE SMOOTH",
"651 1487 OFFCURVE",
"751 1471 OFFCURVE",
"751 1243 CURVE SMOOTH",
"751 1047 OFFCURVE",
"692 966 OFFCURVE",
"497 966 CURVE SMOOTH",
"361 966 LINE"
);
}
);
width = 1073;
},
{
layerId = "3FB85DAF-C7EF-4F81-BE96-1E190958879E";
paths = (
{
closed = 1;
nodes = (
"651 0 LINE SMOOTH",
"976 0 OFFCURVE",
"1180 138 OFFCURVE",
"1174 498 CURVE SMOOTH",
"1170 732 OFFCURVE",
"1066 873 OFFCURVE",
"877 890 CURVE",
"1023 920 OFFCURVE",
"1116 1019 OFFCURVE",
"1120 1218 CURVE SMOOTH",
"1130 1612 OFFCURVE",
"847 1658 OFFCURVE",
"569 1658 CURVE SMOOTH",
"120 1658 LINE",
"120 0 LINE"
);
},
{
closed = 1;
nodes = (
"526 744 LINE",
"583 744 LINE SMOOTH",
"733 744 OFFCURVE",
"783 684 OFFCURVE",
"783 505 CURVE SMOOTH",
"783 361 OFFCURVE",
"732 283 OFFCURVE",
"581 283 CURVE SMOOTH",
"526 283 LINE"
);
},
{
closed = 1;
nodes = (
"526 1391 LINE",
"593 1391 LINE SMOOTH",
"701 1391 OFFCURVE",
"766 1309 OFFCURVE",
"766 1207 CURVE SMOOTH",
"766 1084 OFFCURVE",
"737 1003 OFFCURVE",
"580 1003 CURVE SMOOTH",
"526 1003 LINE"
);
}
);
width = 1244;
}
);
leftKerningGroup = B;
rightKerningGroup = B;
unicode = 0042;
userData = {
com.fontlab.hintData = {
hhints = (
{
position = 0;
width = 287;
},
{
position = 742;
width = 262;
},
{
position = 1388;
width = 270;
}
);
vhints = (
{
position = 745;
width = 360;
},
{
position = 761;
width = 398;
}
);
};
com.typemytype.robofont.layerData = {
b = {
anchors = (
);
components = (
);
contours = (
);
lib = {
};
name = B;
unicodes = (
);
width = 1251.1271;
};
};
};
},
{
glyphname = C;
lastChange = "2016-08-02 09:57:56 +0000";
layers = (
{
layerId = "FCD7E481-103E-4A6C-AD70-01DA443B2AD0";
paths = (
{
closed = 1;
nodes = (
"821 -22 OFFCURVE",
"901 181 OFFCURVE",
"901 464 CURVE SMOOTH",
"901 546 LINE",
"795 546 LINE",
"795 446 LINE SMOOTH",
"795 219 OFFCURVE",
"744 70 OFFCURVE",
"523 70 CURVE SMOOTH",
"292 70 OFFCURVE",
"231 215 OFFCURVE",
"231 460 CURVE SMOOTH",
"231 1194 LINE SMOOTH",
"231 1427 OFFCURVE",
"282 1586 OFFCURVE",
"523 1586 CURVE SMOOTH",
"740 1586 OFFCURVE",
"795 1446 OFFCURVE",
"795 1211 CURVE SMOOTH",
"795 1126 LINE",
"901 1126 LINE",
"901 1210 LINE SMOOTH",
"901 1492 OFFCURVE",
"811 1677 OFFCURVE",
"523 1677 CURVE SMOOTH",
"204 1677 OFFCURVE",
"118 1467 OFFCURVE",
"118 1181 CURVE SMOOTH",
"118 478 LINE SMOOTH",
"118 200 OFFCURVE",
"195 -22 OFFCURVE",
"523 -22 CURVE SMOOTH"
);
}
);
width = 1001;
},
{
associatedMasterId = "FCD7E481-103E-4A6C-AD70-01DA443B2AD0";
layerId = "314F922A-EAB9-4FAA-A6A3-AA6B58EEB1E3";
name = b;
width = 1186;
},
{
layerId = "8AC5A1D3-32A8-4416-86FC-94176A419B8F";
paths = (
{
closed = 1;
nodes = (
"871 -18 OFFCURVE",
"962 189 OFFCURVE",
"962 493 CURVE SMOOTH",
"962 616 LINE",
"743 616 LINE",
"743 494 LINE SMOOTH",
"743 297 OFFCURVE",
"733 163 OFFCURVE",
"546 163 CURVE SMOOTH",
"387 163 OFFCURVE",
"332 246 OFFCURVE",
"332 496 CURVE SMOOTH",
"332 1152 LINE SMOOTH",
"332 1358 OFFCURVE",
"350 1494 OFFCURVE",
"546 1494 CURVE SMOOTH",
"740 1494 OFFCURVE",
"743 1365 OFFCURVE",
"743 1182 CURVE SMOOTH",
"743 1065 LINE",
"962 1065 LINE",
"962 1197 LINE SMOOTH",
"962 1496 OFFCURVE",
"855 1674 OFFCURVE",
"544 1674 CURVE SMOOTH",
"193 1674 OFFCURVE",
"99 1455 OFFCURVE",
"99 1119 CURVE SMOOTH",
"99 533 LINE SMOOTH",
"99 223 OFFCURVE",
"192 -18 OFFCURVE",
"544 -18 CURVE SMOOTH"
);
}
);
width = 1054;
},
{
layerId = "3FB85DAF-C7EF-4F81-BE96-1E190958879E";
paths = (
{
closed = 1;
nodes = (
"998 -26 OFFCURVE",
"1108 187 OFFCURVE",
"1108 463 CURVE SMOOTH",
"1108 611 LINE",
"709 611 LINE",
"709 421 LINE SMOOTH",
"709 350 OFFCURVE",
"707 255 OFFCURVE",
"613 255 CURVE SMOOTH",
"521 255 OFFCURVE",
"513 348 OFFCURVE",
"513 421 CURVE SMOOTH",
"513 1237 LINE SMOOTH",
"513 1309 OFFCURVE",
"519 1403 OFFCURVE",
"613 1403 CURVE SMOOTH",
"707 1403 OFFCURVE",
"709 1309 OFFCURVE",
"709 1238 CURVE SMOOTH",
"709 1056 LINE",
"1108 1056 LINE",
"1108 1205 LINE SMOOTH",
"1108 1481 OFFCURVE",
"997 1684 OFFCURVE",
"613 1684 CURVE SMOOTH",
"227 1684 OFFCURVE",
"100 1475 OFFCURVE",
"100 1128 CURVE SMOOTH",
"100 529 LINE SMOOTH",
"100 184 OFFCURVE",
"227 -26 OFFCURVE",
"613 -26 CURVE SMOOTH"
);
}
);
width = 1181;
}
);
leftKerningGroup = C;
rightKerningGroup = C;
unicode = 0043;
userData = {
com.fontlab.hintData = {
hhints = (
{
position = -26;
width = 284;
},
{
position = 1400;
width = 284;
}
);
vhints = (
{
position = 78;
width = 420;
},
{
position = 686;
width = 406;
}
);
};
com.typemytype.robofont.layerData = {
b = {
anchors = (
);
components = (
);
contours = (
);
lib = {
};
name = C;
unicodes = (
);
width = 1186;
};
};
};
},
{
glyphname = D;
lastChange = "2016-08-02 09:57:56 +0000";
layers = (
{
layerId = "FCD7E481-103E-4A6C-AD70-01DA443B2AD0";
paths = (
{
closed = 1;
nodes = (
"526 0 LINE SMOOTH",
"847 0 OFFCURVE",
"941 208 OFFCURVE",
"941 494 CURVE SMOOTH",
"941 1182 LINE SMOOTH",
"941 1448 OFFCURVE",
"846 1658 OFFCURVE",
"517 1658 CURVE SMOOTH",
"153 1658 LINE",
"153 0 LINE"
);
},
{
closed = 1;
nodes = (
"265 1569 LINE",
"516 1569 LINE SMOOTH",
"771 1569 OFFCURVE",
"828 1416 OFFCURVE",
"828 1173 CURVE SMOOTH",
"828 506 LINE SMOOTH",
"828 280 OFFCURVE",
"789 88 OFFCURVE",
"521 88 CURVE SMOOTH",
"265 88 LINE"
);
}
);
width = 1059;
},
{
associatedMasterId = "FCD7E481-103E-4A6C-AD70-01DA443B2AD0";
layerId = "9ED8E04F-913D-4218-B628-E7214A9A4D38";
name = b;
width = 1240;
},
{
layerId = "8AC5A1D3-32A8-4416-86FC-94176A419B8F";
paths = (
{
closed = 1;
nodes = (
"507 0 LINE SMOOTH",
"856 0 OFFCURVE",
"980 190 OFFCURVE",
"980 542 CURVE SMOOTH",
"980 1152 LINE SMOOTH",
"980 1489 OFFCURVE",
"859 1658 OFFCURVE",
"490 1658 CURVE SMOOTH",
"130 1658 LINE",
"130 0 LINE"
);
},
{
closed = 1;
nodes = (
"361 1487 LINE",
"486 1487 LINE SMOOTH",
"723 1487 OFFCURVE",
"747 1380 OFFCURVE",
"747 1125 CURVE SMOOTH",
"747 586 LINE SMOOTH",
"747 318 OFFCURVE",
"743 166 OFFCURVE",
"491 166 CURVE SMOOTH",
"361 166 LINE"
);
}
);
width = 1079;
},
{
layerId = "3FB85DAF-C7EF-4F81-BE96-1E190958879E";
paths = (
{
closed = 1;
nodes = (
"558 0 LINE SMOOTH",
"1010 0 OFFCURVE",
"1134 151 OFFCURVE",
"1134 531 CURVE SMOOTH",
"1134 1129 LINE SMOOTH",
"1134 1508 OFFCURVE",
"1010 1658 OFFCURVE",
"557 1658 CURVE SMOOTH",
"120 1658 LINE",
"120 0 LINE"
);
},
{
closed = 1;
nodes = (
"526 1378 LINE",
"564 1378 LINE SMOOTH",
"703 1378 OFFCURVE",
"717 1334 OFFCURVE",
"717 1220 CURVE SMOOTH",
"717 442 LINE SMOOTH",
"717 327 OFFCURVE",
"703 280 OFFCURVE",
"564 280 CURVE SMOOTH",
"526 280 LINE"
);
}
);
width = 1234;
}
);
leftKerningGroup = D;
rightKerningGroup = D;
unicode = 0044;
userData = {
com.fontlab.hintData = {
hhints = (
{
position = 0;
width = 284;
},
{
position = 1374;
width = 284;
}
);
vhints = (
{
position = 694;
width = 424;
}
);
};
com.typemytype.robofont.layerData = {
b = {
anchors = (
);
components = (
);
contours = (
);
lib = {
};
name = D;
unicodes = (
);
width = 1240;
};
};
};
},
{
glyphname = Eth;
lastChange = "2016-08-02 09:57:56 +0000";
layers = (
{
layerId = "FCD7E481-103E-4A6C-AD70-01DA443B2AD0";
paths = (
{
closed = 1;
nodes = (
"526 0 LINE SMOOTH",
"847 0 OFFCURVE",
"941 208 OFFCURVE",
"941 494 CURVE SMOOTH",
"941 1182 LINE SMOOTH",
"941 1448 OFFCURVE",
"846 1658 OFFCURVE",
"517 1658 CURVE SMOOTH",
"153 1658 LINE",
"153 911 LINE",
"18 911 LINE",
"18 836 LINE",
"153 836 LINE",
"153 0 LINE"
);
},
{
closed = 1;
nodes = (
"265 836 LINE",
"456 836 LINE",
"456 911 LINE",
"265 911 LINE",
"265 1569 LINE",
"516 1569 LINE SMOOTH",
"771 1569 OFFCURVE",
"828 1416 OFFCURVE",
"828 1173 CURVE SMOOTH",
"828 506 LINE SMOOTH",
"828 280 OFFCURVE",
"789 88 OFFCURVE",
"521 88 CURVE SMOOTH",
"265 88 LINE"
);
}
);
width = 1149;
},
{
layerId = "8AC5A1D3-32A8-4416-86FC-94176A419B8F";
paths = (
{
closed = 1;
nodes = (
"507 0 LINE SMOOTH",
"856 0 OFFCURVE",
"980 190 OFFCURVE",
"980 542 CURVE SMOOTH",
"980 1152 LINE SMOOTH",
"980 1489 OFFCURVE",
"859 1658 OFFCURVE",
"490 1658 CURVE SMOOTH",
"130 1658 LINE",
"130 927 LINE",
"29 927 LINE",
"29 795 LINE",
"130 795 LINE",
"130 0 LINE"
);
},
{
closed = 1;
nodes = (
"361 795 LINE",
"485 795 LINE",
"485 927 LINE",
"361 927 LINE",
"361 1487 LINE",
"486 1487 LINE SMOOTH",
"723 1487 OFFCURVE",
"747 1380 OFFCURVE",
"747 1125 CURVE SMOOTH",
"747 586 LINE SMOOTH",
"747 318 OFFCURVE",
"743 166 OFFCURVE",
"491 166 CURVE SMOOTH",
"361 166 LINE"
);
}
);
width = 1061;
},
{
layerId = "3FB85DAF-C7EF-4F81-BE96-1E190958879E";
paths = (
{
closed = 1;
nodes = (
"537 0 LINE SMOOTH",
"989 0 OFFCURVE",
"1113 151 OFFCURVE",
"1113 531 CURVE SMOOTH",
"1113 1129 LINE SMOOTH",
"1113 1508 OFFCURVE",
"989 1658 OFFCURVE",
"536 1658 CURVE SMOOTH",
"99 1658 LINE",
"99 945 LINE",
"11 945 LINE",
"11 748 LINE",
"99 748 LINE",
"99 0 LINE"
);
},
{
closed = 1;
nodes = (
"505 748 LINE",
"577 748 LINE",
"577 945 LINE",
"505 945 LINE",
"505 1378 LINE",
"542 1378 LINE SMOOTH",
"681 1378 OFFCURVE",
"696 1334 OFFCURVE",
"696 1220 CURVE SMOOTH",
"696 442 LINE SMOOTH",
"696 327 OFFCURVE",
"682 280 OFFCURVE",
"543 280 CURVE SMOOTH",
"505 280 LINE"
);
}
);
width = 1179;
}
);
unicode = 00D0;
userData = {
com.fontlab.hintData = {
hhints = (
{
position = 0;
width = 284;
},
{
position = 1374;
width = 284;
}
);
vhints = (
{
position = 694;
width = 424;
}
);
};
};
},
{
glyphname = Dcroat;
lastChange = "2016-08-02 09:57:56 +0000";
layers = (
{
layerId = "FCD7E481-103E-4A6C-AD70-01DA443B2AD0";
paths = (
{
closed = 1;
nodes = (
"528 0 LINE SMOOTH",
"848 0 OFFCURVE",
"942 208 OFFCURVE",
"942 494 CURVE SMOOTH",
"942 1182 LINE SMOOTH",
"942 1448 OFFCURVE",
"848 1658 OFFCURVE",
"518 1658 CURVE SMOOTH",
"154 1658 LINE",
"154 911 LINE",
"20 911 LINE",
"20 836 LINE",
"154 836 LINE",
"154 0 LINE"
);
},
{
closed = 1;
nodes = (
"266 836 LINE",
"458 836 LINE",
"458 911 LINE",
"266 911 LINE",
"266 1569 LINE",
"517 1569 LINE SMOOTH",
"772 1569 OFFCURVE",
"829 1416 OFFCURVE",
"829 1173 CURVE SMOOTH",
"829 506 LINE SMOOTH",
"829 280 OFFCURVE",
"790 88 OFFCURVE",
"522 88 CURVE SMOOTH",
"266 88 LINE"
);
}
);
width = 1060;
},
{
associatedMasterId = "FCD7E481-103E-4A6C-AD70-01DA443B2AD0";
layerId = "DA1B3E1C-5EFC-4502-B0DD-04EB39C7C163";
name = b;
width = 1251;
},
{
layerId = "8AC5A1D3-32A8-4416-86FC-94176A419B8F";
paths = (
{
closed = 1;
nodes = (
"512 0 LINE SMOOTH",
"860 0 OFFCURVE",
"984 190 OFFCURVE",
"984 542 CURVE SMOOTH",
"984 1152 LINE SMOOTH",
"984 1489 OFFCURVE",
"864 1658 OFFCURVE",
"495 1658 CURVE SMOOTH",
"134 1658 LINE",
"134 927 LINE",
"34 927 LINE",
"34 795 LINE",
"134 795 LINE",
"134 0 LINE"
);
},
{
closed = 1;
nodes = (
"366 795 LINE",
"489 795 LINE",
"489 927 LINE",
"366 927 LINE",
"366 1487 LINE",
"490 1487 LINE SMOOTH",
"728 1487 OFFCURVE",
"751 1380 OFFCURVE",
"751 1125 CURVE SMOOTH",
"751 586 LINE SMOOTH",
"751 318 OFFCURVE",
"748 166 OFFCURVE",
"495 166 CURVE SMOOTH",
"366 166 LINE"
);
}
);
width = 1083;
},
{
layerId = "3FB85DAF-C7EF-4F81-BE96-1E190958879E";
paths = (
{
closed = 1;
nodes = (
"569 0 LINE SMOOTH",
"1020 0 OFFCURVE",
"1145 151 OFFCURVE",
"1145 531 CURVE SMOOTH",
"1145 1129 LINE SMOOTH",
"1145 1508 OFFCURVE",
"1021 1658 OFFCURVE",
"568 1658 CURVE SMOOTH",
"131 1658 LINE",
"131 936 LINE",
"24 936 LINE",
"24 757 LINE",
"131 757 LINE",
"131 0 LINE"
);
},
{
closed = 1;
nodes = (
"525 757 LINE",
"619 757 LINE",
"619 936 LINE",
"525 936 LINE",
"525 1378 LINE",
"584 1378 LINE SMOOTH",
"723 1378 OFFCURVE",
"737 1334 OFFCURVE",
"737 1220 CURVE SMOOTH",
"737 442 LINE SMOOTH",
"737 327 OFFCURVE",
"724 280 OFFCURVE",
"584 280 CURVE SMOOTH",
"525 280 LINE"
);
}
);
width = 1244;
}
);
unicode = 0110;
userData = {
com.fontlab.hintData = {
hhints = (
{
position = 0;
width = 284;
},
{
position = 1374;
width = 284;
}
);
vhints = (
{
position = 694;
width = 424;
}
);
};
com.typemytype.robofont.layerData = {
b = {
anchors = (
);
components = (
);
contours = (
);
lib = {
};
name = Dcroat;
unicodes = (
);
width = 1251;
};
};
};
},
{
glyphname = E;
lastChange = "2016-08-02 09:57:56 +0000";
layers = (
{
layerId = "FCD7E481-103E-4A6C-AD70-01DA443B2AD0";
paths = (
{
closed = 1;
nodes = (
"731 0 LINE",
"731 88 LINE",
"264 88 LINE",
"264 817 LINE",
"643 817 LINE",
"643 904 LINE",
"264 904 LINE",
"264 1569 LINE",
"726 1569 LINE",
"726 1658 LINE",
"152 1658 LINE",
"152 0 LINE"
);
}
);
width = 804;
},
{
associatedMasterId = "FCD7E481-103E-4A6C-AD70-01DA443B2AD0";
layerId = "5880548F-8115-4AD8-B1A9-2C993EC503FD";
name = b;
width = 945;
},
{
layerId = "8AC5A1D3-32A8-4416-86FC-94176A419B8F";
paths = (
{
closed = 1;
nodes = (
"777 0 LINE",
"777 166 LINE",
"361 166 LINE",
"361 774 LINE",
"695 774 LINE",
"695 939 LINE",
"361 939 LINE",
"361 1487 LINE",
"772 1487 LINE",
"772 1658 LINE",
"130 1658 LINE",
"130 0 LINE"
);
}
);
width = 834;
},
{
layerId = "3FB85DAF-C7EF-4F81-BE96-1E190958879E";
paths = (
{
closed = 1;
nodes = (
"900 0 LINE",
"900 271 LINE",
"526 271 LINE",
"526 734 LINE",
"802 734 LINE",
"802 1016 LINE",
"526 1016 LINE",
"526 1386 LINE",
"896 1386 LINE",
"896 1658 LINE",
"120 1658 LINE",
"120 0 LINE"
);
}
);
width = 941;
}
);
leftKerningGroup = E;
rightKerningGroup = E;
unicode = 0045;
userData = {
com.typemytype.robofont.layerData = {
b = {
anchors = (
);
components = (
);
contours = (
);
lib = {
};
name = E;
unicodes = (
);
width = 945;
};
};
};
},
{
glyphname = F;
lastChange = "2016-08-02 09:57:56 +0000";
layers = (
{
layerId = "FCD7E481-103E-4A6C-AD70-01DA443B2AD0";
paths = (
{
closed = 1;
nodes = (
"265 0 LINE",
"265 817 LINE",
"662 817 LINE",
"662 904 LINE",
"265 904 LINE",
"265 1570 LINE",
"724 1570 LINE",
"724 1658 LINE",
"153 1658 LINE",
"153 0 LINE"
);
}
);
width = 784;
},
{
associatedMasterId = "FCD7E481-103E-4A6C-AD70-01DA443B2AD0";
layerId = "26B32ED9-B6AC-4014-B12F-A3339D548441";
name = b;
width = 778;
},
{
layerId = "8AC5A1D3-32A8-4416-86FC-94176A419B8F";
paths = (
{
closed = 1;
nodes = (
"361 0 LINE",
"361 776 LINE",
"678 776 LINE",
"678 941 LINE",
"361 941 LINE",
"361 1492 LINE",
"770 1492 LINE",
"770 1658 LINE",
"130 1658 LINE",
"130 0 LINE"
);
}
);
width = 800;
},
{
layerId = "3FB85DAF-C7EF-4F81-BE96-1E190958879E";
paths = (
{
closed = 1;
nodes = (
"526 0 LINE",
"526 725 LINE",
"828 725 LINE",
"828 1007 LINE",
"526 1007 LINE",
"526 1386 LINE",
"861 1386 LINE",
"861 1658 LINE",
"120 1658 LINE",
"120 0 LINE"
);
}
);
width = 915;
}
);
leftKerningGroup = F;
rightKerningGroup = F;
unicode = 0046;
userData = {
com.typemytype.robofont.layerData = {
b = {
anchors = (
);
components = (
);
contours = (
);
lib = {
};
name = F;
unicodes = (
);
width = 778;
};
};
};
},
{
glyphname = G;
lastChange = "2016-08-02 09:57:56 +0000";
layers = (
{
layerId = "FCD7E481-103E-4A6C-AD70-01DA443B2AD0";
paths = (
{
closed = 1;
nodes = (
"691 -23 OFFCURVE",
"779 57 OFFCURVE",
"819 186 CURVE",
"836 0 LINE",
"908 0 LINE",
"908 790 LINE",
"539 790 LINE",
"539 704 LINE",
"803 704 LINE",
"803 460 LINE SMOOTH",
"803 218 OFFCURVE",
"744 70 OFFCURVE",
"525 70 CURVE SMOOTH",
"288 70 OFFCURVE",
"231 225 OFFCURVE",
"231 467 CURVE SMOOTH",
"231 1189 LINE SMOOTH",
"231 1422 OFFCURVE",
"279 1586 OFFCURVE",
"523 1586 CURVE SMOOTH",
"738 1586 OFFCURVE",
"799 1454 OFFCURVE",
"799 1211 CURVE SMOOTH",
"799 1146 LINE",
"905 1146 LINE",
"905 1204 LINE SMOOTH",
"905 1495 OFFCURVE",
"811 1677 OFFCURVE",
"522 1677 CURVE SMOOTH",
"203 1677 OFFCURVE",
"118 1477 OFFCURVE",
"118 1185 CURVE SMOOTH",
"118 481 LINE SMOOTH",
"118 189 OFFCURVE",
"201 -23 OFFCURVE",
"517 -23 CURVE SMOOTH"
);
}
);
width = 1045;
},
{
associatedMasterId = "FCD7E481-103E-4A6C-AD70-01DA443B2AD0";
layerId = "C7927AC4-7471-46D4-9EEF-87B1BAAF863C";
name = b;
width = 1224;
},
{
layerId = "8AC5A1D3-32A8-4416-86FC-94176A419B8F";
paths = (
{
closed = 1;
nodes = (
"689 -20 OFFCURVE",
"775 68 OFFCURVE",
"819 191 CURVE",
"841 0 LINE",
"988 0 LINE",
"988 822 LINE",
"568 822 LINE",
"568 658 LINE",
"778 658 LINE",
"778 542 LINE SMOOTH",
"778 292 OFFCURVE",
"733 163 OFFCURVE",
"552 163 CURVE SMOOTH",
"370 163 OFFCURVE",
"330 280 OFFCURVE",
"330 520 CURVE SMOOTH",
"330 1134 LINE SMOOTH",
"330 1340 OFFCURVE",
"342 1494 OFFCURVE",
"546 1494 CURVE SMOOTH",
"733 1494 OFFCURVE",
"758 1394 OFFCURVE",
"758 1180 CURVE SMOOTH",
"758 1128 LINE",
"975 1128 LINE",
"975 1189 LINE SMOOTH",
"975 1518 OFFCURVE",
"854 1674 OFFCURVE",
"543 1674 CURVE SMOOTH",
"192 1674 OFFCURVE",
"99 1463 OFFCURVE",
"99 1099 CURVE SMOOTH",
"99 544 LINE SMOOTH",
"99 186 OFFCURVE",
"213 -20 OFFCURVE",
"525 -20 CURVE SMOOTH"
);
}
);
width = 1096;
},
{
layerId = "3FB85DAF-C7EF-4F81-BE96-1E190958879E";
paths = (
{
closed = 1;
nodes = (
"705 -26 OFFCURVE",
"781 37 OFFCURVE",
"823 121 CURVE",
"843 0 LINE",
"1114 0 LINE",
"1114 873 LINE",
"616 873 LINE",
"616 640 LINE",
"749 640 LINE",
"749 424 LINE SMOOTH",
"749 351 OFFCURVE",
"723 256 OFFCURVE",
"630 256 CURVE SMOOTH",
"537 256 OFFCURVE",
"517 350 OFFCURVE",
"517 423 CURVE SMOOTH",
"517 1236 LINE SMOOTH",
"517 1308 OFFCURVE",
"525 1403 OFFCURVE",
"619 1403 CURVE SMOOTH",
"713 1403 OFFCURVE",
"715 1310 OFFCURVE",
"715 1238 CURVE SMOOTH",
"715 1079 LINE",
"1114 1079 LINE",
"1114 1198 LINE SMOOTH",
"1114 1475 OFFCURVE",
"998 1684 OFFCURVE",
"614 1684 CURVE SMOOTH",
"228 1684 OFFCURVE",
"100 1456 OFFCURVE",
"100 1108 CURVE SMOOTH",
"100 550 LINE SMOOTH",
"100 214 OFFCURVE",
"211 -26 OFFCURVE",
"564 -26 CURVE SMOOTH"
);
}
);
width = 1219;
}
);
leftKerningGroup = G;
rightKerningGroup = G;
unicode = 0047;
userData = {
com.fontlab.hintData = {
hhints = (
{
position = -26;
width = 285;
},
{
position = 1400;
width = 284;
}
);
vhints = (
{
position = 80;
width = 424;
}
);
};
com.typemytype.robofont.layerData = {
b = {
anchors = (
);
components = (
);
contours = (
);
lib = {
};
name = G;
unicodes = (
);
width = 1224;
};
};
};
},
{
glyphname = H;
lastChange = "2016-08-02 09:57:56 +0000";
layers = (
{
layerId = "FCD7E481-103E-4A6C-AD70-01DA443B2AD0";
paths = (
{
closed = 1;
nodes = (
"264 0 LINE",
"264 826 LINE",
"845 826 LINE",
"845 0 LINE",
"957 0 LINE",
"957 1658 LINE",
"845 1658 LINE",
"845 911 LINE",
"264 911 LINE",
"264 1658 LINE",
"152 1658 LINE",
"152 0 LINE"
);
}
);
width = 1109;
},
{
associatedMasterId = "FCD7E481-103E-4A6C-AD70-01DA443B2AD0";
layerId = "49018FD0-0B7E-4180-A651-3533F4F1927E";
name = b;
width = 1283;
},
{
layerId = "8AC5A1D3-32A8-4416-86FC-94176A419B8F";
paths = (
{
closed = 1;
nodes = (
"361 0 LINE",
"361 777 LINE",
"787 777 LINE",
"787 0 LINE",
"1018 0 LINE",
"1018 1658 LINE",
"787 1658 LINE",
"787 942 LINE",
"361 942 LINE",
"361 1658 LINE",
"130 1658 LINE",
"130 0 LINE"
);
}
);
width = 1148;
},
{
layerId = "3FB85DAF-C7EF-4F81-BE96-1E190958879E";
paths = (
{
closed = 1;
nodes = (
"535 0 LINE",
"535 711 LINE",
"742 711 LINE",
"742 0 LINE",
"1148 0 LINE",
"1148 1658 LINE",
"742 1658 LINE",
"742 1002 LINE",
"535 1002 LINE",
"535 1658 LINE",
"130 1658 LINE",
"130 0 LINE"
);
}
);
width = 1278;
}
);
leftKerningGroup = H;
rightKerningGroup = H;
unicode = 0048;
userData = {
com.typemytype.robofont.layerData = {
b = {
anchors = (
);
components = (
);
contours = (
);
lib = {
};
name = H;
unicodes = (
);
width = 1283;
};
};
};
},
{
glyphname = Hbar;
lastChange = "2016-08-02 09:57:56 +0000";
layers = (
{
layerId = "FCD7E481-103E-4A6C-AD70-01DA443B2AD0";
paths = (
{
closed = 1;
nodes = (
"264 0 LINE",
"264 826 LINE",
"845 826 LINE",
"845 0 LINE",
"957 0 LINE",
"957 1311 LINE",
"1034 1311 LINE",
"1034 1377 LINE",
"957 1377 LINE",
"957 1658 LINE",
"845 1658 LINE",
"845 1377 LINE",
"264 1377 LINE",
"264 1658 LINE",
"152 1658 LINE",
"152 1377 LINE",
"76 1377 LINE",
"76 1311 LINE",
"152 1311 LINE",
"152 0 LINE"
);
},
{
closed = 1;
nodes = (
"264 1311 LINE",
"845 1311 LINE",
"845 911 LINE",
"264 911 LINE"
);
}
);
width = 1109;
},
{
layerId = "8AC5A1D3-32A8-4416-86FC-94176A419B8F";
paths = (
{
closed = 1;
nodes = (
"361 0 LINE",
"361 777 LINE",
"787 777 LINE",
"787 0 LINE",
"1018 0 LINE",
"1018 1267 LINE",
"1115 1267 LINE",
"1115 1387 LINE",
"1018 1387 LINE",
"1018 1658 LINE",
"787 1658 LINE",
"787 1387 LINE",
"361 1387 LINE",
"361 1658 LINE",
"130 1658 LINE",
"130 1387 LINE",
"33 1387 LINE",
"33 1267 LINE",
"130 1267 LINE",
"130 0 LINE"
);
},
{
closed = 1;
nodes = (
"361 1267 LINE",
"787 1267 LINE",
"787 942 LINE",
"361 942 LINE"
);
}
);
width = 1148;
},
{
layerId = "3FB85DAF-C7EF-4F81-BE96-1E190958879E";
paths = (
{
closed = 1;
nodes = (
"468 0 LINE",
"468 711 LINE",
"656 711 LINE",
"656 0 LINE",
"1062 0 LINE",
"1062 1257 LINE",
"1137 1257 LINE",
"1137 1370 LINE",
"1062 1370 LINE",
"1062 1658 LINE",
"656 1658 LINE",
"656 1370 LINE",
"468 1370 LINE",
"468 1658 LINE",
"63 1658 LINE",
"63 1370 LINE",
"-43 1370 LINE",
"-43 1257 LINE",
"63 1257 LINE",
"63 0 LINE"
);
},
{
closed = 1;
nodes = (
"468 1257 LINE",
"656 1257 LINE",
"656 1002 LINE",
"468 1002 LINE"
);
}
);
width = 1094;
}
);
unicode = 0126;
},
{
glyphname = I;
lastChange = "2016-08-02 09:57:56 +0000";
layers = (
{
layerId = "FCD7E481-103E-4A6C-AD70-01DA443B2AD0";
paths = (
{
closed = 1;
nodes = (
"267 0 LINE",
"267 1658 LINE",
"156 1658 LINE",
"156 0 LINE"
);
}
);
width = 422;
},
{
associatedMasterId = "FCD7E481-103E-4A6C-AD70-01DA443B2AD0";
layerId = "5B0FD03C-CFC8-4625-A0D4-FE6530BB40DE";
name = b;
width = 652;
},
{
layerId = "8AC5A1D3-32A8-4416-86FC-94176A419B8F";
paths = (
{
closed = 1;
nodes = (
"368 0 LINE",
"368 1658 LINE",
"141 1658 LINE",
"141 0 LINE"
);
}
);
width = 507;
},
{
layerId = "3FB85DAF-C7EF-4F81-BE96-1E190958879E";
paths = (
{
closed = 1;
nodes = (
"526 0 LINE",
"526 1658 LINE",
"121 1658 LINE",
"121 0 LINE"
);
}
);
width = 647;
}
);
leftKerningGroup = I;
rightKerningGroup = I;
unicode = 0049;
userData = {
com.fontlab.hintData = {
vhints = (
{
position = 98;
width = 412;
}
);
};
com.typemytype.robofont.layerData = {
b = {
anchors = (
);
components = (
);
contours = (
);
lib = {
};
name = I;
unicodes = (
);
width = 652;
};
};
};
},
{
glyphname = J;
lastChange = "2016-08-02 09:57:56 +0000";
layers = (
{
layerId = "FCD7E481-103E-4A6C-AD70-01DA443B2AD0";
paths = (
{
closed = 1;
nodes = (
"74 -92 LINE SMOOTH",
"353 -92 OFFCURVE",
"389 29 OFFCURVE",
"390 294 CURVE",
"390 1658 LINE",
"278 1658 LINE",
"278 308 LINE SMOOTH",
"278 43 OFFCURVE",
"260 -4 OFFCURVE",
"16 -5 CURVE",
"16 -92 LINE"
);
}
);
width = 543;
},
{
associatedMasterId = "FCD7E481-103E-4A6C-AD70-01DA443B2AD0";
layerId = "B0ECBEBD-C117-4654-8BA6-93B6FB3AD684";
name = b;
width = 748;
},
{
layerId = "8AC5A1D3-32A8-4416-86FC-94176A419B8F";
paths = (
{
closed = 1;
nodes = (
"124 -39 LINE SMOOTH",
"411 -39 OFFCURVE",
"485 91 OFFCURVE",
"486 374 CURVE",
"486 1658 LINE",
"255 1658 LINE",
"255 378 LINE SMOOTH",
"255 170 OFFCURVE",
"215 127 OFFCURVE",
"14 127 CURVE",
"14 -39 LINE"
);
}
);
width = 617;
},
{
layerId = "3FB85DAF-C7EF-4F81-BE96-1E190958879E";
paths = (
{
closed = 1;
nodes = (
"228 -43 LINE SMOOTH",
"533 -43 OFFCURVE",
"616 96 OFFCURVE",
"622 363 CURVE",
"623 1658 LINE",
"217 1658 LINE",
"217 381 LINE SMOOTH",
"217 259 OFFCURVE",
"165 235 OFFCURVE",
"30 238 CURVE",
"30 -43 LINE"
);
}
);
width = 743;
}
);
leftKerningGroup = J;
rightKerningGroup = J;
unicode = 004A;
userData = {
com.fontlab.hintData = {
hhints = (
{
position = -44;
width = 286;
}
);
};
com.typemytype.robofont.layerData = {
b = {
anchors = (
);
components = (
);
contours = (
);
lib = {
};
name = J;
unicodes = (
);
width = 748;
};
};
};
},
{
glyphname = K;
lastChange = "2016-08-02 09:57:56 +0000";
layers = (
{
layerId = "FCD7E481-103E-4A6C-AD70-01DA443B2AD0";
paths = (
{
closed = 1;
nodes = (
"264 0 LINE",
"264 594 LINE",
"425 889 LINE",
"829 0 LINE",
"941 0 LINE",
"505 957 LINE",
"856 1658 LINE",
"746 1658 LINE",
"264 728 LINE",
"264 1658 LINE",
"152 1658 LINE",
"152 0 LINE"
);
}
);
width = 942;
},
{
associatedMasterId = "FCD7E481-103E-4A6C-AD70-01DA443B2AD0";
layerId = "EFF2075F-277F-4738-BAFC-9B42DD9C419F";
name = b;
width = 913;
},
{
layerId = "8AC5A1D3-32A8-4416-86FC-94176A419B8F";
paths = (
{
closed = 1;
nodes = (
"361 0 LINE",
"361 653 LINE",
"451 822 LINE",
"784 0 LINE",
"1009 0 LINE",
"628 927 LINE",
"956 1658 LINE",
"741 1658 LINE",
"361 877 LINE",
"361 1658 LINE",
"130 1658 LINE",
"130 0 LINE"
);
}
);
width = 1014;
},
{
layerId = "3FB85DAF-C7EF-4F81-BE96-1E190958879E";
paths = (
{
closed = 1;
nodes = (
"526 0 LINE",
"526 692 LINE",
"547 718 LINE",
"763 0 LINE",
"1180 0 LINE",
"875 905 LINE",
"1176 1658 LINE",
"777 1658 LINE",
"526 1012 LINE",
"526 1658 LINE",
"120 1658 LINE",
"120 0 LINE"
);
}
);
width = 1205;
}
);
leftKerningGroup = K;
rightKerningGroup = K;
unicode = 004B;
userData = {
com.typemytype.robofont.layerData = {
b = {
anchors = (
);
components = (
);
contours = (
);
lib = {
};
name = K;
unicodes = (
);
width = 913;
};
};
};
},
{
glyphname = L;
lastChange = "2016-08-02 09:57:56 +0000";
layers = (
{
layerId = "FCD7E481-103E-4A6C-AD70-01DA443B2AD0";
paths = (
{
closed = 1;
nodes = (
"766 0 LINE",
"766 88 LINE",
"265 88 LINE",
"265 1658 LINE",
"153 1658 LINE",
"153 0 LINE"
);
}
);
width = 764;
},
{
associatedMasterId = "FCD7E481-103E-4A6C-AD70-01DA443B2AD0";
layerId = "C49B4B0A-361F-4E8C-A1A0-F28311E98BC7";
name = b;
width = 939;
},
{
layerId = "8AC5A1D3-32A8-4416-86FC-94176A419B8F";
paths = (
{
closed = 1;
nodes = (
"784 0 LINE",
"784 166 LINE",
"361 166 LINE",
"361 1658 LINE",
"130 1658 LINE",
"130 0 LINE"
);
}
);
width = 813;
},
{
layerId = "3FB85DAF-C7EF-4F81-BE96-1E190958879E";
paths = (
{
closed = 1;
nodes = (
"895 0 LINE",
"895 271 LINE",
"526 271 LINE",
"526 1658 LINE",
"120 1658 LINE",
"120 0 LINE"
);
}
);
width = 934;
}
);
leftKerningGroup = L;
rightKerningGroup = L;
unicode = 004C;
userData = {
com.typemytype.robofont.layerData = {
b = {
anchors = (
);
components = (
);
contours = (
);
lib = {
};
name = L;
unicodes = (
);
width = 939;
};
};
};
},
{
glyphname = Lslash;
lastChange = "2016-08-02 09:57:56 +0000";
layers = (
{
layerId = "FCD7E481-103E-4A6C-AD70-01DA443B2AD0";
paths = (
{
closed = 1;
nodes = (
"766 0 LINE",
"766 88 LINE",
"265 88 LINE",
"265 895 LINE",
"514 1024 LINE",
"514 1115 LINE",
"265 986 LINE",
"265 1658 LINE",
"153 1658 LINE",
"153 926 LINE",
"6 850 LINE",
"6 759 LINE",
"153 835 LINE",
"153 0 LINE"
);
}
);
width = 764;
},
{
layerId = "8AC5A1D3-32A8-4416-86FC-94176A419B8F";
paths = (
{
closed = 1;
nodes = (
"784 0 LINE",
"784 166 LINE",
"361 166 LINE",
"361 901 LINE",
"576 1020 LINE",
"576 1197 LINE",
"361 1079 LINE",
"361 1658 LINE",
"130 1658 LINE",
"130 950 LINE",
"-12 872 LINE",
"-12 694 LINE",
"130 772 LINE",
"130 0 LINE"
);
}
);
width = 813;
},
{
layerId = "3FB85DAF-C7EF-4F81-BE96-1E190958879E";
paths = (
{
closed = 1;
nodes = (
"916 0 LINE",
"916 271 LINE",
"547 271 LINE",
"547 907 LINE",
"745 998 LINE",
"745 1205 LINE",
"547 1114 LINE",
"547 1658 LINE",
"141 1658 LINE",
"141 930 LINE",
"24 876 LINE",
"24 669 LINE",
"141 722 LINE",
"141 0 LINE"
);
}
);
width = 954;
}
);
unicode = 0141;
},
{
glyphname = M;
lastChange = "2016-08-02 09:57:56 +0000";
layers = (
{
layerId = "FCD7E481-103E-4A6C-AD70-01DA443B2AD0";
paths = (
{
closed = 1;
nodes = (
"230 0 LINE",
"271 1388 LINE",
"605 0 LINE",
"686 0 LINE",
"1024 1391 LINE",
"1065 0 LINE",
"1162 0 LINE",
"1114 1658 LINE",
"999 1658 LINE",
"644 162 LINE",
"292 1658 LINE",
"182 1658 LINE",
"133 0 LINE"
);
}
);
width = 1294;
},
{
associatedMasterId = "FCD7E481-103E-4A6C-AD70-01DA443B2AD0";
layerId = "F56E9E7E-B089-4E9D-8496-F5F48B94A076";
name = b;
width = 1472;
},
{
layerId = "8AC5A1D3-32A8-4416-86FC-94176A419B8F";
paths = (
{
closed = 1;
nodes = (
"314 0 LINE",
"332 1205 LINE",
"611 0 LINE",
"741 0 LINE",
"1022 1205 LINE",
"1040 0 LINE",
"1227 0 LINE",
"1196 1658 LINE",
"970 1658 LINE",
"675 313 LINE",
"382 1658 LINE",
"156 1658 LINE",
"125 0 LINE"
);
}
);
width = 1352;
},
{
layerId = "3FB85DAF-C7EF-4F81-BE96-1E190958879E";
paths = (
{
closed = 1;
nodes = (
"401 0 LINE",
"428 1085 LINE",
"611 0 LINE",
"870 0 LINE",
"1039 1075 LINE",
"1071 0 LINE",
"1353 0 LINE",
"1326 1658 LINE",
"902 1658 LINE",
"734 805 LINE",
"583 1658 LINE",
"141 1658 LINE",
"114 0 LINE"
);
}
);
width = 1468;
}
);
leftKerningGroup = M;
rightKerningGroup = M;
unicode = 004D;
userData = {
com.fontlab.hintData = {
vhints = (
{
position = 86;
width = 290;
},
{
position = 113;
width = 291;
},
{
position = 1012;
width = 291;
},
{
position = 1044;
width = 286;
}
);
};
com.typemytype.robofont.layerData = {
b = {
anchors = (
);
components = (
);
contours = (
);
lib = {
};
name = M;
unicodes = (
);
width = 1472;
};
};
};
},
{
glyphname = N;
lastChange = "2016-08-02 09:57:56 +0000";
layers = (
{
layerId = "FCD7E481-103E-4A6C-AD70-01DA443B2AD0";
paths = (
{
closed = 1;
nodes = (
"252 0 LINE",
"252 1403 LINE",
"815 0 LINE",
"903 0 LINE",
"903 1658 LINE",
"804 1658 LINE",
"804 258 LINE",
"242 1658 LINE",
"153 1658 LINE",
"153 0 LINE"
);
}
);
width = 1055;
},
{
associatedMasterId = "FCD7E481-103E-4A6C-AD70-01DA443B2AD0";
layerId = "4CD37C39-0352-4B22-A848-33A8B2948BB6";
name = b;
width = 1170;
},
{
layerId = "8AC5A1D3-32A8-4416-86FC-94176A419B8F";
paths = (
{
closed = 1;
nodes = (
"325 0 LINE",
"325 1133 LINE",
"803 0 LINE",
"951 0 LINE",
"951 1658 LINE",
"758 1658 LINE",
"758 557 LINE",
"287 1658 LINE",
"130 1658 LINE",
"130 0 LINE"
);
}
);
width = 1081;
},
{
layerId = "3FB85DAF-C7EF-4F81-BE96-1E190958879E";
paths = (
{
closed = 1;
nodes = (
"468 0 LINE",
"468 780 LINE",
"769 0 LINE",
"1046 0 LINE",
"1046 1658 LINE",
"711 1658 LINE",
"711 948 LINE",
"408 1658 LINE",
"120 1658 LINE",
"120 0 LINE"
);
}
);
width = 1167;
}
);
leftKerningGroup = N;
rightKerningGroup = N;
unicode = 004E;
userData = {
com.typemytype.robofont.layerData = {
b = {
anchors = (
);
components = (
);
contours = (
);
lib = {
};
name = N;
unicodes = (
);
width = 1170;
};
};
};
},
{
glyphname = Eng;
lastChange = "2016-08-02 09:57:56 +0000";
layers = (
{
layerId = "FCD7E481-103E-4A6C-AD70-01DA443B2AD0";
paths = (
{
closed = 1;
nodes = (
"647 -288 LINE SMOOTH",
"854 -288 OFFCURVE",
"903 -188 OFFCURVE",
"903 0 CURVE SMOOTH",
"903 1658 LINE",
"808 1658 LINE",
"808 258 LINE",
"242 1658 LINE",
"153 1658 LINE",
"153 0 LINE",
"248 0 LINE",
"248 1403 LINE",
"805 25 LINE",
"805 -29 LINE SMOOTH",
"805 -165 OFFCURVE",
"768 -212 OFFCURVE",
"585 -210 CURVE",
"585 -288 LINE"
);
}
);
width = 1101;
},
{
associatedMasterId = "FCD7E481-103E-4A6C-AD70-01DA443B2AD0";
layerId = "C3B7BAF3-4B51-4BEB-98BD-563683A19381";
name = b;
width = 1190;
},
{
layerId = "8AC5A1D3-32A8-4416-86FC-94176A419B8F";
paths = (
{
closed = 1;
nodes = (
"625 -375 LINE SMOOTH",
"889 -375 OFFCURVE",
"951 -245 OFFCURVE",
"951 0 CURVE SMOOTH",
"951 1658 LINE",
"770 1658 LINE",
"770 557 LINE",
"287 1658 LINE",
"130 1658 LINE",
"130 0 LINE",
"313 0 LINE",
"313 1133 LINE",
"768 87 LINE",
"768 19 LINE SMOOTH",
"768 -159 OFFCURVE",
"753 -218 OFFCURVE",
"546 -218 CURVE",
"546 -375 LINE"
);
}
);
width = 1087;
},
{
layerId = "3FB85DAF-C7EF-4F81-BE96-1E190958879E";
paths = (
{
closed = 1;
nodes = (
"662 -442 LINE SMOOTH",
"980 -442 OFFCURVE",
"1056 -290 OFFCURVE",
"1056 0 CURVE SMOOTH",
"1056 1658 LINE",
"721 1658 LINE",
"721 948 LINE",
"418 1658 LINE",
"130 1658 LINE",
"130 0 LINE",
"478 0 LINE",
"478 780 LINE",
"741 177 LINE",
"741 -45 LINE SMOOTH",
"741 -167 OFFCURVE",
"666 -210 OFFCURVE",
"489 -207 CURVE",
"489 -442 LINE"
);
}
);
width = 1186;
}
);
unicode = 014A;
userData = {
com.fontlab.hintData = {
hhints = (
{
position = -444;
width = 237;
}
);
};
com.typemytype.robofont.layerData = {
b = {
anchors = (
);
components = (
);
contours = (
);
lib = {
};
name = Eng;
unicodes = (
);
width = 1190;
};
};
};
},
{
glyphname = O;
lastChange = "2016-08-02 09:57:56 +0000";
layers = (
{
layerId = "FCD7E481-103E-4A6C-AD70-01DA443B2AD0";
paths = (
{
closed = 1;
nodes = (
"851 -22 OFFCURVE",
"938 186 OFFCURVE",
"938 469 CURVE SMOOTH",
"938 1196 LINE SMOOTH",
"938 1477 OFFCURVE",
"842 1677 OFFCURVE",
"528 1677 CURVE SMOOTH",
"213 1677 OFFCURVE",
"118 1478 OFFCURVE",
"118 1196 CURVE SMOOTH",
"118 472 LINE SMOOTH",
"118 188 OFFCURVE",
"204 -22 OFFCURVE",
"528 -22 CURVE SMOOTH"
);
},
{
closed = 1;
nodes = (
"289 70 OFFCURVE",
"231 222 OFFCURVE",
"231 447 CURVE SMOOTH",
"231 1212 LINE SMOOTH",
"231 1438 OFFCURVE",
"289 1586 OFFCURVE",
"528 1586 CURVE SMOOTH",
"767 1586 OFFCURVE",
"825 1437 OFFCURVE",
"825 1212 CURVE SMOOTH",
"825 447 LINE SMOOTH",
"825 222 OFFCURVE",
"766 70 OFFCURVE",
"528 70 CURVE SMOOTH"
);
}
);
width = 1056;
},
{
associatedMasterId = "FCD7E481-103E-4A6C-AD70-01DA443B2AD0";
layerId = "B4959A76-FC0C-461F-B1D1-8B95049AEAF7";
name = b;
width = 1036;
},
{
layerId = "8AC5A1D3-32A8-4416-86FC-94176A419B8F";
paths = (
{
closed = 1;
nodes = (
"887 -18 OFFCURVE",
"1005 193 OFFCURVE",
"1005 519 CURVE SMOOTH",
"1005 1148 LINE SMOOTH",
"1005 1474 OFFCURVE",
"886 1674 OFFCURVE",
"552 1674 CURVE SMOOTH",
"217 1674 OFFCURVE",
"99 1477 OFFCURVE",
"99 1148 CURVE SMOOTH",
"99 520 LINE SMOOTH",
"99 190 OFFCURVE",
"215 -18 OFFCURVE",
"552 -18 CURVE SMOOTH"
);
},
{
closed = 1;
nodes = (
"366 163 OFFCURVE",
"332 285 OFFCURVE",
"332 470 CURVE SMOOTH",
"332 1196 LINE SMOOTH",
"332 1380 OFFCURVE",
"366 1494 OFFCURVE",
"552 1494 CURVE SMOOTH",
"738 1494 OFFCURVE",
"772 1380 OFFCURVE",
"772 1196 CURVE SMOOTH",
"772 470 LINE SMOOTH",
"772 285 OFFCURVE",
"738 163 OFFCURVE",
"552 163 CURVE SMOOTH"
);
}
);
width = 1104;
},
{
layerId = "3FB85DAF-C7EF-4F81-BE96-1E190958879E";
paths = (
{
closed = 1;
nodes = (
"997 -26 OFFCURVE",
"1127 177 OFFCURVE",
"1127 523 CURVE SMOOTH",
"1127 1135 LINE SMOOTH",
"1127 1482 OFFCURVE",
"997 1684 OFFCURVE",
"612 1684 CURVE SMOOTH",
"227 1684 OFFCURVE",
"100 1482 OFFCURVE",
"100 1135 CURVE SMOOTH",
"100 523 LINE SMOOTH",
"100 177 OFFCURVE",
"227 -26 OFFCURVE",
"612 -26 CURVE SMOOTH"
);
},
{
closed = 1;
nodes = (
"518 255 OFFCURVE",
"517 350 OFFCURVE",
"517 420 CURVE SMOOTH",
"517 1239 LINE SMOOTH",
"517 1310 OFFCURVE",
"518 1403 OFFCURVE",
"612 1403 CURVE SMOOTH",
"705 1403 OFFCURVE",
"710 1310 OFFCURVE",
"710 1239 CURVE SMOOTH",
"710 420 LINE SMOOTH",
"710 350 OFFCURVE",
"705 255 OFFCURVE",
"612 255 CURVE SMOOTH"
);
}
);
width = 1227;
}
);
leftKerningGroup = O;
rightKerningGroup = O;
unicode = 004F;
userData = {
com.fontlab.hintData = {
};
com.typemytype.robofont.layerData = {
b = {
anchors = (
);
components = (
);
contours = (
);
lib = {
};
name = O;
unicodes = (
);
width = 1036;
};
};
hhints = {
};
position = 866;
vhints = {
};
width = 64;
};
},
{
glyphname = Oslash;
lastChange = "2016-08-02 09:57:56 +0000";
layers = (
{
components = (
{
name = O;
}
);
layerId = "FCD7E481-103E-4A6C-AD70-01DA443B2AD0";
paths = (
{
closed = 1;
nodes = (
"846 1821 LINE",
"794 1835 LINE",
"213 -179 LINE",
"264 -194 LINE"
);
}
);
width = 1071;
},
{
associatedMasterId = "FCD7E481-103E-4A6C-AD70-01DA443B2AD0";
layerId = "EADDB7A6-053E-4193-A566-E9DE4461B331";
name = b;
width = 1056;
},
{
components = (
{
name = O;
}
);
layerId = "8AC5A1D3-32A8-4416-86FC-94176A419B8F";
paths = (
{
closed = 1;
nodes = (
"845 1782 LINE",
"764 1803 LINE",
"248 -126 LINE",
"327 -151 LINE"
);
}
);
width = 1106;
},
{
components = (
{
name = O;
}
);
layerId = "3FB85DAF-C7EF-4F81-BE96-1E190958879E";
paths = (
{
closed = 1;
nodes = (
"1021 1779 LINE",
"941 1813 LINE",
"142 -160 LINE",
"221 -195 LINE"
);
}
);
width = 1189;
}
);
unicode = 00D8;
userData = {
com.fontlab.hintData = {
hhints = (
{
position = -26;
width = 284;
},
{
position = 1400;
width = 284;
}
);
vhints = (
{
position = 80;
width = 424;
},
{
position = 688;
width = 424;
}
);
};
com.typemytype.robofont.layerData = {
b = {
anchors = (
);
components = (
);
contours = (
);
lib = {
};
name = Oslash;
unicodes = (
);
width = 1056;
};
};
};
},
{
glyphname = OE;
lastChange = "2016-08-02 09:57:56 +0000";
layers = (
{
layerId = "FCD7E481-103E-4A6C-AD70-01DA443B2AD0";
paths = (
{
closed = 1;
nodes = (
"1209 0 LINE",
"1209 92 LINE",
"804 92 LINE",
"804 824 LINE",
"1140 824 LINE",
"1140 911 LINE",
"804 911 LINE",
"804 1566 LINE",
"1207 1566 LINE",
"1207 1658 LINE",
"541 1658 LINE",
"224 1658 OFFCURVE",
"118 1463 OFFCURVE",
"118 1182 CURVE SMOOTH",
"118 468 LINE SMOOTH",
"118 200 OFFCURVE",
"213 0 OFFCURVE",
"546 0 CURVE SMOOTH"
);
},
{
closed = 1;
nodes = (
"294 94 OFFCURVE",
"230 240 OFFCURVE",
"230 468 CURVE SMOOTH",
"230 1176 LINE SMOOTH",
"230 1414 OFFCURVE",
"288 1567 OFFCURVE",
"546 1567 CURVE SMOOTH",
"693 1567 LINE",
"693 94 LINE",
"547 94 LINE"
);
}
);
width = 1270;
},
{
associatedMasterId = "FCD7E481-103E-4A6C-AD70-01DA443B2AD0";
layerId = "883CEE7D-0B28-4EE0-818D-9E62B936EEC5";
name = b;
width = 1493;
},
{
layerId = "8AC5A1D3-32A8-4416-86FC-94176A419B8F";
paths = (
{
closed = 1;
nodes = (
"1343 0 LINE",
"1343 166 LINE",
"935 166 LINE",
"935 775 LINE",
"1264 775 LINE",
"1264 940 LINE",
"935 940 LINE",
"935 1486 LINE",
"1339 1486 LINE",
"1339 1658 LINE",
"573 1658 LINE",
"225 1658 OFFCURVE",
"99 1470 OFFCURVE",
"99 1119 CURVE SMOOTH",
"99 505 LINE SMOOTH",
"99 168 OFFCURVE",
"220 0 OFFCURVE",
"589 0 CURVE SMOOTH"
);
},
{
closed = 1;
nodes = (
"356 172 OFFCURVE",
"332 278 OFFCURVE",
"332 530 CURVE SMOOTH",
"332 1076 LINE SMOOTH",
"332 1345 OFFCURVE",
"338 1492 OFFCURVE",
"589 1492 CURVE SMOOTH",
"704 1492 LINE",
"704 172 LINE",
"594 172 LINE"
);
}
);
width = 1399;
},
{
layerId = "3FB85DAF-C7EF-4F81-BE96-1E190958879E";
paths = (
{
closed = 1;
nodes = (
"1438 0 LINE",
"1438 271 LINE",
"1111 271 LINE",
"1111 715 LINE",
"1343 715 LINE",
"1343 997 LINE",
"1111 997 LINE",
"1111 1379 LINE",
"1438 1379 LINE",
"1438 1650 LINE",
"608 1650 LINE",
"221 1649 OFFCURVE",
"100 1380 OFFCURVE",
"100 1049 CURVE SMOOTH",
"100 588 LINE SMOOTH",
"100 239 OFFCURVE",
"229 0 OFFCURVE",
"608 0 CURVE SMOOTH"
);
},
{
closed = 1;
nodes = (
"511 275 OFFCURVE",
"505 408 OFFCURVE",
"505 489 CURVE SMOOTH",
"505 1146 LINE SMOOTH",
"505 1226 OFFCURVE",
"511 1364 OFFCURVE",
"608 1364 CURVE SMOOTH",
"706 1364 LINE",
"706 276 LINE",
"609 276 LINE"
);
}
);
width = 1490;
}
);
unicode = 0152;
userData = {
com.fontlab.hintData = {
vhints = (
{
position = 80;
width = 412;
}
);
};
com.typemytype.robofont.layerData = {
b = {
anchors = (
);
components = (
);
contours = (
);
lib = {
};
name = OE;
unicodes = (
);
width = 1493;
};
};
};
},
{
glyphname = P;
lastChange = "2016-08-02 09:57:56 +0000";
layers = (
{
layerId = "FCD7E481-103E-4A6C-AD70-01DA443B2AD0";
paths = (
{
closed = 1;
nodes = (
"265 0 LINE",
"265 792 LINE",
"545 792 LINE SMOOTH",
"840 792 OFFCURVE",
"928 1010 OFFCURVE",
"928 1230 CURVE SMOOTH",
"928 1477 OFFCURVE",
"841 1658 OFFCURVE",
"542 1658 CURVE SMOOTH",
"153 1658 LINE",
"153 0 LINE"
);
},
{
closed = 1;
nodes = (
"265 1572 LINE",
"522 1572 LINE SMOOTH",
"734 1572 OFFCURVE",
"814 1497 OFFCURVE",
"814 1230 CURVE SMOOTH",
"814 972 OFFCURVE",
"720 879 OFFCURVE",
"520 879 CURVE SMOOTH",
"265 879 LINE"
);
}
);
width = 994;
},
{
associatedMasterId = "FCD7E481-103E-4A6C-AD70-01DA443B2AD0";
layerId = "6DD606EF-651A-43F8-A6FA-A31BF9FC0228";
name = b;
width = 999;
},
{
layerId = "8AC5A1D3-32A8-4416-86FC-94176A419B8F";
paths = (
{
closed = 1;
nodes = (
"361 0 LINE",
"361 772 LINE",
"542 772 LINE SMOOTH",
"813 772 OFFCURVE",
"951 936 OFFCURVE",
"951 1200 CURVE SMOOTH",
"951 1489 OFFCURVE",
"838 1658 OFFCURVE",
"541 1658 CURVE SMOOTH",
"130 1658 LINE",
"130 0 LINE"
);
},
{
closed = 1;
nodes = (
"361 1492 LINE",
"469 1492 LINE SMOOTH",
"701 1492 OFFCURVE",
"732 1434 OFFCURVE",
"732 1199 CURVE SMOOTH",
"732 993 OFFCURVE",
"666 938 OFFCURVE",
"466 938 CURVE SMOOTH",
"361 938 LINE"
);
}
);
width = 983;
},
{
layerId = "3FB85DAF-C7EF-4F81-BE96-1E190958879E";
paths = (
{
closed = 1;
nodes = (
"526 0 LINE",
"526 685 LINE",
"663 685 LINE SMOOTH",
"932 685 OFFCURVE",
"1165 753 OFFCURVE",
"1165 1171 CURVE SMOOTH",
"1165 1484 OFFCURVE",
"1017 1658 OFFCURVE",
"720 1658 CURVE SMOOTH",
"120 1658 LINE",
"120 0 LINE"
);
},
{
closed = 1;
nodes = (
"526 1374 LINE",
"651 1374 LINE SMOOTH",
"775 1374 OFFCURVE",
"785 1272 OFFCURVE",
"785 1180 CURVE SMOOTH",
"785 1044 OFFCURVE",
"773 966 OFFCURVE",
"655 966 CURVE SMOOTH",
"526 966 LINE"
);
}
);
width = 1223;
}
);
leftKerningGroup = P;
rightKerningGroup = P;
unicode = 0050;
userData = {
com.fontlab.hintData = {
vhints = (
{
position = 766;
width = 386;
}
);
};
com.typemytype.robofont.layerData = {
b = {
anchors = (
);
components = (
);
contours = (
);
lib = {
};
name = P;
unicodes = (
);
width = 999;
};
};
};
},
{
glyphname = Thorn;
lastChange = "2016-08-02 09:57:56 +0000";
layers = (
{
layerId = "FCD7E481-103E-4A6C-AD70-01DA443B2AD0";
paths = (
{
closed = 1;
nodes = (
"265 0 LINE",
"265 513 LINE",
"565 513 LINE SMOOTH",
"891 513 OFFCURVE",
"966 776 OFFCURVE",
"966 993 CURVE SMOOTH",
"966 1233 OFFCURVE",
"869 1446 OFFCURVE",
"576 1446 CURVE SMOOTH",
"265 1446 LINE",
"265 1658 LINE",
"153 1658 LINE",
"153 0 LINE"
);
},
{
closed = 1;
nodes = (
"265 1349 LINE",
"557 1349 LINE SMOOTH",
"737 1349 OFFCURVE",
"851 1250 OFFCURVE",
"851 989 CURVE SMOOTH",
"851 723 OFFCURVE",
"753 610 OFFCURVE",
"548 610 CURVE SMOOTH",
"265 610 LINE"
);
}
);
width = 1034;
},
{
layerId = "8AC5A1D3-32A8-4416-86FC-94176A419B8F";
paths = (
{
closed = 1;
nodes = (
"361 0 LINE",
"361 478 LINE",
"562 478 LINE SMOOTH",
"858 478 OFFCURVE",
"995 649 OFFCURVE",
"995 960 CURVE SMOOTH",
"995 1252 OFFCURVE",
"876 1441 OFFCURVE",
"600 1441 CURVE SMOOTH",
"361 1441 LINE",
"361 1658 LINE",
"130 1658 LINE",
"130 0 LINE"
);
},
{
closed = 1;
nodes = (
"361 1250 LINE",
"531 1250 LINE SMOOTH",
"703 1250 OFFCURVE",
"770 1174 OFFCURVE",
"770 961 CURVE SMOOTH",
"770 729 OFFCURVE",
"686 664 OFFCURVE",
"504 664 CURVE SMOOTH",
"361 664 LINE"
);
}
);
width = 1031;
},
{
layerId = "3FB85DAF-C7EF-4F81-BE96-1E190958879E";
paths = (
{
closed = 1;
nodes = (
"505 0 LINE",
"505 479 LINE",
"628 480 LINE SMOOTH",
"987 483 OFFCURVE",
"1157 566 OFFCURVE",
"1157 981 CURVE SMOOTH",
"1157 1323 OFFCURVE",
"985 1436 OFFCURVE",
"640 1436 CURVE SMOOTH",
"505 1436 LINE",
"505 1658 LINE",
"99 1658 LINE",
"99 0 LINE"
);
},
{
closed = 1;
nodes = (
"505 1151 LINE",
"619 1151 LINE SMOOTH",
"746 1151 OFFCURVE",
"791 1087 OFFCURVE",
"791 959 CURVE SMOOTH",
"791 819 OFFCURVE",
"745 761 OFFCURVE",
"614 761 CURVE SMOOTH",
"505 761 LINE"
);
}
);
width = 1186;
}
);
unicode = 00DE;
userData = {
com.fontlab.hintData = {
vhints = (
{
position = 792;
width = 372;
}
);
};
};
},
{
glyphname = Q;
lastChange = "2016-08-02 09:57:56 +0000";
layers = (
{
layerId = "FCD7E481-103E-4A6C-AD70-01DA443B2AD0";
paths = (
{
closed = 1;
nodes = (
"889 -220 LINE",
"836 -185 OFFCURVE",
"735 -71 OFFCURVE",
"682 -3 CURVE",
"889 52 OFFCURVE",
"952 236 OFFCURVE",
"952 469 CURVE SMOOTH",
"952 1196 LINE SMOOTH",
"952 1477 OFFCURVE",
"849 1677 OFFCURVE",
"535 1677 CURVE SMOOTH",
"221 1677 OFFCURVE",
"118 1478 OFFCURVE",
"118 1196 CURVE SMOOTH",
"118 472 LINE SMOOTH",
"118 188 OFFCURVE",
"211 -22 OFFCURVE",
"535 -22 CURVE SMOOTH",
"556 -22 OFFCURVE",
"576 -21 OFFCURVE",
"595 -19 CURVE",
"695 -158 OFFCURVE",
"800 -281 OFFCURVE",
"879 -319 CURVE"
);
},
{
closed = 1;
nodes = (
"297 70 OFFCURVE",
"231 222 OFFCURVE",
"231 447 CURVE SMOOTH",
"231 1212 LINE SMOOTH",
"231 1438 OFFCURVE",
"297 1586 OFFCURVE",
"535 1586 CURVE SMOOTH",
"774 1586 OFFCURVE",
"839 1437 OFFCURVE",
"839 1212 CURVE SMOOTH",
"839 447 LINE SMOOTH",
"839 222 OFFCURVE",
"773 70 OFFCURVE",
"535 70 CURVE SMOOTH"
);
}
);
width = 1072;
},
{
associatedMasterId = "FCD7E481-103E-4A6C-AD70-01DA443B2AD0";
layerId = "AE92701C-7094-4239-81BC-C7658D932877";
name = b;
width = 1232;
},
{
layerId = "8AC5A1D3-32A8-4416-86FC-94176A419B8F";
paths = (
{
closed = 1;
nodes = (
"927 -153 LINE",
"876 -118 OFFCURVE",
"814 -44 OFFCURVE",
"764 20 CURVE",
"941 94 OFFCURVE",
"1007 274 OFFCURVE",
"1007 519 CURVE SMOOTH",
"1007 1148 LINE SMOOTH",
"1007 1474 OFFCURVE",
"887 1674 OFFCURVE",
"553 1674 CURVE SMOOTH",
"218 1674 OFFCURVE",
"99 1477 OFFCURVE",
"99 1148 CURVE SMOOTH",
"99 520 LINE SMOOTH",
"99 190 OFFCURVE",
"216 -18 OFFCURVE",
"553 -18 CURVE SMOOTH",
"567 -18 OFFCURVE",
"579 -17 OFFCURVE",
"592 -17 CURVE",
"669 -132 OFFCURVE",
"781 -280 OFFCURVE",
"891 -335 CURVE"
);
},
{
closed = 1;
nodes = (
"367 163 OFFCURVE",
"332 285 OFFCURVE",
"332 470 CURVE SMOOTH",
"332 1196 LINE SMOOTH",
"332 1380 OFFCURVE",
"367 1494 OFFCURVE",
"553 1494 CURVE SMOOTH",
"739 1494 OFFCURVE",
"774 1380 OFFCURVE",
"774 1196 CURVE SMOOTH",
"774 470 LINE SMOOTH",
"774 285 OFFCURVE",
"739 163 OFFCURVE",
"553 163 CURVE SMOOTH"
);
}
);
width = 1107;
},
{
layerId = "3FB85DAF-C7EF-4F81-BE96-1E190958879E";
paths = (
{
closed = 1;
nodes = (
"1086 -96 LINE",
"1029 -68 OFFCURVE",
"968 -14 OFFCURVE",
"916 40 CURVE",
"1069 125 OFFCURVE",
"1127 292 OFFCURVE",
"1127 523 CURVE SMOOTH",
"1127 1135 LINE SMOOTH",
"1127 1482 OFFCURVE",
"997 1684 OFFCURVE",
"612 1684 CURVE SMOOTH",
"227 1684 OFFCURVE",
"100 1482 OFFCURVE",
"100 1135 CURVE SMOOTH",
"100 523 LINE SMOOTH",
"100 177 OFFCURVE",
"227 -26 OFFCURVE",
"612 -26 CURVE SMOOTH",
"623 -26 OFFCURVE",
"634 -25 OFFCURVE",
"645 -25 CURVE",
"734 -162 OFFCURVE",
"911 -289 OFFCURVE",
"998 -323 CURVE"
);
},
{
closed = 1;
nodes = (
"518 255 OFFCURVE",
"517 350 OFFCURVE",
"517 420 CURVE SMOOTH",
"517 1239 LINE SMOOTH",
"517 1310 OFFCURVE",
"518 1403 OFFCURVE",
"612 1403 CURVE SMOOTH",
"705 1403 OFFCURVE",
"710 1310 OFFCURVE",
"710 1239 CURVE SMOOTH",
"710 420 LINE SMOOTH",
"710 350 OFFCURVE",
"705 255 OFFCURVE",
"612 255 CURVE SMOOTH"
);
}
);
width = 1227;
}
);
unicode = 0051;
userData = {
com.fontlab.hintData = {
hhints = (
{
position = -26;
width = 284;
},
{
position = 1400;
width = 284;
}
);
vhints = (
{
position = 80;
width = 424;
},
{
position = 688;
width = 424;
}
);
};
com.typemytype.robofont.layerData = {
b = {
anchors = (
);
components = (
);
contours = (
);
lib = {
};
name = Q;
unicodes = (
);
width = 1232;
};
};
};
},
{
glyphname = R;
lastChange = "2016-08-02 09:57:56 +0000";
layers = (
{
layerId = "FCD7E481-103E-4A6C-AD70-01DA443B2AD0";
paths = (
{
closed = 1;
nodes = (
"265 0 LINE",
"265 836 LINE",
"573 836 LINE",
"832 0 LINE",
"943 0 LINE",
"675 857 LINE",
"876 889 OFFCURVE",
"920 1063 OFFCURVE",
"920 1250 CURVE SMOOTH",
"920 1478 OFFCURVE",
"849 1658 OFFCURVE",
"556 1658 CURVE SMOOTH",
"153 1658 LINE",
"153 0 LINE"
);
},
{
closed = 1;
nodes = (
"265 1570 LINE",
"549 1570 LINE SMOOTH",
"757 1570 OFFCURVE",
"810 1460 OFFCURVE",
"810 1250 CURVE SMOOTH",
"810 1046 OFFCURVE",
"762 921 OFFCURVE",
"550 921 CURVE SMOOTH",
"265 921 LINE"
);
}
);
width = 1041;
},
{
associatedMasterId = "FCD7E481-103E-4A6C-AD70-01DA443B2AD0";
layerId = "976C4752-0032-4835-9B72-2CAB36F2192E";
name = b;
width = 1286;
},
{
layerId = "8AC5A1D3-32A8-4416-86FC-94176A419B8F";
paths = (
{
closed = 1;
nodes = (
"361 0 LINE",
"361 778 LINE",
"540 778 LINE",
"758 0 LINE",
"982 0 LINE",
"745 832 LINE",
"892 880 OFFCURVE",
"950 1025 OFFCURVE",
"950 1219 CURVE SMOOTH",
"950 1534 OFFCURVE",
"795 1658 OFFCURVE",
"463 1658 CURVE SMOOTH",
"130 1658 LINE",
"130 0 LINE"
);
},
{
closed = 1;
nodes = (
"361 1492 LINE",
"463 1492 LINE SMOOTH",
"674 1492 OFFCURVE",
"728 1414 OFFCURVE",
"728 1219 CURVE SMOOTH",
"728 1005 OFFCURVE",
"644 944 OFFCURVE",
"448 944 CURVE SMOOTH",
"361 944 LINE"
);
}
);
width = 1063;
},
{
layerId = "3FB85DAF-C7EF-4F81-BE96-1E190958879E";
paths = (
{
closed = 1;
nodes = (
"526 0 LINE",
"526 733 LINE",
"610 733 LINE",
"782 0 LINE",
"1207 0 LINE",
"981 794 LINE",
"1148 881 OFFCURVE",
"1184 1014 OFFCURVE",
"1184 1221 CURVE SMOOTH",
"1184 1579 OFFCURVE",
"948 1658 OFFCURVE",
"615 1658 CURVE SMOOTH",
"120 1658 LINE",
"120 0 LINE"
);
},
{
closed = 1;
nodes = (
"526 1390 LINE",
"652 1390 LINE SMOOTH",
"770 1390 OFFCURVE",
"809 1305 OFFCURVE",
"809 1177 CURVE SMOOTH",
"809 1051 OFFCURVE",
"775 956 OFFCURVE",
"632 956 CURVE SMOOTH",
"526 956 LINE"
);
}
);
width = 1277;
}
);
leftKerningGroup = R;
rightKerningGroup = R;
unicode = 0052;
userData = {
com.fontlab.hintData = {
vhints = (
{
position = 747;
width = 399;
}
);
};
com.typemytype.robofont.layerData = {
b = {
anchors = (
);
components = (
);
contours = (
);
lib = {
};
name = R;
unicodes = (
);
width = 1286;
};
};
};
},
{
glyphname = S;
lastChange = "2016-08-02 09:57:56 +0000";
layers = (
{
layerId = "FCD7E481-103E-4A6C-AD70-01DA443B2AD0";
paths = (
{
closed = 1;
nodes = (
"703 -21 OFFCURVE",
"857 95 OFFCURVE",
"857 344 CURVE SMOOTH",
"857 521 OFFCURVE",
"743 668 OFFCURVE",
"611 799 CURVE SMOOTH",
"312 1094 LINE SMOOTH",
"221 1186 OFFCURVE",
"190 1261 OFFCURVE",
"190 1345 CURVE SMOOTH",
"190 1514 OFFCURVE",
"303 1585 OFFCURVE",
"455 1587 CURVE SMOOTH",
"653 1591 OFFCURVE",
"724 1472 OFFCURVE",
"744 1239 CURVE",
"838 1261 LINE",
"818 1575 OFFCURVE",
"679 1678 OFFCURVE",
"452 1677 CURVE SMOOTH",
"235 1676 OFFCURVE",
"89 1557 OFFCURVE",
"89 1337 CURVE SMOOTH",
"89 1229 OFFCURVE",
"131 1124 OFFCURVE",
"233 1022 CURVE SMOOTH",
"536 720 LINE SMOOTH",
"672 585 OFFCURVE",
"752 483 OFFCURVE",
"752 338 CURVE SMOOTH",
"752 148 OFFCURVE",
"652 71 OFFCURVE",
"487 71 CURVE SMOOTH",
"271 71 OFFCURVE",
"211 221 OFFCURVE",
"183 440 CURVE",
"85 409 LINE",
"107 147 OFFCURVE",
"223 -21 OFFCURVE",
"486 -21 CURVE SMOOTH"
);
}
);
width = 926;
},
{
associatedMasterId = "FCD7E481-103E-4A6C-AD70-01DA443B2AD0";
layerId = "73FD5D31-99F3-4634-B1A8-937133ED0A47";
name = b;
width = 1081;
},
{
layerId = "8AC5A1D3-32A8-4416-86FC-94176A419B8F";
paths = (
{
closed = 1;
nodes = (
"752 -18 OFFCURVE",
"917 131 OFFCURVE",
"917 377 CURVE SMOOTH",
"917 584 OFFCURVE",
"803 729 OFFCURVE",
"679 841 CURVE SMOOTH",
"399 1088 LINE SMOOTH",
"323 1157 OFFCURVE",
"290 1213 OFFCURVE",
"290 1313 CURVE SMOOTH",
"290 1434 OFFCURVE",
"358 1487 OFFCURVE",
"473 1495 CURVE SMOOTH",
"645 1506 OFFCURVE",
"683 1355 OFFCURVE",
"695 1191 CURVE",
"890 1245 LINE",
"864 1535 OFFCURVE",
"742 1678 OFFCURVE",
"473 1674 CURVE SMOOTH",
"234 1672 OFFCURVE",
"83 1534 OFFCURVE",
"83 1291 CURVE SMOOTH",
"83 1124 OFFCURVE",
"136 1022 OFFCURVE",
"244 924 CURVE SMOOTH",
"522 677 LINE SMOOTH",
"624 583 OFFCURVE",
"702 507 OFFCURVE",
"702 359 CURVE SMOOTH",
"702 231 OFFCURVE",
"639 164 OFFCURVE",
"520 164 CURVE SMOOTH",
"343 164 OFFCURVE",
"296 343 OFFCURVE",
"285 520 CURVE",
"79 464 LINE",
"96 178 OFFCURVE",
"231 -18 OFFCURVE",
"520 -18 CURVE SMOOTH"
);
}
);
width = 969;
},
{
layerId = "3FB85DAF-C7EF-4F81-BE96-1E190958879E";
paths = (
{
closed = 1;
nodes = (
"849 -26 OFFCURVE",
"1020 165 OFFCURVE",
"1020 397 CURVE SMOOTH",
"1020 632 OFFCURVE",
"903 774 OFFCURVE",
"757 905 CURVE SMOOTH",
"661 990 LINE SMOOTH",
"580 1062 OFFCURVE",
"486 1134 OFFCURVE",
"486 1275 CURVE SMOOTH",
"486 1315 OFFCURVE",
"505 1390 OFFCURVE",
"561 1391 CURVE SMOOTH",
"633 1391 OFFCURVE",
"635 1308 OFFCURVE",
"635 1165 CURVE",
"987 1200 LINE",
"986 1365 OFFCURVE",
"957 1684 OFFCURVE",
"576 1684 CURVE SMOOTH",
"276 1683 OFFCURVE",
"89 1525 OFFCURVE",
"89 1235 CURVE SMOOTH",
"89 1008 OFFCURVE",
"201 894 OFFCURVE",
"330 783 CURVE SMOOTH",
"435 694 LINE SMOOTH",
"551 595 OFFCURVE",
"618 515 OFFCURVE",
"618 378 CURVE SMOOTH",
"618 343 OFFCURVE",
"614 280 OFFCURVE",
"550 280 CURVE SMOOTH",
"485 280 OFFCURVE",
"434 331 OFFCURVE",
"433 557 CURVE",
"89 512 LINE",
"99 118 OFFCURVE",
"254 -26 OFFCURVE",
"575 -26 CURVE SMOOTH"
);
}
);
width = 1077;
}
);
leftKerningGroup = S;
rightKerningGroup = S;
unicode = 0053;
userData = {
com.fontlab.hintData = {
hhints = (
{
position = -26;
width = 310;
},
{
position = 1387;
width = 297;
}
);
vhints = (
{
position = 32;
width = 404;
},
{
position = 32;
width = 350;
},
{
position = 558;
width = 409;
},
{
position = 576;
width = 358;
}
);
};
com.typemytype.robofont.layerData = {
b = {
anchors = (
);
components = (
);
contours = (
);
lib = {
};
name = S;
unicodes = (
);
width = 1081;
};
};
};
},
{
glyphname = T;
lastChange = "2016-08-02 09:57:56 +0000";
layers = (
{
layerId = "FCD7E481-103E-4A6C-AD70-01DA443B2AD0";
paths = (
{
closed = 1;
nodes = (
"449 0 LINE",
"449 1569 LINE",
"793 1569 LINE",
"793 1658 LINE",
"-14 1658 LINE",
"-14 1569 LINE",
"337 1569 LINE",
"337 0 LINE"
);
}
);
width = 779;
},
{
associatedMasterId = "FCD7E481-103E-4A6C-AD70-01DA443B2AD0";
layerId = "3DFE9A14-98E4-4EE3-BB38-DCEA24441BA9";
name = b;
width = 948;
},
{
layerId = "8AC5A1D3-32A8-4416-86FC-94176A419B8F";
paths = (
{
closed = 1;
nodes = (
"531 0 LINE",
"531 1487 LINE",
"823 1487 LINE",
"823 1658 LINE",
"-3 1658 LINE",
"-3 1487 LINE",
"300 1487 LINE",
"300 0 LINE"
);
}
);
width = 820;
},
{
layerId = "3FB85DAF-C7EF-4F81-BE96-1E190958879E";
paths = (
{
closed = 1;
nodes = (
"675 0 LINE",
"675 1358 LINE",
"916 1358 LINE",
"916 1658 LINE",
"27 1658 LINE",
"27 1358 LINE",
"269 1358 LINE",
"269 0 LINE"
);
}
);
width = 943;
}
);
leftKerningGroup = T;
rightKerningGroup = T;
unicode = 0054;
userData = {
com.typemytype.robofont.layerData = {
b = {
anchors = (
);
components = (
);
contours = (
);
lib = {
};
name = T;
unicodes = (
);
width = 948;
};
};
};
},
{
glyphname = Tbar;
lastChange = "2016-08-02 09:57:56 +0000";
layers = (
{
components = (
{
name = T;
}
);
layerId = "FCD7E481-103E-4A6C-AD70-01DA443B2AD0";
paths = (
{
closed = 1;
nodes = (
"687 854 LINE",
"687 929 LINE",
"87 929 LINE",
"87 854 LINE"
);
}
);
width = 779;
},
{
associatedMasterId = "FCD7E481-103E-4A6C-AD70-01DA443B2AD0";
layerId = "896901C8-D66A-4E71-8CF7-DFD7B2B0D626";
name = b;
width = 948;
},
{
components = (
{
name = T;
}
);
layerId = "8AC5A1D3-32A8-4416-86FC-94176A419B8F";
paths = (
{
closed = 1;
nodes = (
"735 801 LINE",
"735 932 LINE",
"84 932 LINE",
"84 801 LINE"
);
}
);
width = 820;
},
{
components = (
{
name = T;
}
);
layerId = "3FB85DAF-C7EF-4F81-BE96-1E190958879E";
paths = (
{
closed = 1;
nodes = (
"858 743 LINE",
"858 933 LINE",
"97 933 LINE",
"97 743 LINE"
);
}
);
width = 943;
}
);
unicode = 0166;
userData = {
com.typemytype.robofont.layerData = {
b = {
anchors = (
);
components = (
);
contours = (
);
lib = {
};
name = Tbar;
unicodes = (
);
width = 948;
};
};
};
},
{
glyphname = U;
lastChange = "2016-08-02 09:57:56 +0000";
layers = (
{
layerId = "FCD7E481-103E-4A6C-AD70-01DA443B2AD0";
paths = (
{
closed = 1;
nodes = (
"856 -22 OFFCURVE",
"958 155 OFFCURVE",
"958 389 CURVE SMOOTH",
"958 1658 LINE",
"849 1658 LINE",
"849 387 LINE SMOOTH",
"849 206 OFFCURVE",
"773 70 OFFCURVE",
"546 70 CURVE SMOOTH",
"307 70 OFFCURVE",
"243 204 OFFCURVE",
"243 387 CURVE SMOOTH",
"243 1658 LINE",
"134 1658 LINE",
"134 389 LINE SMOOTH",
"134 155 OFFCURVE",
"222 -22 OFFCURVE",
"546 -22 CURVE SMOOTH"
);
}
);
width = 1092;
},
{
associatedMasterId = "FCD7E481-103E-4A6C-AD70-01DA443B2AD0";
layerId = "5252F698-2E8D-4428-89F9-8E623A5D3776";
name = b;
width = 1235;
},
{
layerId = "8AC5A1D3-32A8-4416-86FC-94176A419B8F";
paths = (
{
closed = 1;
nodes = (
"917 -18 OFFCURVE",
"998 211 OFFCURVE",
"998 559 CURVE SMOOTH",
"998 1658 LINE",
"778 1658 LINE",
"778 548 LINE SMOOTH",
"778 334 OFFCURVE",
"751 163 OFFCURVE",
"557 163 CURVE SMOOTH",
"362 163 OFFCURVE",
"335 334 OFFCURVE",
"335 548 CURVE SMOOTH",
"335 1658 LINE",
"115 1658 LINE",
"115 559 LINE SMOOTH",
"115 211 OFFCURVE",
"195 -18 OFFCURVE",
"557 -18 CURVE SMOOTH"
);
}
);
width = 1113;
},
{
layerId = "3FB85DAF-C7EF-4F81-BE96-1E190958879E";
paths = (
{
closed = 1;
nodes = (
"1001 -26 OFFCURVE",
"1120 153 OFFCURVE",
"1120 501 CURVE SMOOTH",
"1120 1658 LINE",
"715 1658 LINE",
"715 433 LINE SMOOTH",
"715 361 OFFCURVE",
"709 263 OFFCURVE",
"615 263 CURVE SMOOTH",
"521 263 OFFCURVE",
"514 361 OFFCURVE",
"514 433 CURVE SMOOTH",
"514 1658 LINE",
"110 1658 LINE",
"110 501 LINE SMOOTH",
"110 153 OFFCURVE",
"228 -26 OFFCURVE",
"615 -26 CURVE SMOOTH"
);
}
);
width = 1230;
}
);
leftKerningGroup = U;
rightKerningGroup = U;
unicode = 0055;
userData = {
com.fontlab.hintData = {
hhints = (
{
position = -26;
width = 293;
}
);
};
com.typemytype.robofont.layerData = {
b = {
anchors = (
);
components = (
);
contours = (
);
lib = {
};
name = U;
unicodes = (
);
width = 1235;
};
};
};
},
{
glyphname = V;
lastChange = "2016-08-02 09:57:56 +0000";
layers = (
{
layerId = "FCD7E481-103E-4A6C-AD70-01DA443B2AD0";
paths = (
{
closed = 1;
nodes = (
"555 0 LINE",
"934 1658 LINE",
"826 1658 LINE",
"503 195 LINE",
"159 1658 LINE",
"50 1658 LINE",
"450 0 LINE"
);
}
);
width = 984;
},
{
associatedMasterId = "FCD7E481-103E-4A6C-AD70-01DA443B2AD0";
layerId = "25B35F87-EB65-43E6-BCFE-474BD5444AE8";
name = b;
width = 963;
},
{
layerId = "8AC5A1D3-32A8-4416-86FC-94176A419B8F";
paths = (
{
closed = 1;
nodes = (
"620 0 LINE",
"987 1658 LINE",
"776 1658 LINE",
"526 437 LINE",
"264 1658 LINE",
"48 1658 LINE",
"418 0 LINE"
);
}
);
width = 1035;
},
{
layerId = "3FB85DAF-C7EF-4F81-BE96-1E190958879E";
paths = (
{
closed = 1;
nodes = (
"764 0 LINE",
"1048 1658 LINE",
"681 1658 LINE",
"540 561 LINE",
"386 1658 LINE",
"45 1658 LINE",
"324 0 LINE"
);
}
);
width = 1090;
}
);
unicode = 0056;
userData = {
com.typemytype.robofont.layerData = {
b = {
anchors = (
);
components = (
);
contours = (
);
lib = {
};
name = V;
unicodes = (
);
width = 963;
};
};
};
},
{
glyphname = W;
lastChange = "2016-08-02 09:57:56 +0000";
layers = (
{
layerId = "FCD7E481-103E-4A6C-AD70-01DA443B2AD0";
paths = (
{
closed = 1;
nodes = (
"455 0 LINE",
"732 1453 LINE",
"1014 0 LINE",
"1107 0 LINE",
"1377 1658 LINE",
"1280 1658 LINE",
"1058 219 LINE",
"785 1621 LINE",
"677 1621 LINE",
"411 220 LINE",
"168 1658 LINE",
"69 1657 LINE",
"358 0 LINE"
);
}
);
width = 1446;
},
{
associatedMasterId = "FCD7E481-103E-4A6C-AD70-01DA443B2AD0";
layerId = "8A9D5D33-8D55-4C17-9E6C-E3F8150AB489";
name = b;
width = 1427;
},
{
layerId = "8AC5A1D3-32A8-4416-86FC-94176A419B8F";
paths = (
{
closed = 1;
nodes = (
"520 0 LINE",
"754 1228 LINE",
"985 0 LINE",
"1153 0 LINE",
"1419 1658 LINE",
"1230 1658 LINE",
"1057 461 LINE",
"832 1653 LINE",
"668 1653 LINE",
"444 466 LINE",
"267 1658 LINE",
"73 1658 LINE",
"344 0 LINE"
);
}
);
width = 1493;
},
{
layerId = "3FB85DAF-C7EF-4F81-BE96-1E190958879E";
paths = (
{
closed = 1;
nodes = (
"595 0 LINE",
"700 936 LINE",
"815 0 LINE",
"1179 0 LINE",
"1358 1658 LINE",
"1017 1658 LINE",
"939 767 LINE",
"834 1658 LINE",
"568 1658 LINE",
"472 758 LINE",
"396 1658 LINE",
"52 1658 LINE",
"229 0 LINE"
);
}
);
width = 1410;
}
);
leftKerningGroup = W;
rightKerningGroup = W;
unicode = 0057;
userData = {
com.typemytype.robofont.layerData = {
b = {
anchors = (
);
components = (
);
contours = (
);
lib = {
};
name = W;
unicodes = (
);
width = 1427;
};
};
};
},
{
glyphname = X;
lastChange = "2016-08-02 09:57:56 +0000";
layers = (
{
layerId = "FCD7E481-103E-4A6C-AD70-01DA443B2AD0";
paths = (
{
closed = 1;
nodes = (
"142 0 LINE",
"447 746 LINE",
"788 0 LINE",
"896 0 LINE",
"509 843 LINE",
"889 1659 LINE",
"778 1659 LINE",
"461 951 LINE",
"135 1659 LINE",
"33 1659 LINE",
"396 861 LINE",
"30 0 LINE"
);
}
);
width = 926;
},
{
associatedMasterId = "FCD7E481-103E-4A6C-AD70-01DA443B2AD0";
layerId = "81C1061A-6A9B-494B-9176-00E6D82AA5BD";
name = b;
width = 1077;
},
{
layerId = "8AC5A1D3-32A8-4416-86FC-94176A419B8F";
paths = (
{
closed = 1;
nodes = (
"241 0 LINE",
"476 624 LINE",
"745 0 LINE",
"961 0 LINE",
"595 849 LINE",
"944 1658 LINE",
"729 1658 LINE",
"499 1073 LINE",
"247 1658 LINE",
"32 1658 LINE",
"372 868 LINE",
"27 0 LINE"
);
}
);
width = 987;
},
{
layerId = "3FB85DAF-C7EF-4F81-BE96-1E190958879E";
paths = (
{
closed = 1;
nodes = (
"339 0 LINE",
"502 458 LINE",
"684 0 LINE",
"1064 0 LINE",
"756 782 LINE",
"1029 1658 LINE",
"696 1658 LINE",
"573 1249 LINE",
"412 1658 LINE",
"26 1658 LINE",
"326 902 LINE",
"10 0 LINE"
);
}
);
width = 1074;
}
);
unicode = 0058;
userData = {
com.typemytype.robofont.layerData = {
b = {
anchors = (
);
components = (
);
contours = (
);
lib = {
};
name = X;
unicodes = (
);
width = 1077;
};
};
};
},
{
glyphname = Y;
lastChange = "2016-08-02 09:57:56 +0000";
layers = (
{
layerId = "FCD7E481-103E-4A6C-AD70-01DA443B2AD0";
paths = (
{
closed = 1;
nodes = (
"535 0 LINE",
"535 530 LINE",
"905 1658 LINE",
"791 1658 LINE",
"481 663 LINE",
"156 1658 LINE",
"41 1658 LINE",
"424 530 LINE",
"424 0 LINE"
);
}
);
width = 946;
},
{
associatedMasterId = "FCD7E481-103E-4A6C-AD70-01DA443B2AD0";
layerId = "F41A3D51-BC81-427C-8AAA-BE79254EB3CC";
name = b;
width = 930;
},
{
layerId = "8AC5A1D3-32A8-4416-86FC-94176A419B8F";
paths = (
{
closed = 1;
nodes = (
"604 0 LINE",
"604 585 LINE",
"961 1658 LINE",
"743 1658 LINE",
"493 859 LINE",
"240 1658 LINE",
"25 1658 LINE",
"383 585 LINE",
"383 0 LINE"
);
}
);
width = 986;
},
{
layerId = "3FB85DAF-C7EF-4F81-BE96-1E190958879E";
paths = (
{
closed = 1;
nodes = (
"706 0 LINE",
"706 705 LINE",
"1004 1658 LINE",
"637 1658 LINE",
"528 1214 LINE",
"397 1658 LINE",
"14 1658 LINE",
"317 705 LINE",
"317 0 LINE"
);
}
);
width = 1018;
}
);
leftKerningGroup = Y;
rightKerningGroup = Y;
unicode = 0059;
userData = {
com.typemytype.robofont.layerData = {
b = {
anchors = (
);
components = (
);
contours = (
);
lib = {
};
name = Y;
unicodes = (
);
width = 930;
};
};
};
},
{
glyphname = Z;
lastChange = "2016-08-02 09:57:56 +0000";
layers = (
{
layerId = "FCD7E481-103E-4A6C-AD70-01DA443B2AD0";
paths = (
{
closed = 1;
nodes = (
"783 0 LINE",
"783 88 LINE",
"178 88 LINE",
"780 1589 LINE",
"780 1658 LINE",
"117 1658 LINE",
"117 1570 LINE",
"660 1570 LINE",
"64 88 LINE",
"64 0 LINE"
);
}
);
width = 822;
},
{
associatedMasterId = "FCD7E481-103E-4A6C-AD70-01DA443B2AD0";
layerId = "BCAAF822-A4E2-402C-8F8F-43D45829B4EB";
name = b;
width = 896;
},
{
layerId = "8AC5A1D3-32A8-4416-86FC-94176A419B8F";
paths = (
{
closed = 1;
nodes = (
"812 0 LINE",
"812 166 LINE",
"297 166 LINE",
"811 1558 LINE",
"811 1658 LINE",
"108 1658 LINE",
"108 1492 LINE",
"565 1492 LINE",
"78 166 LINE",
"78 0 LINE"
);
}
);
width = 853;
},
{
layerId = "3FB85DAF-C7EF-4F81-BE96-1E190958879E";
paths = (
{
closed = 1;
nodes = (
"835 0 LINE",
"835 271 LINE",
"447 271 LINE",
"830 1422 LINE",
"830 1658 LINE",
"69 1658 LINE",
"69 1386 LINE",
"436 1386 LINE",
"56 237 LINE",
"56 0 LINE"
);
}
);
width = 894;
}
);
leftKerningGroup = Z;
rightKerningGroup = Z;
unicode = 005A;
userData = {
com.typemytype.robofont.layerData = {
b = {
anchors = (
);
components = (
);
contours = (
);
lib = {
};
name = Z;
unicodes = (
);
width = 896;
};
};
};
},
{
glyphname = a;
lastChange = "2016-08-02 09:57:56 +0000";
layers = (
{
layerId = "FCD7E481-103E-4A6C-AD70-01DA443B2AD0";
paths = (
{
closed = 1;
nodes = (
"435 -19 OFFCURVE",
"528 59 OFFCURVE",
"564 157 CURVE",
"567 134 OFFCURVE",
"582 0 OFFCURVE",
"582 0 CURVE",
"675 0 LINE",
"672 22 OFFCURVE",
"670 174 OFFCURVE",
"670 206 CURVE SMOOTH",
"670 802 LINE SMOOTH",
"670 1084 OFFCURVE",
"601 1203 OFFCURVE",
"401 1203 CURVE SMOOTH",
"214 1203 OFFCURVE",
"109 1119 OFFCURVE",
"103 898 CURVE SMOOTH",
"102 894 OFFCURVE",
"102 870 OFFCURVE",
"102 866 CURVE",
"208 864 LINE",
"208 897 LINE",
"208 1085 OFFCURVE",
"303 1120 OFFCURVE",
"397 1120 CURVE SMOOTH",
"518 1120 OFFCURVE",
"561 1049 OFFCURVE",
"561 791 CURVE SMOOTH",
"561 706 LINE",
"157 517 OFFCURVE",
"78 442 OFFCURVE",
"78 240 CURVE SMOOTH",
"78 87 OFFCURVE",
"173 -19 OFFCURVE",
"316 -19 CURVE"
);
},
{
closed = 1;
nodes = (
"267 71 OFFCURVE",
"186 115 OFFCURVE",
"186 255 CURVE SMOOTH",
"186 438 OFFCURVE",
"270 476 OFFCURVE",
"561 627 CURVE",
"561 237 LINE",
"518 150 OFFCURVE",
"443 71 OFFCURVE",
"342 71 CURVE SMOOTH"
);
}
);
width = 777;
},
{
associatedMasterId = "FCD7E481-103E-4A6C-AD70-01DA443B2AD0";
layerId = "282618B7-8C23-48BF-9B85-1F597464C782";
name = b;
width = 1011;
},
{
layerId = "8AC5A1D3-32A8-4416-86FC-94176A419B8F";
paths = (
{
closed = 1;
nodes = (
"458 -17 OFFCURVE",
"534 81 OFFCURVE",
"563 175 CURVE",
"571 99 OFFCURVE",
"592 0 OFFCURVE",
"592 0 CURVE",
"792 0 LINE",
"782 75 OFFCURVE",
"772 175 OFFCURVE",
"772 284 CURVE SMOOTH",
"772 825 LINE SMOOTH",
"772 1069 OFFCURVE",
"683 1200 OFFCURVE",
"449 1200 CURVE SMOOTH",
"234 1200 OFFCURVE",
"108 1103 OFFCURVE",
"95 861 CURVE SMOOTH",
"94 848 OFFCURVE",
"93 831 OFFCURVE",
"93 817 CURVE",
"310 809 LINE",
"310 868 LINE",
"310 971 OFFCURVE",
"345 1036 OFFCURVE",
"434 1036 CURVE SMOOTH",
"536 1036 OFFCURVE",
"553 966 OFFCURVE",
"553 824 CURVE SMOOTH",
"553 739 LINE",
"300 636 OFFCURVE",
"85 552 OFFCURVE",
"85 258 CURVE SMOOTH",
"85 118 OFFCURVE",
"185 -17 OFFCURVE",
"323 -17 CURVE"
);
},
{
closed = 1;
nodes = (
"342 173 OFFCURVE",
"305 229 OFFCURVE",
"305 325 CURVE SMOOTH",
"305 473 OFFCURVE",
"432 537 OFFCURVE",
"553 606 CURVE",
"553 271 LINE",
"534 240 OFFCURVE",
"474 173 OFFCURVE",
"410 173 CURVE SMOOTH"
);
}
);
width = 872;
},
{
layerId = "3FB85DAF-C7EF-4F81-BE96-1E190958879E";
paths = (
{
closed = 1;
nodes = (
"477 -22 OFFCURVE",
"551 65 OFFCURVE",
"580 165 CURVE",
"581 161 OFFCURVE",
"607 0 OFFCURVE",
"607 0 CURVE",
"932 0 LINE",
"926 53 OFFCURVE",
"911 139 OFFCURVE",
"911 298 CURVE SMOOTH",
"911 855 LINE SMOOTH",
"911 1053 OFFCURVE",
"784 1206 OFFCURVE",
"543 1206 CURVE SMOOTH",
"273 1206 OFFCURVE",
"124 1085 OFFCURVE",
"103 817 CURVE SMOOTH",
"103 816 OFFCURVE",
"100 781 OFFCURVE",
"100 780 CURVE",
"438 766 LINE",
"449 861 LINE",
"452 899 OFFCURVE",
"461 934 OFFCURVE",
"507 934 CURVE SMOOTH",
"550 934 OFFCURVE",
"563 898 OFFCURVE",
"563 860 CURVE SMOOTH",
"563 732 LINE",
"396 663 OFFCURVE",
"69 592 OFFCURVE",
"69 271 CURVE SMOOTH",
"69 133 OFFCURVE",
"164 -18 OFFCURVE",
"357 -22 CURVE"
);
},
{
closed = 1;
nodes = (
"437 216 OFFCURVE",
"395 260 OFFCURVE",
"395 335 CURVE SMOOTH",
"395 408 OFFCURVE",
"452 532 OFFCURVE",
"563 584 CURVE",
"563 262 LINE",
"541 232 OFFCURVE",
"512 216 OFFCURVE",
"484 216 CURVE SMOOTH"
);
}
);
width = 1006;
}
);
leftKerningGroup = a;
rightKerningGroup = a;
unicode = 0061;
userData = {
com.fontlab.hintData = {
};
com.typemytype.robofont.layerData = {
b = {
anchors = (
);
components = (
);
contours = (
);
lib = {
};
name = a;
unicodes = (
);
width = 1011;
};
};
hhints = {
};
position = 564;
vhints = {
};
width = 64;
};
},
{
glyphname = ae;
lastChange = "2016-08-02 09:57:56 +0000";
layers = (
{
layerId = "FCD7E481-103E-4A6C-AD70-01DA443B2AD0";
paths = (
{
closed = 1;
nodes = (
"423 -23 OFFCURVE",
"561 33 OFFCURVE",
"607 220 CURVE",
"631 38 OFFCURVE",
"746 -19 OFFCURVE",
"867 -19 CURVE SMOOTH",
"1088 -19 OFFCURVE",
"1154 119 OFFCURVE",
"1154 321 CURVE SMOOTH",
"1154 400 LINE",
"1046 400 LINE",
"1046 318 LINE SMOOTH",
"1046 91 OFFCURVE",
"951 67 OFFCURVE",
"867 67 CURVE SMOOTH",
"730 67 OFFCURVE",
"675 173 OFFCURVE",
"675 457 CURVE SMOOTH",
"675 614 LINE",
"904 692 LINE SMOOTH",
"1056 740 OFFCURVE",
"1144 810 OFFCURVE",
"1144 931 CURVE SMOOTH",
"1144 1086 OFFCURVE",
"1049 1203 OFFCURVE",
"870 1203 CURVE SMOOTH",
"763 1203 OFFCURVE",
"653 1156 OFFCURVE",
"620 1009 CURVE",
"603 1137 OFFCURVE",
"518 1203 OFFCURVE",
"401 1203 CURVE SMOOTH",
"213 1203 OFFCURVE",
"103 1102 OFFCURVE",
"103 891 CURVE",
"206 887 LINE",
"206 1072 OFFCURVE",
"301 1119 OFFCURVE",
"398 1119 CURVE SMOOTH",
"514 1119 OFFCURVE",
"566 1047 OFFCURVE",
"566 791 CURVE SMOOTH",
"566 662 LINE",
"388 600 LINE SMOOTH",
"114 502 OFFCURVE",
"81 383 OFFCURVE",
"81 240 CURVE SMOOTH",
"81 87 OFFCURVE",
"176 -16 OFFCURVE",
"319 -19 CURVE SMOOTH"
);
},
{
closed = 1;
nodes = (
"274 66 OFFCURVE",
"191 109 OFFCURVE",
"188 250 CURVE SMOOTH",
"186 369 OFFCURVE",
"203 443 OFFCURVE",
"416 530 CURVE SMOOTH",
"424 532 OFFCURVE",
"558 587 OFFCURVE",
"566 589 CURVE",
"566 444 LINE SMOOTH",
"566 149 OFFCURVE",
"450 66 OFFCURVE",
"345 66 CURVE SMOOTH"
);
},
{
closed = 1;
nodes = (
"675 786 LINE SMOOTH",
"675 1045 OFFCURVE",
"739 1116 OFFCURVE",
"870 1116 CURVE SMOOTH",
"999 1116 OFFCURVE",
"1044 1028 OFFCURVE",
"1044 939 CURVE SMOOTH",
"1044 849 OFFCURVE",
"1011 802 OFFCURVE",
"885 760 CURVE SMOOTH",
"675 687 LINE"
);
}
);
width = 1227;
},
{
layerId = "8AC5A1D3-32A8-4416-86FC-94176A419B8F";
paths = (
{
closed = 1;
nodes = (
"484 -29 OFFCURVE",
"586 79 OFFCURVE",
"645 224 CURVE",
"665 79 OFFCURVE",
"765 -17 OFFCURVE",
"910 -17 CURVE SMOOTH",
"1145 -17 OFFCURVE",
"1247 126 OFFCURVE",
"1247 362 CURVE SMOOTH",
"1247 412 LINE",
"1028 412 LINE",
"1028 361 LINE SMOOTH",
"1028 246 OFFCURVE",
"1005 157 OFFCURVE",
"911 157 CURVE SMOOTH",
"777 157 OFFCURVE",
"783 365 OFFCURVE",
"783 523 CURVE SMOOTH",
"783 578 LINE",
"927 608 LINE SMOOTH",
"1077 637 OFFCURVE",
"1238 673 OFFCURVE",
"1238 842 CURVE SMOOTH",
"1238 1060 OFFCURVE",
"1130 1200 OFFCURVE",
"912 1200 CURVE SMOOTH",
"797 1200 OFFCURVE",
"714 1139 OFFCURVE",
"673 1053 CURVE",
"645 1147 OFFCURVE",
"555 1200 OFFCURVE",
"439 1200 CURVE SMOOTH",
"220 1200 OFFCURVE",
"94 1059 OFFCURVE",
"92 837 CURVE",
"310 837 LINE",
"310 952 OFFCURVE",
"342 1032 OFFCURVE",
"439 1032 CURVE SMOOTH",
"540 1032 OFFCURVE",
"563 949 OFFCURVE",
"563 824 CURVE SMOOTH",
"563 669 LINE",
"404 626 LINE SMOOTH",
"213 574 OFFCURVE",
"89 473 OFFCURVE",
"89 258 CURVE SMOOTH",
"89 118 OFFCURVE",
"187 -7 OFFCURVE",
"325 -17 CURVE SMOOTH"
);
},
{
closed = 1;
nodes = (
"356 154 OFFCURVE",
"308 210 OFFCURVE",
"307 306 CURVE SMOOTH",
"307 412 OFFCURVE",
"368 470 OFFCURVE",
"469 511 CURVE SMOOTH",
"494 521 OFFCURVE",
"537 536 OFFCURVE",
"563 543 CURVE",
"563 433 LINE SMOOTH",
"563 246 OFFCURVE",
"491 154 OFFCURVE",
"414 154 CURVE SMOOTH"
);
},
{
closed = 1;
nodes = (
"783 814 LINE SMOOTH",
"783 939 OFFCURVE",
"814 1022 OFFCURVE",
"912 1022 CURVE SMOOTH",
"1005 1022 OFFCURVE",
"1037 949 OFFCURVE",
"1037 862 CURVE SMOOTH",
"1037 762 OFFCURVE",
"987 741 OFFCURVE",
"895 722 CURVE SMOOTH",
"783 697 LINE"
);
}
);
width = 1337;
},
{
layerId = "3FB85DAF-C7EF-4F81-BE96-1E190958879E";
paths = (
{
closed = 1;
nodes = (
"494 -27 OFFCURVE",
"631 27 OFFCURVE",
"681 139 CURVE",
"710 25 OFFCURVE",
"859 -27 OFFCURVE",
"956 -27 CURVE SMOOTH",
"1175 -26 OFFCURVE",
"1298 93 OFFCURVE",
"1298 305 CURVE SMOOTH",
"1298 414 LINE",
"965 414 LINE",
"965 346 LINE SMOOTH",
"965 277 OFFCURVE",
"971 230 OFFCURVE",
"923 230 CURVE SMOOTH",
"879 230 OFFCURVE",
"874 271 OFFCURVE",
"874 353 CURVE SMOOTH",
"874 602 LINE",
"907 608 OFFCURVE",
"945 615 OFFCURVE",
"978 623 CURVE SMOOTH",
"1151 666 OFFCURVE",
"1314 745 OFFCURVE",
"1314 944 CURVE SMOOTH",
"1314 1078 OFFCURVE",
"1200 1243 OFFCURVE",
"959 1243 CURVE SMOOTH",
"831 1243 OFFCURVE",
"720 1174 OFFCURVE",
"688 1083 CURVE",
"665 1173 OFFCURVE",
"569 1244 OFFCURVE",
"439 1244 CURVE SMOOTH",
"171 1244 OFFCURVE",
"50 1077 OFFCURVE",
"55 789 CURVE",
"409 789 LINE",
"409 914 OFFCURVE",
"440 930 OFFCURVE",
"472 930 CURVE SMOOTH",
"504 930 OFFCURVE",
"530 915 OFFCURVE",
"530 843 CURVE SMOOTH",
"530 698 LINE",
"486 690 OFFCURVE",
"428 681 OFFCURVE",
"376 668 CURVE SMOOTH",
"216 629 OFFCURVE",
"52 544 OFFCURVE",
"52 282 CURVE SMOOTH",
"52 73 OFFCURVE",
"204 -26 OFFCURVE",
"379 -27 CURVE SMOOTH"
);
},
{
closed = 1;
nodes = (
"383 216 OFFCURVE",
"366 286 OFFCURVE",
"366 318 CURVE SMOOTH",
"366 354 OFFCURVE",
"383 460 OFFCURVE",
"475 520 CURVE SMOOTH",
"491 530 OFFCURVE",
"510 539 OFFCURVE",
"531 547 CURVE",
"533 322 LINE SMOOTH",
"533 232 OFFCURVE",
"495 216 OFFCURVE",
"447 216 CURVE SMOOTH"
);
},
{
closed = 1;
nodes = (
"873 899 LINE SMOOTH",
"873 971 OFFCURVE",
"913 1016 OFFCURVE",
"954 1016 CURVE SMOOTH",
"987 1016 OFFCURVE",
"1015 985 OFFCURVE",
"1015 918 CURVE SMOOTH",
"1015 863 OFFCURVE",
"999 827 OFFCURVE",
"973 803 CURVE SMOOTH",
"950 780 OFFCURVE",
"913 767 OFFCURVE",
"873 761 CURVE"
);
}
);
width = 1374;
}
);
unicode = 00E6;
userData = {
com.fontlab.hintData = {
hhints = (
{
position = -27;
width = 245;
},
{
position = 603;
width = 161;
},
{
position = 1016;
width = 229;
}
);
vhints = (
{
position = 50;
width = 318;
},
{
position = 529;
width = 347;
},
{
position = 1014;
width = 303;
}
);
};
};
},
{
glyphname = b;
lastChange = "2016-08-02 09:57:56 +0000";
layers = (
{
layerId = "FCD7E481-103E-4A6C-AD70-01DA443B2AD0";
paths = (
{
closed = 1;
nodes = (
"655 -19 OFFCURVE",
"720 156 OFFCURVE",
"720 487 CURVE SMOOTH",
"720 714 LINE SMOOTH",
"720 1011 OFFCURVE",
"671 1203 OFFCURVE",
"453 1203 CURVE SMOOTH",
"344 1203 OFFCURVE",
"269 1140 OFFCURVE",
"226 1084 CURVE",
"226 1658 LINE",
"117 1658 LINE",
"117 0 LINE",
"226 0 LINE",
"226 98 LINE",
"268 45 OFFCURVE",
"339 -19 OFFCURVE",
"442 -19 CURVE SMOOTH"
);
},
{
closed = 1;
nodes = (
"343 66 OFFCURVE",
"272 117 OFFCURVE",
"226 173 CURVE",
"226 1008 LINE",
"268 1054 OFFCURVE",
"341 1118 OFFCURVE",
"431 1118 CURVE SMOOTH",
"583 1118 OFFCURVE",
"611 997 OFFCURVE",
"611 715 CURVE SMOOTH",
"611 484 LINE SMOOTH",
"611 195 OFFCURVE",
"577 66 OFFCURVE",
"429 66 CURVE SMOOTH"
);
}
);
width = 814;
},
{
associatedMasterId = "FCD7E481-103E-4A6C-AD70-01DA443B2AD0";
layerId = "7299F130-3C4F-4A39-8F64-121A1F638363";
name = b;
width = 1077;
},
{
layerId = "8AC5A1D3-32A8-4416-86FC-94176A419B8F";
paths = (
{
closed = 1;
nodes = (
"767 -17 OFFCURVE",
"827 217 OFFCURVE",
"827 469 CURVE SMOOTH",
"827 755 LINE SMOOTH",
"827 897 OFFCURVE",
"804 1200 OFFCURVE",
"558 1200 CURVE SMOOTH",
"457 1200 OFFCURVE",
"385 1149 OFFCURVE",
"333 1090 CURVE",
"333 1658 LINE",
"114 1658 LINE",
"114 0 LINE",
"333 0 LINE",
"333 87 LINE",
"383 32 OFFCURVE",
"450 -17 OFFCURVE",
"534 -17 CURVE SMOOTH"
);
},
{
closed = 1;
nodes = (
"425 156 OFFCURVE",
"373 179 OFFCURVE",
"333 208 CURVE",
"333 968 LINE",
"373 999 OFFCURVE",
"424 1028 OFFCURVE",
"481 1028 CURVE SMOOTH",
"594 1028 OFFCURVE",
"608 904 OFFCURVE",
"608 755 CURVE SMOOTH",
"608 468 LINE SMOOTH",
"608 294 OFFCURVE",
"602 156 OFFCURVE",
"490 156 CURVE SMOOTH"
);
}
);
width = 916;
},
{
layerId = "3FB85DAF-C7EF-4F81-BE96-1E190958879E";
paths = (
{
closed = 1;
nodes = (
"886 -22 OFFCURVE",
"985 98 OFFCURVE",
"985 310 CURVE SMOOTH",
"985 885 LINE SMOOTH",
"985 1091 OFFCURVE",
"896 1199 OFFCURVE",
"738 1206 CURVE SMOOTH",
"658 1210 OFFCURVE",
"560 1176 OFFCURVE",
"469 1099 CURVE",
"469 1658 LINE",
"102 1658 LINE",
"102 0 LINE",
"469 0 LINE",
"469 90 LINE",
"555 19 OFFCURVE",
"650 -22 OFFCURVE",
"737 -22 CURVE SMOOTH"
);
},
{
closed = 1;
nodes = (
"521 206 OFFCURVE",
"494 216 OFFCURVE",
"469 231 CURVE",
"469 962 LINE",
"496 981 OFFCURVE",
"524 994 OFFCURVE",
"543 997 CURVE SMOOTH",
"590 1003 OFFCURVE",
"618 963 OFFCURVE",
"618 918 CURVE SMOOTH",
"618 286 LINE SMOOTH",
"618 241 OFFCURVE",
"591 205 OFFCURVE",
"543 206 CURVE SMOOTH"
);
}
);
width = 1071;
}
);
leftKerningGroup = b;
rightKerningGroup = b;
unicode = 0062;
userData = {
com.typemytype.robofont.layerData = {
b = {
anchors = (
);
components = (
);
contours = (
);
lib = {
};
name = b;
unicodes = (
);
width = 1077;
};
};
};
},
{
glyphname = c;
lastChange = "2016-08-02 09:57:56 +0000";
layers = (
{
layerId = "FCD7E481-103E-4A6C-AD70-01DA443B2AD0";
paths = (
{
closed = 1;
nodes = (
"652 -19 OFFCURVE",
"682 162 OFFCURVE",
"682 399 CURVE SMOOTH",
"682 443 LINE",
"580 443 LINE",
"580 397 LINE SMOOTH",
"580 162 OFFCURVE",
"554 63 OFFCURVE",
"395 63 CURVE SMOOTH",
"239 63 OFFCURVE",
"203 171 OFFCURVE",
"203 429 CURVE SMOOTH",
"203 736 LINE SMOOTH",
"203 1016 OFFCURVE",
"233 1121 OFFCURVE",
"394 1121 CURVE SMOOTH",
"524 1121 OFFCURVE",
"580 1058 OFFCURVE",
"580 819 CURVE SMOOTH",
"580 772 LINE",
"682 772 LINE",
"682 820 LINE SMOOTH",
"682 1037 OFFCURVE",
"639 1203 OFFCURVE",
"393 1203 CURVE SMOOTH",
"162 1203 OFFCURVE",
"94 1071 OFFCURVE",
"94 723 CURVE SMOOTH",
"94 445 LINE SMOOTH",
"94 187 OFFCURVE",
"127 -19 OFFCURVE",
"393 -19 CURVE SMOOTH"
);
}
);
width = 768;
},
{
associatedMasterId = "FCD7E481-103E-4A6C-AD70-01DA443B2AD0";
layerId = "AD89B645-3C04-4879-83D0-D43B0945470C";
name = b;
width = 1000;
},
{
layerId = "8AC5A1D3-32A8-4416-86FC-94176A419B8F";
paths = (
{
closed = 1;
nodes = (
"688 -17 OFFCURVE",
"757 124 OFFCURVE",
"757 365 CURVE SMOOTH",
"757 447 LINE",
"559 447 LINE",
"559 351 LINE SMOOTH",
"559 230 OFFCURVE",
"547 145 OFFCURVE",
"438 145 CURVE SMOOTH",
"339 145 OFFCURVE",
"308 197 OFFCURVE",
"308 400 CURVE SMOOTH",
"308 773 LINE SMOOTH",
"308 972 OFFCURVE",
"327 1039 OFFCURVE",
"437 1039 CURVE SMOOTH",
"532 1039 OFFCURVE",
"559 983 OFFCURVE",
"559 829 CURVE SMOOTH",
"559 757 LINE",
"757 757 LINE",
"757 828 LINE SMOOTH",
"757 1072 OFFCURVE",
"692 1200 OFFCURVE",
"434 1200 CURVE SMOOTH",
"148 1200 OFFCURVE",
"89 1024 OFFCURVE",
"89 728 CURVE SMOOTH",
"89 454 LINE SMOOTH",
"89 170 OFFCURVE",
"143 -17 OFFCURVE",
"434 -17 CURVE SMOOTH"
);
}
);
width = 841;
},
{
layerId = "3FB85DAF-C7EF-4F81-BE96-1E190958879E";
paths = (
{
closed = 1;
nodes = (
"754 -22 OFFCURVE",
"928 95 OFFCURVE",
"928 332 CURVE SMOOTH",
"928 494 LINE",
"570 494 LINE",
"570 320 LINE SMOOTH",
"570 242 OFFCURVE",
"541 228 OFFCURVE",
"506 228 CURVE SMOOTH",
"474 228 OFFCURVE",
"447 251 OFFCURVE",
"447 330 CURVE SMOOTH",
"447 856 LINE SMOOTH",
"447 934 OFFCURVE",
"474 958 OFFCURVE",
"506 958 CURVE SMOOTH",
"541 958 OFFCURVE",
"570 945 OFFCURVE",
"570 866 CURVE SMOOTH",
"570 712 LINE",
"928 712 LINE",
"928 854 LINE SMOOTH",
"928 1091 OFFCURVE",
"755 1206 OFFCURVE",
"506 1206 CURVE SMOOTH",
"256 1206 OFFCURVE",
"78 1071 OFFCURVE",
"78 833 CURVE SMOOTH",
"78 353 LINE SMOOTH",
"78 115 OFFCURVE",
"256 -22 OFFCURVE",
"506 -22 CURVE SMOOTH"
);
}
);
width = 994;
}
);
leftKerningGroup = c;
rightKerningGroup = c;
unicode = 0063;
userData = {
com.fontlab.hintData = {
hhints = (
{
position = -22;
width = 263;
},
{
position = 945;
width = 261;
}
);
vhints = (
{
position = 72;
width = 374;
}
);
};
com.typemytype.robofont.layerData = {
b = {
anchors = (
);
components = (
);
contours = (
);
lib = {
};
name = c;
unicodes = (
);
width = 1000;
};
};
};
},
{
glyphname = d;
lastChange = "2016-08-02 09:57:56 +0000";
layers = (
{
layerId = "FCD7E481-103E-4A6C-AD70-01DA443B2AD0";
paths = (
{
closed = 1;
nodes = (
"470 -19 OFFCURVE",
"539 38 OFFCURVE",
"582 90 CURVE",
"582 0 LINE",
"691 0 LINE",
"691 1658 LINE",
"582 1658 LINE",
"582 1093 LINE",
"538 1146 OFFCURVE",
"467 1202 OFFCURVE",
"367 1203 CURVE SMOOTH",
"150 1203 OFFCURVE",
"94 1030 OFFCURVE",
"94 697 CURVE SMOOTH",
"94 486 LINE SMOOTH",
"94 126 OFFCURVE",
"168 -19 OFFCURVE",
"372 -19 CURVE SMOOTH"
);
},
{
closed = 1;
nodes = (
"239 66 OFFCURVE",
"203 190 OFFCURVE",
"203 477 CURVE SMOOTH",
"203 723 LINE SMOOTH",
"203 1000 OFFCURVE",
"233 1118 OFFCURVE",
"384 1118 CURVE SMOOTH",
"469 1118 OFFCURVE",
"539 1059 OFFCURVE",
"582 1015 CURVE",
"582 166 LINE",
"534 112 OFFCURVE",
"465 66 OFFCURVE",
"388 66 CURVE SMOOTH"
);
}
);
width = 808;
},
{
associatedMasterId = "FCD7E481-103E-4A6C-AD70-01DA443B2AD0";
layerId = "0C242771-698E-4ECF-88BF-BA92679E2B8D";
name = b;
width = 1074;
},
{
layerId = "8AC5A1D3-32A8-4416-86FC-94176A419B8F";
paths = (
{
closed = 1;
nodes = (
"462 -17 OFFCURVE",
"524 21 OFFCURVE",
"575 76 CURVE",
"575 0 LINE",
"794 0 LINE",
"794 1658 LINE",
"575 1658 LINE",
"575 1108 LINE",
"525 1159 OFFCURVE",
"459 1200 OFFCURVE",
"378 1200 CURVE SMOOTH",
"137 1200 OFFCURVE",
"89 965 OFFCURVE",
"89 695 CURVE SMOOTH",
"89 465 LINE SMOOTH",
"89 114 OFFCURVE",
"184 -18 OFFCURVE",
"386 -17 CURVE SMOOTH"
);
},
{
closed = 1;
nodes = (
"323 156 OFFCURVE",
"308 280 OFFCURVE",
"308 446 CURVE SMOOTH",
"308 781 LINE SMOOTH",
"308 915 OFFCURVE",
"333 1028 OFFCURVE",
"437 1028 CURVE SMOOTH",
"489 1028 OFFCURVE",
"536 1004 OFFCURVE",
"575 976 CURVE",
"575 200 LINE",
"529 171 OFFCURVE",
"482 156 OFFCURVE",
"441 156 CURVE SMOOTH"
);
}
);
width = 905;
},
{
layerId = "3FB85DAF-C7EF-4F81-BE96-1E190958879E";
paths = (
{
closed = 1;
nodes = (
"435 -22 OFFCURVE",
"521 20 OFFCURVE",
"599 96 CURVE",
"599 0 LINE",
"966 0 LINE",
"966 1658 LINE",
"599 1658 LINE",
"599 1111 LINE",
"529 1170 OFFCURVE",
"445 1206 OFFCURVE",
"356 1206 CURVE SMOOTH",
"191 1206 OFFCURVE",
"86 1077 OFFCURVE",
"86 874 CURVE SMOOTH",
"86 309 LINE SMOOTH",
"86 98 OFFCURVE",
"185 -22 OFFCURVE",
"353 -22 CURVE SMOOTH"
);
},
{
closed = 1;
nodes = (
"480 203 OFFCURVE",
"455 242 OFFCURVE",
"455 287 CURVE SMOOTH",
"455 892 LINE SMOOTH",
"455 948 OFFCURVE",
"479 987 OFFCURVE",
"529 987 CURVE SMOOTH",
"549 987 OFFCURVE",
"576 980 OFFCURVE",
"599 968 CURVE",
"599 229 LINE",
"572 213 OFFCURVE",
"543 203 OFFCURVE",
"525 203 CURVE SMOOTH"
);
}
);
width = 1068;
}
);
leftKerningGroup = d;
rightKerningGroup = d;
unicode = 0064;
userData = {
com.fontlab.hintData = {
hhints = (
{
position = -22;
width = 226;
},
{
position = 986;
width = 220;
}
);
};
com.typemytype.robofont.layerData = {
b = {
anchors = (
);
components = (
);
contours = (
);
lib = {
};
name = d;
unicodes = (
);
width = 1074;
};
};
};
},
{
glyphname = eth;
lastChange = "2016-08-02 09:57:56 +0000";
layers = (
{
layerId = "FCD7E481-103E-4A6C-AD70-01DA443B2AD0";
paths = (
{
closed = 1;
nodes = (
"690 -22 OFFCURVE",
"757 161 OFFCURVE",
"757 508 CURVE SMOOTH",
"757 679 LINE SMOOTH",
"757 1031 OFFCURVE",
"677 1306 OFFCURVE",
"641 1391 CURVE",
"778 1427 LINE",
"778 1496 LINE",
"613 1452 LINE",
"528 1625 OFFCURVE",
"374 1684 OFFCURVE",
"172 1695 CURVE",
"166 1620 LINE",
"349 1603 OFFCURVE",
"466 1545 OFFCURVE",
"525 1423 CURVE",
"345 1375 LINE",
"345 1307 LINE",
"554 1364 LINE",
"588 1301 OFFCURVE",
"613 1177 OFFCURVE",
"626 1084 CURVE",
"566 1116 OFFCURVE",
"498 1139 OFFCURVE",
"425 1139 CURVE SMOOTH",
"225 1139 OFFCURVE",
"114 977 OFFCURVE",
"113 618 CURVE SMOOTH",
"113 457 LINE SMOOTH",
"112 162 OFFCURVE",
"199 -22 OFFCURVE",
"441 -22 CURVE SMOOTH"
);
},
{
closed = 1;
nodes = (
"288 66 OFFCURVE",
"219 211 OFFCURVE",
"219 527 CURVE SMOOTH",
"219 918 OFFCURVE",
"298 1052 OFFCURVE",
"450 1052 CURVE SMOOTH",
"515 1052 OFFCURVE",
"574 1025 OFFCURVE",
"631 1001 CURVE",
"634 983 OFFCURVE",
"651 687 OFFCURVE",
"651 580 CURVE SMOOTH",
"651 206 OFFCURVE",
"624 66 OFFCURVE",
"444 66 CURVE SMOOTH"
);
}
);
width = 880;
},
{
associatedMasterId = "FCD7E481-103E-4A6C-AD70-01DA443B2AD0";
layerId = "6E2118F9-BBA8-48C2-BC42-30B97830501D";
name = b;
paths = (
{
closed = 1;
nodes = (
"402.5 30 CURVE SMOOTH",
"273.5 30 OFFCURVE",
"175.5 146 OFFCURVE",
"175.5 504 CURVE SMOOTH",
"175.5 902 OFFCURVE",
"264 1001 OFFCURVE",
"442 1001 CURVE SMOOTH",
"497 1001 OFFCURVE",
"573 985 OFFCURVE",
"631 955 CURVE",
"636 931 OFFCURVE",
"658.5 778 OFFCURVE",
"658.5 633 CURVE SMOOTH",
"658.5 178 OFFCURVE",
"596.5 30 OFFCURVE"
);
},
{
closed = 1;
nodes = (
"400.5 -24 CURVE SMOOTH",
"635.5 -24 OFFCURVE",
"718.5 169 OFFCURVE",
"718.5 533 CURVE SMOOTH",
"718.5 621 LINE SMOOTH",
"718.5 965 OFFCURVE",
"608.787 1316.63 OFFCURVE",
"581.5 1384 CURVE",
"725.5 1421 LINE",
"725.5 1472 LINE",
"560.5 1430 LINE",
"477.5 1620 OFFCURVE",
"349.5 1687 OFFCURVE",
"173.5 1702 CURVE",
"168.5 1655 LINE",
"346.5 1632 OFFCURVE",
"446.5 1558 OFFCURVE",
"505.5 1412 CURVE",
"358.5 1374 LINE",
"358.5 1324 LINE",
"528.5 1367 LINE",
"562.5 1282 OFFCURVE",
"601 1148 OFFCURVE",
"626 1001 CURVE",
"562 1038 OFFCURVE",
"491 1055 OFFCURVE",
"434 1055 CURVE SMOOTH",
"245 1053 OFFCURVE",
"103.5 941 OFFCURVE",
"113.5 536 CURVE SMOOTH",
"115.5 456 LINE SMOOTH",
"122.5 161 OFFCURVE",
"208.808 -24 OFFCURVE"
);
}
);
width = 845;
},
{
layerId = "8AC5A1D3-32A8-4416-86FC-94176A419B8F";
paths = (
{
closed = 1;
nodes = (
"750 -18 OFFCURVE",
"851 181 OFFCURVE",
"851 486 CURVE SMOOTH",
"851 773 LINE SMOOTH",
"851 998 OFFCURVE",
"783 1269 OFFCURVE",
"723 1394 CURVE",
"906 1443 LINE",
"906 1555 LINE",
"667 1485 LINE",
"577 1616 OFFCURVE",
"432 1675 OFFCURVE",
"168 1677 CURVE",
"158 1534 LINE",
"352 1531 OFFCURVE",
"439 1495 OFFCURVE",
"496 1429 CURVE",
"311 1377 LINE",
"311 1265 LINE",
"555 1341 LINE",
"593 1282 OFFCURVE",
"617 1174 OFFCURVE",
"627 1066 CURVE",
"587 1102 OFFCURVE",
"523 1140 OFFCURVE",
"428 1140 CURVE SMOOTH",
"157 1140 OFFCURVE",
"106 898 OFFCURVE",
"106 598 CURVE SMOOTH",
"106 460 LINE SMOOTH",
"106 164 OFFCURVE",
"162 -18 OFFCURVE",
"464 -18 CURVE SMOOTH"
);
},
{
closed = 1;
nodes = (
"294 155 OFFCURVE",
"325 370 OFFCURVE",
"325 582 CURVE SMOOTH",
"325 840 OFFCURVE",
"360 961 OFFCURVE",
"483 961 CURVE SMOOTH",
"570 961 OFFCURVE",
"612 910 OFFCURVE",
"630 892 CURVE",
"631 890 OFFCURVE",
"633 463 OFFCURVE",
"633 449 CURVE SMOOTH",
"633 273 OFFCURVE",
"617 155 OFFCURVE",
"471 155 CURVE SMOOTH"
);
}
);
width = 965;
},
{
layerId = "3FB85DAF-C7EF-4F81-BE96-1E190958879E";
paths = (
{
closed = 1;
nodes = (
"774 -33 OFFCURVE",
"993 41 OFFCURVE",
"993 429 CURVE SMOOTH",
"993 947 LINE SMOOTH",
"993 1308 OFFCURVE",
"902 1481 OFFCURVE",
"851 1552 CURVE",
"998 1647 LINE",
"950 1724 LINE",
"791 1620 LINE",
"709 1697 OFFCURVE",
"552 1742 OFFCURVE",
"330 1742 CURVE",
"313 1516 LINE",
"429 1516 OFFCURVE",
"511 1493 OFFCURVE",
"533 1462 CURVE",
"377 1365 LINE",
"426 1290 LINE",
"583 1388 LINE",
"605 1363 OFFCURVE",
"626 1286 OFFCURVE",
"626 1180 CURVE",
"587 1196 OFFCURVE",
"538 1206 OFFCURVE",
"483 1206 CURVE SMOOTH",
"308 1206 OFFCURVE",
"110 1073 OFFCURVE",
"110 831 CURVE SMOOTH",
"110 424 LINE SMOOTH",
"110 85 OFFCURVE",
"324 -33 OFFCURVE",
"550 -33 CURVE SMOOTH"
);
},
{
closed = 1;
nodes = (
"467 203 OFFCURVE",
"469 293 OFFCURVE",
"469 594 CURVE SMOOTH",
"469 904 OFFCURVE",
"483 980 OFFCURVE",
"572 980 CURVE SMOOTH",
"590 980 OFFCURVE",
"607 976 OFFCURVE",
"626 971 CURVE",
"626 328 LINE SMOOTH",
"626 248 OFFCURVE",
"607 203 OFFCURVE",
"549 203 CURVE SMOOTH"
);
}
);
width = 1093;
}
);
unicode = 00F0;
userData = {
com.fontlab.hintData = {
hhints = (
{
position = -34;
width = 238;
},
{
position = 986;
width = 220;
},
{
position = 1486;
width = 259;
}
);
vhints = (
{
position = 72;
width = 364;
},
{
position = 588;
width = 372;
}
);
};
com.typemytype.robofont.layerData = {
b = {
anchors = (
);
components = (
);
contours = (
{
points = (
{
segmentType = curve;
smooth = 1;
x = 402.5005;
y = 30;
},
{
smooth = 0;
x = 273.5005;
y = 30;
},
{
smooth = 0;
x = 175.5005;
y = 146;
},
{
segmentType = curve;
smooth = 1;
x = 175.5005;
y = 504;
},
{
smooth = 0;
x = 175.5005;
y = 902;
},
{
smooth = 0;
x = 264;
y = 1001;
},
{
segmentType = curve;
smooth = 1;
x = 442;
y = 1001;
},
{
smooth = 0;
x = 497;
y = 1001;
},
{
smooth = 0;
x = 573;
y = 985;
},
{
segmentType = curve;
smooth = 0;
x = 631;
y = 955;
},
{
smooth = 0;
x = 636;
y = 931;
},
{
smooth = 0;
x = 658.5005;
y = 778;
},
{
segmentType = curve;
smooth = 1;
x = 658.5005;
y = 633;
},
{
smooth = 0;
x = 658.5005;
y = 178;
},
{
smooth = 0;
x = 596.5005;
y = 30;
}
);
},
{
points = (
{
segmentType = curve;
smooth = 1;
x = 400.5005;
y = -24;
},
{
smooth = 0;
x = 635.5005;
y = -24;
},
{
smooth = 0;
x = 718.5005;
y = 169;
},
{
segmentType = curve;
smooth = 1;
x = 718.5005;
y = 533;
},
{
segmentType = line;
smooth = 1;
x = 718.5005;
y = 621;
},
{
smooth = 0;
x = 718.5005;
y = 965;
},
{
smooth = 0;
x = 608.7875;
y = 1316.6300;
},
{
segmentType = curve;
smooth = 0;
x = 581.5005;
y = 1384;
},
{
segmentType = line;
smooth = 0;
x = 725.5005;
y = 1421;
},
{
segmentType = line;
smooth = 0;
x = 725.5005;
y = 1472;
},
{
segmentType = line;
smooth = 0;
x = 560.5005;
y = 1430;
},
{
smooth = 0;
x = 477.5005;
y = 1620;
},
{
smooth = 0;
x = 349.5005;
y = 1687;
},
{
segmentType = curve;
smooth = 0;
x = 173.5005;
y = 1702;
},
{
segmentType = line;
smooth = 0;
x = 168.5005;
y = 1655;
},
{
smooth = 0;
x = 346.5005;
y = 1632;
},
{
smooth = 0;
x = 446.5005;
y = 1558;
},
{
segmentType = curve;
smooth = 0;
x = 505.5005;
y = 1412;
},
{
segmentType = line;
smooth = 0;
x = 358.5005;
y = 1374;
},
{
segmentType = line;
smooth = 0;
x = 358.5005;
y = 1324;
},
{
segmentType = line;
smooth = 0;
x = 528.5005;
y = 1367;
},
{
smooth = 0;
x = 562.5005;
y = 1282;
},
{
smooth = 0;
x = 601;
y = 1148;
},
{
segmentType = curve;
smooth = 0;
x = 626;
y = 1001;
},
{
smooth = 0;
x = 562;
y = 1038;
},
{
smooth = 0;
x = 491;
y = 1055;
},
{
segmentType = curve;
smooth = 1;
x = 434;
y = 1055;
},
{
smooth = 0;
x = 245;
y = 1053;
},
{
smooth = 0;
x = 103.5005;
y = 941;
},
{
segmentType = curve;
smooth = 1;
x = 113.5005;
y = 536;
},
{
segmentType = line;
smooth = 1;
x = 115.5005;
y = 456;
},
{
smooth = 0;
x = 122.5005;
y = 161;
},
{
smooth = 0;
x = 208.8085;
y = -24;
}
);
}
);
lib = {
};
name = eth;
unicodes = (
);
width = 845;
};
};
};
},
{
glyphname = dcroat;
lastChange = "2016-08-02 09:57:56 +0000";
layers = (
{
layerId = "FCD7E481-103E-4A6C-AD70-01DA443B2AD0";
paths = (
{
closed = 1;
nodes = (
"470 -19 OFFCURVE",
"539 38 OFFCURVE",
"582 90 CURVE",
"582 0 LINE",
"691 0 LINE",
"691 1414 LINE",
"806 1414 LINE",
"806 1484 LINE",
"691 1484 LINE",
"691 1658 LINE",
"582 1658 LINE",
"582 1484 LINE",
"409 1484 LINE",
"409 1414 LINE",
"582 1414 LINE",
"582 1093 LINE",
"538 1146 OFFCURVE",
"467 1202 OFFCURVE",
"367 1203 CURVE SMOOTH",
"150 1203 OFFCURVE",
"94 1030 OFFCURVE",
"94 697 CURVE SMOOTH",
"94 486 LINE SMOOTH",
"94 126 OFFCURVE",
"168 -19 OFFCURVE",
"372 -19 CURVE SMOOTH"
);
},
{
closed = 1;
nodes = (
"239 66 OFFCURVE",
"203 190 OFFCURVE",
"203 477 CURVE SMOOTH",
"203 723 LINE SMOOTH",
"203 1000 OFFCURVE",
"233 1118 OFFCURVE",
"384 1118 CURVE SMOOTH",
"469 1118 OFFCURVE",
"539 1059 OFFCURVE",
"582 1015 CURVE",
"582 166 LINE",
"534 112 OFFCURVE",
"465 66 OFFCURVE",
"388 66 CURVE SMOOTH"
);
}
);
width = 839;
},
{
associatedMasterId = "FCD7E481-103E-4A6C-AD70-01DA443B2AD0";
layerId = "4A8C991C-2B0D-4517-B7B2-82E8361DA185";
name = b;
width = 1055;
},
{
layerId = "8AC5A1D3-32A8-4416-86FC-94176A419B8F";
paths = (
{
closed = 1;
nodes = (
"462 -17 OFFCURVE",
"524 21 OFFCURVE",
"575 76 CURVE",
"575 0 LINE",
"794 0 LINE",
"794 1391 LINE",
"915 1391 LINE",
"915 1511 LINE",
"794 1511 LINE",
"794 1658 LINE",
"575 1658 LINE",
"575 1511 LINE",
"346 1511 LINE",
"346 1391 LINE",
"575 1391 LINE",
"575 1108 LINE",
"525 1159 OFFCURVE",
"459 1200 OFFCURVE",
"378 1200 CURVE SMOOTH",
"137 1200 OFFCURVE",
"89 965 OFFCURVE",
"89 695 CURVE SMOOTH",
"89 465 LINE SMOOTH",
"89 114 OFFCURVE",
"184 -18 OFFCURVE",
"386 -17 CURVE SMOOTH"
);
},
{
closed = 1;
nodes = (
"323 156 OFFCURVE",
"308 280 OFFCURVE",
"308 446 CURVE SMOOTH",
"308 781 LINE SMOOTH",
"308 915 OFFCURVE",
"333 1028 OFFCURVE",
"437 1028 CURVE SMOOTH",
"489 1028 OFFCURVE",
"536 1004 OFFCURVE",
"575 976 CURVE",
"575 200 LINE",
"529 171 OFFCURVE",
"482 156 OFFCURVE",
"441 156 CURVE SMOOTH"
);
}
);
width = 929;
},
{
layerId = "3FB85DAF-C7EF-4F81-BE96-1E190958879E";
paths = (
{
closed = 1;
nodes = (
"428 -22 OFFCURVE",
"509 20 OFFCURVE",
"586 96 CURVE",
"586 0 LINE",
"953 0 LINE",
"953 1395 LINE",
"1046 1395 LINE",
"1046 1533 LINE",
"953 1533 LINE",
"953 1658 LINE",
"586 1658 LINE",
"586 1533 LINE",
"300 1533 LINE",
"300 1395 LINE",
"586 1395 LINE",
"586 1111 LINE",
"516 1170 OFFCURVE",
"437 1206 OFFCURVE",
"348 1206 CURVE SMOOTH",
"183 1206 OFFCURVE",
"78 1077 OFFCURVE",
"78 874 CURVE SMOOTH",
"78 309 LINE SMOOTH",
"78 98 OFFCURVE",
"177 -22 OFFCURVE",
"346 -22 CURVE SMOOTH"
);
},
{
closed = 1;
nodes = (
"472 203 OFFCURVE",
"447 242 OFFCURVE",
"447 287 CURVE SMOOTH",
"447 892 LINE SMOOTH",
"447 948 OFFCURVE",
"471 987 OFFCURVE",
"521 987 CURVE SMOOTH",
"541 987 OFFCURVE",
"563 980 OFFCURVE",
"586 968 CURVE",
"586 229 LINE",
"559 213 OFFCURVE",
"535 203 OFFCURVE",
"517 203 CURVE SMOOTH"
);
}
);
width = 1051;
}
);
unicode = 0111;
userData = {
com.fontlab.hintData = {
hhints = (
{
position = -22;
width = 226;
},
{
position = 986;
width = 220;
}
);
};
com.typemytype.robofont.layerData = {
b = {
anchors = (
);
components = (
);
contours = (
);
lib = {
};
name = dcroat;
unicodes = (
);
width = 1055;
};
};
};
},
{
glyphname = e;
lastChange = "2016-08-02 09:57:56 +0000";
layers = (
{
layerId = "FCD7E481-103E-4A6C-AD70-01DA443B2AD0";
paths = (
{
closed = 1;
nodes = (
"618 -19 OFFCURVE",
"688 119 OFFCURVE",
"688 322 CURVE SMOOTH",
"688 400 LINE",
"581 400 LINE",
"581 312 LINE SMOOTH",
"581 84 OFFCURVE",
"481 63 OFFCURVE",
"395 63 CURVE SMOOTH",
"258 63 OFFCURVE",
"203 146 OFFCURVE",
"203 430 CURVE SMOOTH",
"203 619 LINE",
"687 619 LINE",
"689 732 LINE SMOOTH",
"689 1071 OFFCURVE",
"619 1203 OFFCURVE",
"398 1203 CURVE SMOOTH",
"211 1203 OFFCURVE",
"94 1125 OFFCURVE",
"94 754 CURVE SMOOTH",
"94 438 LINE SMOOTH",
"94 72 OFFCURVE",
"207 -19 OFFCURVE",
"396 -19 CURVE SMOOTH"
);
},
{
closed = 1;
nodes = (
"203 774 LINE SMOOTH",
"203 1055 OFFCURVE",
"264 1121 OFFCURVE",
"398 1121 CURVE SMOOTH",
"563 1121 OFFCURVE",
"581 987 OFFCURVE",
"581 776 CURVE SMOOTH",
"581 684 LINE",
"203 684 LINE"
);
}
);
width = 777;
},
{
associatedMasterId = "FCD7E481-103E-4A6C-AD70-01DA443B2AD0";
layerId = "00D77B0C-9F53-4E0E-8749-E1E3D46765C9";
name = b;
width = 996;
},
{
layerId = "8AC5A1D3-32A8-4416-86FC-94176A419B8F";
paths = (
{
closed = 1;
nodes = (
"679 -17 OFFCURVE",
"773 128 OFFCURVE",
"773 366 CURVE SMOOTH",
"773 412 LINE",
"559 412 LINE",
"559 340 LINE SMOOTH",
"559 222 OFFCURVE",
"538 145 OFFCURVE",
"437 145 CURVE SMOOTH",
"304 145 OFFCURVE",
"308 273 OFFCURVE",
"308 430 CURVE SMOOTH",
"308 588 LINE",
"774 588 LINE",
"775 684 LINE SMOOTH",
"775 1008 OFFCURVE",
"735 1200 OFFCURVE",
"438 1200 CURVE SMOOTH",
"165 1200 OFFCURVE",
"89 1041 OFFCURVE",
"89 727 CURVE SMOOTH",
"89 456 LINE SMOOTH",
"89 147 OFFCURVE",
"159 -17 OFFCURVE",
"439 -17 CURVE SMOOTH"
);
},
{
closed = 1;
nodes = (
"308 771 LINE SMOOTH",
"308 974 OFFCURVE",
"330 1039 OFFCURVE",
"436 1039 CURVE SMOOTH",
"544 1039 OFFCURVE",
"559 958 OFFCURVE",
"559 814 CURVE SMOOTH",
"559 707 LINE",
"308 707 LINE"
);
}
);
width = 862;
},
{
layerId = "3FB85DAF-C7EF-4F81-BE96-1E190958879E";
paths = (
{
closed = 1;
nodes = (
"754 -22 OFFCURVE",
"918 95 OFFCURVE",
"918 333 CURVE SMOOTH",
"918 472 LINE",
"582 472 LINE",
"582 330 LINE SMOOTH",
"582 252 OFFCURVE",
"541 238 OFFCURVE",
"506 238 CURVE SMOOTH",
"472 238 OFFCURVE",
"441 264 OFFCURVE",
"441 341 CURVE SMOOTH",
"441 567 LINE",
"918 567 LINE",
"918 846 LINE SMOOTH",
"918 1086 OFFCURVE",
"757 1206 OFFCURVE",
"506 1206 CURVE SMOOTH",
"257 1206 OFFCURVE",
"78 1069 OFFCURVE",
"78 831 CURVE SMOOTH",
"78 353 LINE SMOOTH",
"78 115 OFFCURVE",
"257 -22 OFFCURVE",
"506 -22 CURVE SMOOTH"
);
},
{
closed = 1;
nodes = (
"441 844 LINE SMOOTH",
"441 923 OFFCURVE",
"473 946 OFFCURVE",
"506 946 CURVE SMOOTH",
"541 946 OFFCURVE",
"582 933 OFFCURVE",
"582 854 CURVE SMOOTH",
"582 733 LINE",
"441 733 LINE"
);
}
);
width = 991;
}
);
leftKerningGroup = e;
rightKerningGroup = e;
unicode = 0065;
userData = {
com.fontlab.hintData = {
hhints = (
{
position = -22;
width = 263;
},
{
position = 943;
width = 263;
}
);
vhints = (
{
position = 72;
width = 368;
}
);
};
com.typemytype.robofont.layerData = {
b = {
anchors = (
);
components = (
);
contours = (
);
lib = {
};
name = e;
unicodes = (
);
width = 996;
};
};
};
},
{
glyphname = f;
lastChange = "2016-08-02 09:57:56 +0000";
layers = (
{
layerId = "FCD7E481-103E-4A6C-AD70-01DA443B2AD0";
paths = (
{
closed = 1;
nodes = (
"303 0 LINE",
"303 1107 LINE",
"501 1107 LINE",
"501 1184 LINE",
"303 1184 LINE",
"303 1346 LINE SMOOTH",
"303 1475 OFFCURVE",
"317 1527 OFFCURVE",
"409 1527 CURVE SMOOTH",
"435 1527 OFFCURVE",
"469 1520 OFFCURVE",
"496 1515 CURVE",
"496 1598 LINE",
"463 1607 OFFCURVE",
"422 1612 OFFCURVE",
"387 1612 CURVE SMOOTH",
"208 1612 OFFCURVE",
"195 1494 OFFCURVE",
"195 1344 CURVE SMOOTH",
"195 1184 LINE",
"35 1184 LINE",
"35 1107 LINE",
"195 1107 LINE",
"195 0 LINE"
);
}
);
width = 525;
},
{
associatedMasterId = "FCD7E481-103E-4A6C-AD70-01DA443B2AD0";
layerId = "93ADD118-AC46-4D1F-A501-A5E32E8290F7";
name = b;
width = 679;
},
{
layerId = "8AC5A1D3-32A8-4416-86FC-94176A419B8F";
paths = (
{
closed = 1;
nodes = (
"399 0 LINE",
"399 1021 LINE",
"580 1021 LINE",
"580 1184 LINE",
"399 1184 LINE",
"399 1283 LINE SMOOTH",
"399 1374 OFFCURVE",
"412 1435 OFFCURVE",
"498 1435 CURVE SMOOTH",
"522 1435 OFFCURVE",
"555 1428 OFFCURVE",
"579 1425 CURVE",
"579 1589 LINE",
"523 1596 OFFCURVE",
"492 1600 OFFCURVE",
"437 1600 CURVE SMOOTH",
"214 1600 OFFCURVE",
"181 1464 OFFCURVE",
"181 1245 CURVE SMOOTH",
"181 1184 LINE",
"38 1184 LINE",
"38 1021 LINE",
"181 1021 LINE",
"181 0 LINE"
);
}
);
width = 588;
},
{
layerId = "3FB85DAF-C7EF-4F81-BE96-1E190958879E";
paths = (
{
closed = 1;
nodes = (
"504 0 LINE",
"504 941 LINE",
"646 941 LINE",
"646 1184 LINE",
"504 1184 LINE",
"504 1278 LINE SMOOTH",
"504 1335 OFFCURVE",
"538 1351 OFFCURVE",
"578 1351 CURVE SMOOTH",
"602 1351 OFFCURVE",
"628 1345 OFFCURVE",
"646 1342 CURVE",
"646 1614 LINE",
"584 1621 OFFCURVE",
"531 1624 OFFCURVE",
"482 1624 CURVE SMOOTH",
"176 1624 OFFCURVE",
"138 1485 OFFCURVE",
"138 1280 CURVE SMOOTH",
"138 1184 LINE",
"33 1184 LINE",
"33 941 LINE",
"138 941 LINE",
"138 0 LINE"
);
}
);
width = 676;
}
);
leftKerningGroup = f;
rightKerningGroup = f;
unicode = 0066;
userData = {
com.fontlab.hintData = {
hhints = (
{
position = 1348;
width = 277;
}
);
vhints = (
{
position = 16;
width = 615;
}
);
};
com.typemytype.robofont.layerData = {
b = {
anchors = (
);
components = (
);
contours = (
);
lib = {
};
name = f;
unicodes = (
);
width = 679;
};
};
};
},
{
glyphname = g;
lastChange = "2016-08-02 09:57:56 +0000";
layers = (
{
layerId = "FCD7E481-103E-4A6C-AD70-01DA443B2AD0";
paths = (
{
closed = 1;
nodes = (
"616 -401 OFFCURVE",
"794 -325 OFFCURVE",
"794 -139 CURVE SMOOTH",
"794 13 OFFCURVE",
"677 83 OFFCURVE",
"484 125 CURVE SMOOTH",
"448 134 OFFCURVE",
"348 149 OFFCURVE",
"290 165 CURVE SMOOTH",
"233 177 OFFCURVE",
"192 191 OFFCURVE",
"192 206 CURVE SMOOTH",
"192 254 OFFCURVE",
"264 344 OFFCURVE",
"297 398 CURVE",
"326 386 OFFCURVE",
"378 376 OFFCURVE",
"423 376 CURVE SMOOTH",
"656 376 OFFCURVE",
"749 557 OFFCURVE",
"749 792 CURVE SMOOTH",
"749 842 OFFCURVE",
"732 941 OFFCURVE",
"711 993 CURVE",
"752 1044 OFFCURVE",
"830 1095 OFFCURVE",
"902 1113 CURVE",
"870 1195 LINE",
"841 1183 LINE",
"773 1156 OFFCURVE",
"709 1096 OFFCURVE",
"681 1045 CURVE",
"639 1124 OFFCURVE",
"566 1203 OFFCURVE",
"420 1203 CURVE SMOOTH",
"187 1203 OFFCURVE",
"91 990 OFFCURVE",
"91 795 CURVE SMOOTH",
"91 647 OFFCURVE",
"128 511 OFFCURVE",
"246 428 CURVE",
"189 363 OFFCURVE",
"99 253 OFFCURVE",
"99 173 CURVE SMOOTH",
"99 131 OFFCURVE",
"183 98 OFFCURVE",
"242 83 CURVE",
"140 30 OFFCURVE",
"30 -72 OFFCURVE",
"30 -192 CURVE SMOOTH",
"30 -334 OFFCURVE",
"165 -401 OFFCURVE",
"414 -401 CURVE SMOOTH"
);
},
{
closed = 1;
nodes = (
"228 -313 OFFCURVE",
"124 -270 OFFCURVE",
"124 -166 CURVE SMOOTH",
"124 -54 OFFCURVE",
"243 25 OFFCURVE",
"313 65 CURVE",
"443 43 LINE SMOOTH",
"661 -3 OFFCURVE",
"703 -55 OFFCURVE",
"703 -142 CURVE SMOOTH",
"703 -263 OFFCURVE",
"574 -313 OFFCURVE",
"413 -313 CURVE SMOOTH"
);
},
{
closed = 1;
nodes = (
"221 456 OFFCURVE",
"191 668 OFFCURVE",
"191 795 CURVE SMOOTH",
"191 905 OFFCURVE",
"232 1123 OFFCURVE",
"422 1123 CURVE SMOOTH",
"611 1123 OFFCURVE",
"650 919 OFFCURVE",
"650 795 CURVE SMOOTH",
"650 664 OFFCURVE",
"626 456 OFFCURVE",
"423 456 CURVE SMOOTH"
);
}
);
width = 878;
},
{
associatedMasterId = "FCD7E481-103E-4A6C-AD70-01DA443B2AD0";
layerId = "365939DD-709A-477B-88E6-CE2DBDA63764";
name = b;
width = 873;
},
{
layerId = "8AC5A1D3-32A8-4416-86FC-94176A419B8F";
paths = (
{
closed = 1;
nodes = (
"715 -367 OFFCURVE",
"829 -287 OFFCURVE",
"829 -71 CURVE SMOOTH",
"829 106 OFFCURVE",
"733 200 OFFCURVE",
"555 217 CURVE SMOOTH",
"550 218 OFFCURVE",
"379 232 OFFCURVE",
"371 234 CURVE SMOOTH",
"302 240 OFFCURVE",
"272 255 OFFCURVE",
"272 286 CURVE SMOOTH",
"272 317 OFFCURVE",
"297 353 OFFCURVE",
"311 377 CURVE",
"315 376 OFFCURVE",
"397 362 OFFCURVE",
"423 362 CURVE SMOOTH",
"672 362 OFFCURVE",
"751 531 OFFCURVE",
"751 772 CURVE SMOOTH",
"751 839 OFFCURVE",
"734 942 OFFCURVE",
"714 990 CURVE",
"736 1008 OFFCURVE",
"863 1054 OFFCURVE",
"915 1065 CURVE",
"861 1207 LINE",
"827 1192 LINE",
"747 1155 OFFCURVE",
"681 1090 OFFCURVE",
"667 1070 CURVE",
"626 1155 OFFCURVE",
"550 1200 OFFCURVE",
"423 1200 CURVE SMOOTH",
"204 1200 OFFCURVE",
"91 1055 OFFCURVE",
"91 779 CURVE SMOOTH",
"91 590 OFFCURVE",
"138 494 OFFCURVE",
"228 425 CURVE",
"146 353 OFFCURVE",
"96 299 OFFCURVE",
"96 211 CURVE SMOOTH",
"96 157 OFFCURVE",
"134 107 OFFCURVE",
"211 83 CURVE",
"123 36 OFFCURVE",
"40 -51 OFFCURVE",
"40 -183 CURVE SMOOTH",
"40 -350 OFFCURVE",
"252 -367 OFFCURVE",
"479 -367 CURVE SMOOTH"
);
},
{
closed = 1;
nodes = (
"261 -194 OFFCURVE",
"226 -162 OFFCURVE",
"226 -95 CURVE SMOOTH",
"226 -23 OFFCURVE",
"288 39 OFFCURVE",
"313 59 CURVE",
"500 44 LINE SMOOTH",
"628 31 OFFCURVE",
"662 -6 OFFCURVE",
"662 -77 CURVE SMOOTH",
"662 -159 OFFCURVE",
"602 -194 OFFCURVE",
"476 -194 CURVE SMOOTH"
);
},
{
closed = 1;
nodes = (
"301 517 OFFCURVE",
"281 631 OFFCURVE",
"281 779 CURVE SMOOTH",
"281 951 OFFCURVE",
"304 1048 OFFCURVE",
"426 1048 CURVE SMOOTH",
"549 1048 OFFCURVE",
"565 944 OFFCURVE",
"565 779 CURVE SMOOTH",
"565 613 OFFCURVE",
"548 517 OFFCURVE",
"423 517 CURVE SMOOTH"
);
}
);
width = 891;
},
{
layerId = "3FB85DAF-C7EF-4F81-BE96-1E190958879E";
paths = (
{
closed = 1;
nodes = (
"922 -352 OFFCURVE",
"1020 -210 OFFCURVE",
"1020 -40 CURVE SMOOTH",
"1020 118 OFFCURVE",
"950 206 OFFCURVE",
"697 243 CURVE SMOOTH",
"582 259 OFFCURVE",
"481 272 OFFCURVE",
"415 283 CURVE SMOOTH",
"346 295 OFFCURVE",
"307 308 OFFCURVE",
"302 326 CURVE SMOOTH",
"296 349 OFFCURVE",
"314 378 OFFCURVE",
"340 410 CURVE",
"397 385 OFFCURVE",
"477 368 OFFCURVE",
"555 368 CURVE SMOOTH",
"830 368 OFFCURVE",
"964 523 OFFCURVE",
"964 770 CURVE SMOOTH",
"964 897 OFFCURVE",
"928 968 OFFCURVE",
"897 1006 CURVE",
"962 1044 OFFCURVE",
"1061 1092 OFFCURVE",
"1095 1104 CURVE",
"1011 1270 LINE",
"964 1247 LINE",
"907 1215 OFFCURVE",
"850 1163 OFFCURVE",
"803 1110 CURVE",
"745 1173 OFFCURVE",
"637 1206 OFFCURVE",
"525 1206 CURVE SMOOTH",
"258 1206 OFFCURVE",
"86 1074 OFFCURVE",
"86 765 CURVE SMOOTH",
"86 625 OFFCURVE",
"139 543 OFFCURVE",
"213 490 CURVE",
"123 420 OFFCURVE",
"40 347 OFFCURVE",
"63 245 CURVE SMOOTH",
"75 193 OFFCURVE",
"114 155 OFFCURVE",
"224 112 CURVE",
"150 55 OFFCURVE",
"54 -23 OFFCURVE",
"54 -113 CURVE SMOOTH",
"54 -336 OFFCURVE",
"395 -352 OFFCURVE",
"571 -352 CURVE SMOOTH"
);
},
{
closed = 1;
nodes = (
"451 -137 OFFCURVE",
"401 -108 OFFCURVE",
"401 -51 CURVE SMOOTH",
"401 -16 OFFCURVE",
"422 25 OFFCURVE",
"442 57 CURVE",
"615 32 LINE SMOOTH",
"706 20 OFFCURVE",
"741 -2 OFFCURVE",
"730 -74 CURVE SMOOTH",
"723 -120 OFFCURVE",
"674 -137 OFFCURVE",
"570 -137 CURVE SMOOTH"
);
},
{
closed = 1;
nodes = (
"464 579 OFFCURVE",
"457 650 OFFCURVE",
"457 787 CURVE SMOOTH",
"457 918 OFFCURVE",
"454 994 OFFCURVE",
"532 994 CURVE SMOOTH",
"609 994 OFFCURVE",
"612 937 OFFCURVE",
"612 787 CURVE SMOOTH",
"612 640 OFFCURVE",
"603 579 OFFCURVE",
"533 579 CURVE SMOOTH"
);
}
);
width = 1065;
}
);
leftKerningGroup = g;
rightKerningGroup = g;
unicode = 0067;
userData = {
com.fontlab.hintData = {
hhints = (
{
position = -352;
width = 217;
},
{
position = 368;
width = 213;
},
{
position = 992;
width = 214;
}
);
vhints = (
{
position = 42;
width = 353;
},
{
position = 73;
width = 378;
},
{
position = 602;
width = 358;
}
);
};
com.typemytype.robofont.layerData = {
b = {
anchors = (
);
components = (
);
contours = (
);
lib = {
};
name = g;
unicodes = (
);
width = 873;
};
};
};
},
{
glyphname = gcommaaccent;
lastChange = "2016-08-02 09:57:56 +0000";
layers = (
{
layerId = "FCD7E481-103E-4A6C-AD70-01DA443B2AD0";
paths = (
{
closed = 1;
nodes = (
"612 -407 OFFCURVE",
"802 -324 OFFCURVE",
"802 -150 CURVE SMOOTH",
"802 -6 OFFCURVE",
"684 57 OFFCURVE",
"478 108 CURVE SMOOTH",
"420 121 OFFCURVE",
"346 136 OFFCURVE",
"268 156 CURVE SMOOTH",
"213 170 OFFCURVE",
"170 184 OFFCURVE",
"169 193 CURVE SMOOTH",
"168 244 OFFCURVE",
"249 346 OFFCURVE",
"289 407 CURVE",
"330 389 OFFCURVE",
"375 380 OFFCURVE",
"431 380 CURVE SMOOTH",
"665 380 OFFCURVE",
"768 561 OFFCURVE",
"768 796 CURVE SMOOTH",
"768 850 OFFCURVE",
"748 945 OFFCURVE",
"726 997 CURVE",
"776 1057 OFFCURVE",
"840 1110 OFFCURVE",
"914 1129 CURVE",
"883 1201 LINE",
"853 1189 LINE",
"791 1164 OFFCURVE",
"729 1108 OFFCURVE",
"693 1045 CURVE",
"648 1120 OFFCURVE",
"571 1204 OFFCURVE",
"424 1204 CURVE SMOOTH",
"181 1204 OFFCURVE",
"81 977 OFFCURVE",
"81 797 CURVE SMOOTH",
"81 664 OFFCURVE",
"116 522 OFFCURVE",
"238 437 CURVE",
"186 374 OFFCURVE",
"82 249 OFFCURVE",
"86 169 CURVE SMOOTH",
"87 130 OFFCURVE",
"182 102 OFFCURVE",
"241 87 CURVE",
"138 31 OFFCURVE",
"20 -73 OFFCURVE",
"20 -185 CURVE SMOOTH",
"20 -328 OFFCURVE",
"156 -407 OFFCURVE",
"403 -407 CURVE SMOOTH"
);
},
{
closed = 1;
nodes = (
"237 -332 OFFCURVE",
"116 -287 OFFCURVE",
"116 -176 CURVE SMOOTH",
"116 -60 OFFCURVE",
"242 20 OFFCURVE",
"321 66 CURVE",
"436 41 LINE SMOOTH",
"669 -12 OFFCURVE",
"714 -66 OFFCURVE",
"712 -156 CURVE SMOOTH",
"711 -281 OFFCURVE",
"568 -332 OFFCURVE",
"403 -332 CURVE SMOOTH"
);
},
{
closed = 1;
nodes = (
"215 451 OFFCURVE",
"186 679 OFFCURVE",
"186 800 CURVE SMOOTH",
"186 891 OFFCURVE",
"227 1133 OFFCURVE",
"426 1133 CURVE SMOOTH",
"623 1133 OFFCURVE",
"666 913 OFFCURVE",
"666 799 CURVE SMOOTH",
"666 679 OFFCURVE",
"641 451 OFFCURVE",
"428 451 CURVE SMOOTH"
);
},
{
closed = 1;
nodes = (
"591 1499 LINE",
"591 1652 LINE",
"517 1652 LINE",
"517 1696 OFFCURVE",
"532 1786 OFFCURVE",
"600 1843 CURVE",
"585 1872 LINE",
"497 1819 OFFCURVE",
"462 1751 OFFCURVE",
"462 1619 CURVE SMOOTH",
"462 1499 LINE"
);
}
);
width = 901;
},
{
layerId = "8AC5A1D3-32A8-4416-86FC-94176A419B8F";
paths = (
{
closed = 1;
nodes = (
"724 -387 OFFCURVE",
"880 -281 OFFCURVE",
"880 -109 CURVE SMOOTH",
"880 40 OFFCURVE",
"780 111 OFFCURVE",
"556 157 CURVE SMOOTH",
"475 172 OFFCURVE",
"392 186 OFFCURVE",
"318 204 CURVE SMOOTH",
"258 217 OFFCURVE",
"216 230 OFFCURVE",
"214 242 CURVE SMOOTH",
"211 283 OFFCURVE",
"268 358 OFFCURVE",
"303 408 CURVE",
"351 388 OFFCURVE",
"409 376 OFFCURVE",
"474 376 CURVE SMOOTH",
"723 376 OFFCURVE",
"838 547 OFFCURVE",
"838 787 CURVE SMOOTH",
"838 868 OFFCURVE",
"812 954 OFFCURVE",
"787 1000 CURVE",
"844 1053 OFFCURVE",
"920 1104 OFFCURVE",
"978 1120 CURVE",
"928 1227 LINE",
"892 1211 LINE",
"831 1184 OFFCURVE",
"771 1129 OFFCURVE",
"731 1070 CURVE",
"681 1140 OFFCURVE",
"592 1205 OFFCURVE",
"458 1205 CURVE SMOOTH",
"205 1205 OFFCURVE",
"78 1013 OFFCURVE",
"78 785 CURVE SMOOTH",
"78 651 OFFCURVE",
"120 530 OFFCURVE",
"224 458 CURVE",
"157 392 OFFCURVE",
"61 286 OFFCURVE",
"72 198 CURVE SMOOTH",
"78 154 OFFCURVE",
"152 122 OFFCURVE",
"230 97 CURVE",
"138 40 OFFCURVE",
"28 -54 OFFCURVE",
"28 -157 CURVE SMOOTH",
"28 -331 OFFCURVE",
"241 -387 OFFCURVE",
"461 -387 CURVE SMOOTH"
);
},
{
closed = 1;
nodes = (
"314 -260 OFFCURVE",
"218 -220 OFFCURVE",
"218 -130 CURVE SMOOTH",
"218 -44 OFFCURVE",
"305 21 OFFCURVE",
"363 63 CURVE",
"499 38 LINE SMOOTH",
"679 -1 OFFCURVE",
"720 -42 OFFCURVE",
"715 -126 CURVE SMOOTH",
"712 -221 OFFCURVE",
"604 -260 OFFCURVE",
"461 -260 CURVE SMOOTH"
);
},
{
closed = 1;
nodes = (
"304 499 OFFCURVE",
"283 669 OFFCURVE",
"283 795 CURVE SMOOTH",
"283 900 OFFCURVE",
"308 1081 OFFCURVE",
"461 1081 CURVE SMOOTH",
"614 1081 OFFCURVE",
"642 922 OFFCURVE",
"642 795 CURVE SMOOTH",
"642 665 OFFCURVE",
"623 499 OFFCURVE",
"464 499 CURVE SMOOTH"
);
},
{
closed = 1;
nodes = (
"640 1492 LINE",
"640 1714 LINE",
"522 1714 LINE",
"522 1790 OFFCURVE",
"562 1859 OFFCURVE",
"632 1901 CURVE",
"617 1960 LINE",
"490 1926 OFFCURVE",
"432 1838 OFFCURVE",
"432 1673 CURVE SMOOTH",
"432 1492 LINE"
);
}
);
width = 901;
},
{
layerId = "3FB85DAF-C7EF-4F81-BE96-1E190958879E";
paths = (
{
closed = 1;
nodes = (
"910 -353 OFFCURVE",
"1010 -210 OFFCURVE",
"1010 -42 CURVE SMOOTH",
"1010 115 OFFCURVE",
"940 202 OFFCURVE",
"684 240 CURVE SMOOTH",
"567 257 OFFCURVE",
"470 270 OFFCURVE",
"401 282 CURVE SMOOTH",
"332 294 OFFCURVE",
"292 307 OFFCURVE",
"287 324 CURVE SMOOTH",
"281 348 OFFCURVE",
"300 378 OFFCURVE",
"327 411 CURVE",
"386 385 OFFCURVE",
"465 368 OFFCURVE",
"545 368 CURVE SMOOTH",
"820 368 OFFCURVE",
"956 524 OFFCURVE",
"956 771 CURVE SMOOTH",
"956 898 OFFCURVE",
"919 968 OFFCURVE",
"888 1007 CURVE",
"955 1046 OFFCURVE",
"1051 1094 OFFCURVE",
"1085 1107 CURVE",
"1001 1271 LINE",
"955 1248 LINE",
"898 1217 OFFCURVE",
"841 1165 OFFCURVE",
"794 1110 CURVE",
"735 1173 OFFCURVE",
"627 1206 OFFCURVE",
"514 1206 CURVE SMOOTH",
"245 1206 OFFCURVE",
"73 1072 OFFCURVE",
"73 766 CURVE SMOOTH",
"73 628 OFFCURVE",
"126 544 OFFCURVE",
"200 492 CURVE",
"111 422 OFFCURVE",
"26 347 OFFCURVE",
"50 244 CURVE SMOOTH",
"62 193 OFFCURVE",
"103 156 OFFCURVE",
"213 112 CURVE",
"138 55 OFFCURVE",
"42 -23 OFFCURVE",
"42 -112 CURVE SMOOTH",
"42 -335 OFFCURVE",
"382 -353 OFFCURVE",
"557 -353 CURVE SMOOTH"
);
},
{
closed = 1;
nodes = (
"441 -140 OFFCURVE",
"389 -110 OFFCURVE",
"389 -53 CURVE SMOOTH",
"389 -17 OFFCURVE",
"410 24 OFFCURVE",
"431 57 CURVE",
"602 32 LINE SMOOTH",
"695 18 OFFCURVE",
"732 -3 OFFCURVE",
"720 -76 CURVE SMOOTH",
"713 -123 OFFCURVE",
"662 -140 OFFCURVE",
"557 -140 CURVE SMOOTH"
);
},
{
closed = 1;
nodes = (
"451 578 OFFCURVE",
"445 652 OFFCURVE",
"445 787 CURVE SMOOTH",
"445 915 OFFCURVE",
"442 995 OFFCURVE",
"521 995 CURVE SMOOTH",
"600 995 OFFCURVE",
"603 936 OFFCURVE",
"603 787 CURVE SMOOTH",
"603 642 OFFCURVE",
"594 578 OFFCURVE",
"523 578 CURVE SMOOTH"
);
},
{
closed = 1;
nodes = (
"722 1480 LINE",
"722 1817 LINE",
"531 1817 LINE",
"531 1945 OFFCURVE",
"612 1980 OFFCURVE",
"684 1997 CURVE",
"669 2106 LINE",
"478 2104 OFFCURVE",
"383 1983 OFFCURVE",
"382 1763 CURVE SMOOTH",
"382 1480 LINE"
);
}
);
width = 901;
}
);
leftKerningGroup = g;
rightKerningGroup = g;
unicode = 0123;
userData = {
com.fontlab.hintData = {
hhints = (
{
position = -352;
width = 217;
},
{
position = 368;
width = 213;
},
{
position = 992;
width = 214;
},
{
position = 2001;
width = 111;
}
);
vhints = (
{
position = 42;
width = 353;
},
{
position = 73;
width = 378;
},
{
position = 380;
width = 151;
},
{
position = 602;
width = 358;
}
);
};
};
},
{
glyphname = h;
lastChange = "2016-08-02 09:57:56 +0000";
layers = (
{
layerId = "FCD7E481-103E-4A6C-AD70-01DA443B2AD0";
paths = (
{
closed = 1;
nodes = (
"226 0 LINE",
"226 988 LINE",
"296 1064 OFFCURVE",
"380 1118 OFFCURVE",
"460 1118 CURVE SMOOTH",
"536 1118 OFFCURVE",
"584 1077 OFFCURVE",
"584 932 CURVE SMOOTH",
"584 0 LINE",
"694 0 LINE",
"694 944 LINE SMOOTH",
"694 1133 OFFCURVE",
"613 1203 OFFCURVE",
"507 1203 CURVE SMOOTH",
"399 1203 OFFCURVE",
"301 1145 OFFCURVE",
"226 1058 CURVE",
"226 1658 LINE",
"117 1658 LINE",
"117 0 LINE"
);
}
);
width = 802;
},
{
associatedMasterId = "FCD7E481-103E-4A6C-AD70-01DA443B2AD0";
layerId = "0B3A8EAD-9463-4001-8320-4ED4E0BE02A9";
name = b;
width = 1087;
},
{
layerId = "8AC5A1D3-32A8-4416-86FC-94176A419B8F";
paths = (
{
closed = 1;
nodes = (
"335 0 LINE",
"335 950 LINE",
"386 993 OFFCURVE",
"444 1028 OFFCURVE",
"496 1028 CURVE SMOOTH",
"572 1028 OFFCURVE",
"589 978 OFFCURVE",
"589 894 CURVE SMOOTH",
"589 0 LINE",
"808 0 LINE",
"808 958 LINE SMOOTH",
"808 1073 OFFCURVE",
"772 1200 OFFCURVE",
"632 1200 CURVE SMOOTH",
"513 1200 OFFCURVE",
"415 1137 OFFCURVE",
"335 1061 CURVE",
"335 1658 LINE",
"116 1658 LINE",
"116 0 LINE"
);
}
);
width = 912;
},
{
layerId = "3FB85DAF-C7EF-4F81-BE96-1E190958879E";
paths = (
{
closed = 1;
nodes = (
"469 0 LINE",
"469 917 LINE",
"506 940 OFFCURVE",
"538 949 OFFCURVE",
"561 951 CURVE SMOOTH",
"606 953 OFFCURVE",
"620 926 OFFCURVE",
"620 876 CURVE SMOOTH",
"620 0 LINE",
"986 0 LINE",
"986 919 LINE SMOOTH",
"986 1090 OFFCURVE",
"900 1206 OFFCURVE",
"755 1206 CURVE SMOOTH",
"653 1206 OFFCURVE",
"560 1176 OFFCURVE",
"469 1084 CURVE",
"469 1658 LINE",
"103 1658 LINE",
"103 0 LINE"
);
}
);
width = 1081;
}
);
leftKerningGroup = h;
rightKerningGroup = h;
unicode = 0068;
userData = {
com.typemytype.robofont.layerData = {
b = {
anchors = (
);
components = (
);
contours = (
);
lib = {
};
name = h;
unicodes = (
);
width = 1087;
};
};
};
},
{
glyphname = hbar;
lastChange = "2016-08-02 09:57:56 +0000";
layers = (
{
layerId = "FCD7E481-103E-4A6C-AD70-01DA443B2AD0";
paths = (
{
closed = 1;
nodes = (
"225 0 LINE",
"225 988 LINE",
"294 1064 OFFCURVE",
"379 1118 OFFCURVE",
"459 1118 CURVE SMOOTH",
"534 1118 OFFCURVE",
"583 1077 OFFCURVE",
"583 932 CURVE SMOOTH",
"583 0 LINE",
"692 0 LINE",
"692 944 LINE SMOOTH",
"692 1133 OFFCURVE",
"611 1203 OFFCURVE",
"506 1203 CURVE SMOOTH",
"398 1203 OFFCURVE",
"300 1145 OFFCURVE",
"225 1058 CURVE",
"225 1436 LINE",
"467 1436 LINE",
"467 1506 LINE",
"225 1506 LINE",
"225 1658 LINE",
"116 1658 LINE",
"116 1506 LINE",
"-18 1506 LINE",
"-18 1436 LINE",
"116 1436 LINE",
"116 0 LINE"
);
}
);
width = 801;
},
{
associatedMasterId = "FCD7E481-103E-4A6C-AD70-01DA443B2AD0";
layerId = "96324D6F-9FAD-426A-A417-8F462CF01042";
name = b;
width = 1089;
},
{
layerId = "8AC5A1D3-32A8-4416-86FC-94176A419B8F";
paths = (
{
closed = 1;
nodes = (
"335 0 LINE",
"335 950 LINE",
"386 993 OFFCURVE",
"444 1028 OFFCURVE",
"495 1028 CURVE SMOOTH",
"572 1028 OFFCURVE",
"589 978 OFFCURVE",
"589 894 CURVE SMOOTH",
"589 0 LINE",
"808 0 LINE",
"808 958 LINE SMOOTH",
"808 1073 OFFCURVE",
"772 1200 OFFCURVE",
"631 1200 CURVE SMOOTH",
"512 1200 OFFCURVE",
"414 1137 OFFCURVE",
"335 1061 CURVE",
"335 1414 LINE",
"585 1414 LINE",
"585 1537 LINE",
"335 1537 LINE",
"335 1658 LINE",
"116 1658 LINE",
"116 1537 LINE",
"-13 1537 LINE",
"-13 1414 LINE",
"116 1414 LINE",
"116 0 LINE"
);
}
);
width = 912;
},
{
layerId = "3FB85DAF-C7EF-4F81-BE96-1E190958879E";
paths = (
{
closed = 1;
nodes = (
"471 0 LINE",
"471 917 LINE",
"508 940 OFFCURVE",
"540 949 OFFCURVE",
"563 951 CURVE SMOOTH",
"608 953 OFFCURVE",
"622 926 OFFCURVE",
"622 876 CURVE SMOOTH",
"622 0 LINE",
"988 0 LINE",
"988 919 LINE SMOOTH",
"988 1090 OFFCURVE",
"902 1206 OFFCURVE",
"757 1206 CURVE SMOOTH",
"655 1206 OFFCURVE",
"562 1176 OFFCURVE",
"471 1084 CURVE",
"471 1363 LINE",
"708 1363 LINE",
"708 1525 LINE",
"471 1525 LINE",
"471 1658 LINE",
"104 1658 LINE",
"104 1525 LINE",
"19 1525 LINE",
"19 1363 LINE",
"104 1363 LINE",
"104 0 LINE"
);
}
);
width = 1083;
}
);
unicode = 0127;
userData = {
com.typemytype.robofont.layerData = {
b = {
anchors = (
);
components = (
);
contours = (
);
lib = {
};
name = hbar;
unicodes = (
);
width = 1089;
};
};
};
},
{
glyphname = i;
lastChange = "2016-08-02 09:57:56 +0000";
layers = (
{
layerId = "FCD7E481-103E-4A6C-AD70-01DA443B2AD0";
paths = (
{
closed = 1;
nodes = (
"243 0 LINE",
"243 1184 LINE",
"134 1184 LINE",
"134 0 LINE"
);
},
{
closed = 1;
nodes = (
"243 1339 LINE",
"243 1528 LINE",
"134 1528 LINE",
"134 1339 LINE"
);
}
);
width = 388;
},
{
associatedMasterId = "FCD7E481-103E-4A6C-AD70-01DA443B2AD0";
layerId = "2AF6B5B3-4A77-4AFD-8D99-6C7C98E4A942";
name = b;
width = 570;
},
{
layerId = "8AC5A1D3-32A8-4416-86FC-94176A419B8F";
paths = (
{
closed = 1;
nodes = (
"344 0 LINE",
"344 1184 LINE",
"125 1184 LINE",
"125 0 LINE"
);
},
{
closed = 1;
nodes = (
"345 1359 LINE",
"345 1589 LINE",
"125 1589 LINE",
"125 1359 LINE"
);
}
);
width = 468;
},
{
layerId = "3FB85DAF-C7EF-4F81-BE96-1E190958879E";
paths = (
{
closed = 1;
nodes = (
"468 0 LINE",
"468 1184 LINE",
"101 1184 LINE",
"101 0 LINE"
);
},
{
closed = 1;
nodes = (
"468 1390 LINE",
"468 1625 LINE",
"99 1625 LINE",
"99 1390 LINE"
);
}
);
width = 566;
}
);
leftKerningGroup = i;
rightKerningGroup = i;
unicode = 0069;
userData = {
com.typemytype.robofont.layerData = {
b = {
anchors = (
);
components = (
);
contours = (
);
lib = {
};
name = i;
unicodes = (
);
width = 570;
};
};
};
},
{
glyphname = dotlessi;
lastChange = "2016-08-02 09:57:56 +0000";
layers = (
{
layerId = "FCD7E481-103E-4A6C-AD70-01DA443B2AD0";
paths = (
{
closed = 1;
nodes = (
"242 0 LINE",
"242 1184 LINE",
"133 1184 LINE",
"133 0 LINE"
);
}
);
width = 372;
},
{
layerId = "8AC5A1D3-32A8-4416-86FC-94176A419B8F";
paths = (
{
closed = 1;
nodes = (
"344 0 LINE",
"344 1184 LINE",
"125 1184 LINE",
"125 0 LINE"
);
}
);
width = 459;
},
{
layerId = "3FB85DAF-C7EF-4F81-BE96-1E190958879E";
paths = (
{
closed = 1;
nodes = (
"487 0 LINE",
"487 1184 LINE",
"120 1184 LINE",
"120 0 LINE"
);
}
);
width = 606;
}
);
unicode = 0131;
userData = {
com.fontlab.hintData = {
vhints = (
{
position = 120;
width = 372;
}
);
};
};
},
{
glyphname = j;
lastChange = "2016-08-02 09:57:56 +0000";
layers = (
{
layerId = "FCD7E481-103E-4A6C-AD70-01DA443B2AD0";
paths = (
{
closed = 1;
nodes = (
"182 -317 OFFCURVE",
"274 -248 OFFCURVE",
"274 -58 CURVE SMOOTH",
"274 1184 LINE",
"165 1184 LINE",
"165 -51 LINE SMOOTH",
"165 -138 OFFCURVE",
"159 -228 OFFCURVE",
"16 -228 CURVE SMOOTH",
"11 -228 OFFCURVE",
"-28 -227 OFFCURVE",
"-32 -226 CURVE",
"-32 -313 LINE",
"-24 -316 OFFCURVE",
"19 -317 OFFCURVE",
"29 -317 CURVE SMOOTH"
);
},
{
closed = 1;
nodes = (
"275 1339 LINE",
"275 1528 LINE",
"165 1528 LINE",
"165 1339 LINE"
);
}
);
width = 414;
},
{
associatedMasterId = "FCD7E481-103E-4A6C-AD70-01DA443B2AD0";
layerId = "085BC3EB-CEAC-4DBF-B190-8A801A1D6A32";
name = b;
width = 598;
},
{
layerId = "8AC5A1D3-32A8-4416-86FC-94176A419B8F";
paths = (
{
closed = 1;
nodes = (
"251 -299 OFFCURVE",
"361 -198 OFFCURVE",
"361 -13 CURVE SMOOTH",
"361 1184 LINE",
"142 1184 LINE",
"142 10 LINE SMOOTH",
"142 -74 OFFCURVE",
"113 -133 OFFCURVE",
"19 -133 CURVE SMOOTH",
"4 -133 OFFCURVE",
"-25 -130 OFFCURVE",
"-38 -127 CURVE",
"-38 -285 LINE",
"-10 -296 OFFCURVE",
"37 -299 OFFCURVE",
"73 -299 CURVE SMOOTH"
);
},
{
closed = 1;
nodes = (
"362 1359 LINE",
"362 1589 LINE",
"142 1589 LINE",
"142 1359 LINE"
);
}
);
width = 471;
},
{
layerId = "3FB85DAF-C7EF-4F81-BE96-1E190958879E";
paths = (
{
closed = 1;
nodes = (
"393 -389 OFFCURVE",
"495 -250 OFFCURVE",
"495 -63 CURVE SMOOTH",
"495 1184 LINE",
"128 1184 LINE",
"128 -17 LINE SMOOTH",
"128 -85 OFFCURVE",
"92 -105 OFFCURVE",
"47 -105 CURVE SMOOTH",
"28 -105 OFFCURVE",
"8 -100 OFFCURVE",
"-12 -96 CURVE",
"-12 -359 LINE",
"50 -376 OFFCURVE",
"114 -389 OFFCURVE",
"185 -389 CURVE SMOOTH"
);
},
{
closed = 1;
nodes = (
"495 1390 LINE",
"495 1625 LINE",
"126 1625 LINE",
"126 1390 LINE"
);
}
);
width = 593;
}
);
leftKerningGroup = j;
rightKerningGroup = j;
unicode = 006A;
userData = {
com.fontlab.hintData = {
hhints = (
{
position = -393;
width = 289;
}
);
};
com.typemytype.robofont.layerData = {
b = {
anchors = (
);
components = (
);
contours = (
);
lib = {
};
name = j;
unicodes = (
);
width = 598;
};
};
};
},
{
glyphname = uni0237;
lastChange = "2016-08-02 09:57:56 +0000";
layers = (
{
layerId = "FCD7E481-103E-4A6C-AD70-01DA443B2AD0";
paths = (
{
closed = 1;
nodes = (
"182 -325 OFFCURVE",
"274 -256 OFFCURVE",
"274 -66 CURVE SMOOTH",
"274 1184 LINE",
"165 1184 LINE",
"165 -58 LINE SMOOTH",
"165 -146 OFFCURVE",
"159 -235 OFFCURVE",
"16 -235 CURVE SMOOTH",
"11 -235 OFFCURVE",
"-28 -235 OFFCURVE",
"-32 -234 CURVE",
"-32 -321 LINE",
"-24 -324 OFFCURVE",
"19 -325 OFFCURVE",
"29 -325 CURVE SMOOTH"
);
}
);
width = 414;
},
{
layerId = "8AC5A1D3-32A8-4416-86FC-94176A419B8F";
paths = (
{
closed = 1;
nodes = (
"251 -326 OFFCURVE",
"361 -225 OFFCURVE",
"361 -40 CURVE SMOOTH",
"361 1184 LINE",
"142 1184 LINE",
"142 -17 LINE SMOOTH",
"142 -101 OFFCURVE",
"113 -160 OFFCURVE",
"19 -160 CURVE SMOOTH",
"4 -160 OFFCURVE",
"-25 -157 OFFCURVE",
"-38 -154 CURVE",
"-38 -312 LINE",
"-10 -323 OFFCURVE",
"37 -326 OFFCURVE",
"73 -326 CURVE SMOOTH"
);
}
);
width = 471;
},
{
layerId = "3FB85DAF-C7EF-4F81-BE96-1E190958879E";
paths = (
{
closed = 1;
nodes = (
"387 -390 OFFCURVE",
"489 -252 OFFCURVE",
"489 -64 CURVE SMOOTH",
"489 1184 LINE",
"123 1184 LINE",
"123 -19 LINE SMOOTH",
"123 -86 OFFCURVE",
"86 -106 OFFCURVE",
"41 -106 CURVE SMOOTH",
"22 -106 OFFCURVE",
"2 -101 OFFCURVE",
"-18 -97 CURVE",
"-18 -360 LINE",
"44 -377 OFFCURVE",
"108 -390 OFFCURVE",
"179 -390 CURVE SMOOTH"
);
}
);
width = 575;
}
);
unicode = 0237;
userData = {
com.fontlab.hintData = {
hhints = (
{
position = -393;
width = 289;
}
);
};
};
},
{
glyphname = k;
lastChange = "2016-08-02 09:57:56 +0000";
layers = (
{
layerId = "FCD7E481-103E-4A6C-AD70-01DA443B2AD0";
paths = (
{
closed = 1;
nodes = (
"765 0 LINE",
"472 731 LINE",
"783 1184 LINE",
"665 1184 LINE",
"226 566 LINE",
"226 1659 LINE",
"117 1659 LINE",
"117 1 LINE",
"226 1 LINE",
"226 444 LINE",
"390 666 LINE",
"656 0 LINE"
);
}
);
width = 785;
},
{
associatedMasterId = "FCD7E481-103E-4A6C-AD70-01DA443B2AD0";
layerId = "E70678F0-92C3-450C-B581-0AD31B345CD8";
name = b;
width = 1187;
},
{
layerId = "8AC5A1D3-32A8-4416-86FC-94176A419B8F";
paths = (
{
closed = 1;
nodes = (
"874 0 LINE",
"604 720 LINE",
"883 1184 LINE",
"654 1183 LINE",
"333 671 LINE",
"333 1661 LINE",
"114 1661 LINE",
"114 3 LINE",
"333 3 LINE",
"333 454 LINE",
"435 607 LINE",
"656 0 LINE"
);
}
);
width = 878;
},
{
layerId = "3FB85DAF-C7EF-4F81-BE96-1E190958879E";
paths = (
{
closed = 1;
nodes = (
"465 0 LINE",
"465 449 LINE",
"551 550 LINE",
"755 0 LINE",
"1164 0 LINE",
"840 693 LINE",
"1165 1184 LINE",
"747 1184 LINE",
"465 757 LINE",
"465 1658 LINE",
"102 1658 LINE",
"102 0 LINE"
);
}
);
width = 1175;
}
);
leftKerningGroup = k;
rightKerningGroup = k;
unicode = 006B;
userData = {
com.typemytype.robofont.layerData = {
b = {
anchors = (
);
components = (
);
contours = (
);
lib = {
};
name = k;
unicodes = (
);
width = 1187;
};
};
};
},
{
glyphname = kgreenlandic;
lastChange = "2016-08-02 09:57:56 +0000";
layers = (
{
layerId = "FCD7E481-103E-4A6C-AD70-01DA443B2AD0";
paths = (
{
closed = 1;
nodes = (
"240 0 LINE",
"240 439 LINE",
"387 648 LINE",
"664 0 LINE",
"775 0 LINE",
"464 721 LINE",
"769 1184 LINE",
"652 1184 LINE",
"240 565 LINE",
"240 1184 LINE",
"131 1184 LINE",
"131 0 LINE"
);
}
);
width = 841;
},
{
associatedMasterId = "FCD7E481-103E-4A6C-AD70-01DA443B2AD0";
layerId = "755B9717-320A-45E8-A0AA-4C45CBC8FEA1";
name = b;
width = 1095;
},
{
layerId = "8AC5A1D3-32A8-4416-86FC-94176A419B8F";
paths = (
{
closed = 1;
nodes = (
"339 0 LINE",
"339 409 LINE",
"454 582 LINE",
"653 0 LINE",
"873 0 LINE",
"602 732 LINE",
"872 1184 LINE",
"651 1184 LINE",
"339 664 LINE",
"339 1184 LINE",
"121 1184 LINE",
"121 0 LINE"
);
}
);
width = 881;
},
{
layerId = "3FB85DAF-C7EF-4F81-BE96-1E190958879E";
paths = (
{
closed = 1;
nodes = (
"463 0 LINE",
"463 487 LINE",
"500 537 LINE",
"684 0 LINE",
"1073 0 LINE",
"833 634 LINE",
"1067 1184 LINE",
"667 1184 LINE",
"463 699 LINE",
"463 1184 LINE",
"96 1184 LINE",
"96 0 LINE"
);
}
);
width = 1087;
}
);
unicode = 0138;
userData = {
com.typemytype.robofont.layerData = {
b = {
anchors = (
);
components = (
);
contours = (
);
lib = {
};
name = kgreenlandic;
unicodes = (
);
width = 1095;
};
};
};
},
{
glyphname = l;
lastChange = "2016-08-02 09:57:56 +0000";
layers = (
{
layerId = "FCD7E481-103E-4A6C-AD70-01DA443B2AD0";
paths = (
{
closed = 1;
nodes = (
"246 0 LINE",
"246 1658 LINE",
"137 1658 LINE",
"137 0 LINE"
);
}
);
width = 380;
},
{
associatedMasterId = "FCD7E481-103E-4A6C-AD70-01DA443B2AD0";
layerId = "F1BF985C-30B8-498C-8048-FAC765DB4322";
name = b;
width = 344;
},
{
layerId = "8AC5A1D3-32A8-4416-86FC-94176A419B8F";
paths = (
{
closed = 1;
nodes = (
"351 0 LINE",
"351 1658 LINE",
"131 1658 LINE",
"131 0 LINE"
);
}
);
width = 469;
},
{
layerId = "3FB85DAF-C7EF-4F81-BE96-1E190958879E";
paths = (
{
closed = 1;
nodes = (
"480 0 LINE",
"480 1658 LINE",
"114 1658 LINE",
"114 0 LINE"
);
}
);
width = 588;
}
);
leftKerningGroup = l;
rightKerningGroup = l;
unicode = 006C;
userData = {
com.fontlab.hintData = {
vhints = (
{
position = 88;
width = 372;
}
);
};
com.typemytype.robofont.layerData = {
b = {
anchors = (
);
components = (
);
contours = (
);
lib = {
};
name = l;
unicodes = (
);
width = 344;
};
};
};
},
{
glyphname = lslash;
lastChange = "2016-08-02 09:57:56 +0000";
layers = (
{
layerId = "FCD7E481-103E-4A6C-AD70-01DA443B2AD0";
paths = (
{
closed = 1;
nodes = (
"307 0 LINE",
"307 999 LINE",
"431 1068 LINE",
"431 1162 LINE",
"307 1093 LINE",
"307 1658 LINE",
"198 1658 LINE",
"198 1037 LINE",
"72 968 LINE",
"72 873 LINE",
"198 943 LINE",
"198 0 LINE"
);
}
);
width = 505;
},
{
layerId = "8AC5A1D3-32A8-4416-86FC-94176A419B8F";
paths = (
{
closed = 1;
nodes = (
"393 0 LINE",
"393 953 LINE",
"518 1014 LINE",
"518 1183 LINE",
"393 1123 LINE",
"393 1658 LINE",
"174 1658 LINE",
"174 1022 LINE",
"35 956 LINE",
"35 785 LINE",
"174 851 LINE",
"174 0 LINE"
);
}
);
width = 547;
},
{
layerId = "3FB85DAF-C7EF-4F81-BE96-1E190958879E";
paths = (
{
closed = 1;
nodes = (
"544 0 LINE",
"544 1001 LINE",
"710 1070 LINE",
"710 1262 LINE",
"544 1192 LINE",
"544 1658 LINE",
"178 1658 LINE",
"178 1038 LINE",
"43 981 LINE",
"43 789 LINE",
"178 846 LINE",
"178 0 LINE"
);
}
);
width = 723;
}
);
unicode = 0142;
userData = {
com.fontlab.hintData = {
vhints = (
{
position = 44;
width = 673;
}
);
};
};
},
{
glyphname = m;
lastChange = "2016-08-02 09:57:56 +0000";
layers = (
{
layerId = "FCD7E481-103E-4A6C-AD70-01DA443B2AD0";
paths = (
{
closed = 1;
nodes = (
"220 0 LINE",
"220 990 LINE",
"292 1072 OFFCURVE",
"380 1127 OFFCURVE",
"463 1127 CURVE SMOOTH",
"534 1127 OFFCURVE",
"589 1092 OFFCURVE",
"589 939 CURVE SMOOTH",
"589 0 LINE",
"694 0 LINE",
"694 936 LINE SMOOTH",
"694 955 OFFCURVE",
"693 972 OFFCURVE",
"691 988 CURVE",
"763 1071 OFFCURVE",
"852 1127 OFFCURVE",
"936 1127 CURVE SMOOTH",
"1007 1127 OFFCURVE",
"1062 1092 OFFCURVE",
"1062 939 CURVE SMOOTH",
"1062 0 LINE",
"1167 0 LINE",
"1167 936 LINE SMOOTH",
"1167 1148 OFFCURVE",
"1069 1204 OFFCURVE",
"971 1204 CURVE SMOOTH",
"862 1204 OFFCURVE",
"759 1146 OFFCURVE",
"682 1046 CURVE",
"654 1170 OFFCURVE",
"575 1204 OFFCURVE",
"498 1204 CURVE SMOOTH",
"394 1204 OFFCURVE",
"295 1151 OFFCURVE",
"220 1059 CURVE",
"220 1184 LINE",
"116 1184 LINE",
"116 0 LINE"
);
}
);
width = 1275;
},
{
associatedMasterId = "FCD7E481-103E-4A6C-AD70-01DA443B2AD0";
layerId = "C6FAC1BE-CCAC-4BBC-A9CE-EB3A7D35CEFB";
name = b;
width = 1593;
},
{
layerId = "8AC5A1D3-32A8-4416-86FC-94176A419B8F";
paths = (
{
closed = 1;
nodes = (
"313 0 LINE",
"313 964 LINE",
"370 1023 OFFCURVE",
"438 1061 OFFCURVE",
"498 1061 CURVE SMOOTH",
"559 1062 OFFCURVE",
"600 1030 OFFCURVE",
"600 916 CURVE SMOOTH",
"600 0 LINE",
"801 0 LINE",
"801 929 LINE SMOOTH",
"801 942 OFFCURVE",
"801 953 OFFCURVE",
"800 965 CURVE",
"856 1023 OFFCURVE",
"925 1061 OFFCURVE",
"985 1061 CURVE SMOOTH",
"1046 1062 OFFCURVE",
"1087 1030 OFFCURVE",
"1087 916 CURVE SMOOTH",
"1087 0 LINE",
"1289 0 LINE",
"1289 929 LINE SMOOTH",
"1289 1127 OFFCURVE",
"1194 1205 OFFCURVE",
"1079 1205 CURVE SMOOTH",
"971 1205 OFFCURVE",
"868 1157 OFFCURVE",
"784 1055 CURVE",
"753 1165 OFFCURVE",
"677 1205 OFFCURVE",
"592 1205 CURVE SMOOTH",
"491 1205 OFFCURVE",
"393 1161 OFFCURVE",
"313 1072 CURVE",
"313 1184 LINE",
"111 1184 LINE",
"111 0 LINE"
);
}
);
width = 1392;
},
{
layerId = "3FB85DAF-C7EF-4F81-BE96-1E190958879E";
paths = (
{
closed = 1;
nodes = (
"466 0 LINE",
"466 923 LINE",
"500 942 OFFCURVE",
"534 951 OFFCURVE",
"556 952 CURVE SMOOTH",
"599 954 OFFCURVE",
"618 928 OFFCURVE",
"618 877 CURVE SMOOTH",
"618 0 LINE",
"979 0 LINE",
"979 917 LINE SMOOTH",
"979 920 OFFCURVE",
"979 922 OFFCURVE",
"979 925 CURVE",
"1010 943 OFFCURVE",
"1046 951 OFFCURVE",
"1067 952 CURVE SMOOTH",
"1111 954 OFFCURVE",
"1127 928 OFFCURVE",
"1127 877 CURVE SMOOTH",
"1127 0 LINE",
"1491 0 LINE",
"1491 917 LINE SMOOTH",
"1491 1092 OFFCURVE",
"1402 1206 OFFCURVE",
"1258 1206 CURVE SMOOTH",
"1152 1206 OFFCURVE",
"1049 1174 OFFCURVE",
"953 1069 CURVE",
"916 1155 OFFCURVE",
"844 1206 OFFCURVE",
"748 1206 CURVE SMOOTH",
"650 1206 OFFCURVE",
"555 1178 OFFCURVE",
"466 1093 CURVE",
"466 1184 LINE",
"102 1184 LINE",
"102 0 LINE"
);
}
);
width = 1586;
}
);
leftKerningGroup = m;
rightKerningGroup = m;
unicode = 006D;
userData = {
com.typemytype.robofont.layerData = {
b = {
anchors = (
);
components = (
);
contours = (
);
lib = {
};
name = m;
unicodes = (
);
width = 1593;
};
};
};
},
{
glyphname = n;
lastChange = "2016-08-02 09:57:56 +0000";
layers = (
{
layerId = "FCD7E481-103E-4A6C-AD70-01DA443B2AD0";
paths = (
{
closed = 1;
nodes = (
"225 0 LINE",
"225 987 LINE",
"294 1064 OFFCURVE",
"379 1118 OFFCURVE",
"459 1118 CURVE SMOOTH",
"534 1118 OFFCURVE",
"583 1077 OFFCURVE",
"583 932 CURVE SMOOTH",
"583 0 LINE",
"692 0 LINE",
"692 944 LINE SMOOTH",
"692 1133 OFFCURVE",
"611 1203 OFFCURVE",
"506 1203 CURVE SMOOTH",
"398 1203 OFFCURVE",
"300 1145 OFFCURVE",
"225 1057 CURVE",
"225 1184 LINE",
"116 1184 LINE",
"116 0 LINE"
);
}
);
width = 801;
},
{
associatedMasterId = "FCD7E481-103E-4A6C-AD70-01DA443B2AD0";
layerId = "90730BB9-A166-4B05-9450-8E246BC158DC";
name = b;
width = 1087;
},
{
layerId = "8AC5A1D3-32A8-4416-86FC-94176A419B8F";
paths = (
{
closed = 1;
nodes = (
"330 0 LINE",
"330 955 LINE",
"379 996 OFFCURVE",
"434 1028 OFFCURVE",
"483 1028 CURVE SMOOTH",
"560 1028 OFFCURVE",
"577 978 OFFCURVE",
"577 894 CURVE SMOOTH",
"577 0 LINE",
"796 0 LINE",
"796 958 LINE SMOOTH",
"796 1073 OFFCURVE",
"760 1200 OFFCURVE",
"619 1200 CURVE SMOOTH",
"504 1200 OFFCURVE",
"408 1141 OFFCURVE",
"330 1067 CURVE",
"330 1184 LINE",
"111 1184 LINE",
"111 0 LINE"
);
}
);
width = 900;
},
{
layerId = "3FB85DAF-C7EF-4F81-BE96-1E190958879E";
paths = (
{
closed = 1;
nodes = (
"469 0 LINE",
"469 917 LINE",
"506 940 OFFCURVE",
"538 949 OFFCURVE",
"561 951 CURVE SMOOTH",
"605 953 OFFCURVE",
"619 926 OFFCURVE",
"619 876 CURVE SMOOTH",
"619 0 LINE",
"986 0 LINE",
"986 919 LINE SMOOTH",
"986 1090 OFFCURVE",
"899 1206 OFFCURVE",
"754 1206 CURVE SMOOTH",
"652 1206 OFFCURVE",
"560 1156 OFFCURVE",
"469 1065 CURVE",
"469 1184 LINE",
"102 1184 LINE",
"102 0 LINE"
);
}
);
width = 1080;
}
);
leftKerningGroup = n;
rightKerningGroup = n;
unicode = 006E;
userData = {
com.fontlab.hintData = {
};
com.typemytype.robofont.layerData = {
b = {
anchors = (
);
components = (
);
contours = (
);
lib = {
};
name = n;
unicodes = (
);
width = 1087;
};
};
hhints = {
};
position = 585;
vhints = {
};
width = 65;
};
},
{
glyphname = eng;
lastChange = "2016-08-02 09:57:56 +0000";
layers = (
{
layerId = "FCD7E481-103E-4A6C-AD70-01DA443B2AD0";
paths = (
{
closed = 1;
nodes = (
"362 -319 LINE SMOOTH",
"534 -319 OFFCURVE",
"686 -255 OFFCURVE",
"686 -12 CURVE SMOOTH",
"686 944 LINE SMOOTH",
"686 1133 OFFCURVE",
"606 1203 OFFCURVE",
"500 1203 CURVE SMOOTH",
"392 1203 OFFCURVE",
"294 1145 OFFCURVE",
"219 1057 CURVE",
"219 1184 LINE",
"110 1184 LINE",
"110 0 LINE",
"219 0 LINE",
"219 987 LINE",
"288 1064 OFFCURVE",
"373 1118 OFFCURVE",
"453 1118 CURVE SMOOTH",
"529 1118 OFFCURVE",
"577 1077 OFFCURVE",
"577 932 CURVE SMOOTH",
"577 -10 LINE SMOOTH",
"577 -146 OFFCURVE",
"539 -231 OFFCURVE",
"335 -231 CURVE",
"335 -319 LINE"
);
}
);
width = 794;
},
{
layerId = "8AC5A1D3-32A8-4416-86FC-94176A419B8F";
paths = (
{
closed = 1;
nodes = (
"380 -377 LINE SMOOTH",
"614 -377 OFFCURVE",
"776 -255 OFFCURVE",
"776 -12 CURVE SMOOTH",
"776 958 LINE SMOOTH",
"776 1073 OFFCURVE",
"740 1200 OFFCURVE",
"600 1200 CURVE SMOOTH",
"484 1200 OFFCURVE",
"388 1141 OFFCURVE",
"310 1067 CURVE",
"310 1184 LINE",
"91 1184 LINE",
"91 0 LINE",
"310 0 LINE",
"310 955 LINE",
"359 996 OFFCURVE",
"414 1028 OFFCURVE",
"463 1028 CURVE SMOOTH",
"540 1028 OFFCURVE",
"557 978 OFFCURVE",
"557 894 CURVE SMOOTH",
"557 -10 LINE SMOOTH",
"557 -146 OFFCURVE",
"519 -211 OFFCURVE",
"315 -211 CURVE",
"315 -377 LINE"
);
}
);
width = 794;
},
{
layerId = "3FB85DAF-C7EF-4F81-BE96-1E190958879E";
paths = (
{
closed = 1;
nodes = (
"517 -405 LINE SMOOTH",
"873 -405 OFFCURVE",
"969 -302 OFFCURVE",
"969 -12 CURVE SMOOTH",
"969 919 LINE SMOOTH",
"969 1090 OFFCURVE",
"882 1206 OFFCURVE",
"737 1206 CURVE SMOOTH",
"635 1206 OFFCURVE",
"543 1176 OFFCURVE",
"452 1084 CURVE",
"452 1184 LINE",
"85 1184 LINE",
"85 0 LINE",
"452 0 LINE",
"452 917 LINE",
"488 940 OFFCURVE",
"521 949 OFFCURVE",
"544 951 CURVE SMOOTH",
"588 953 OFFCURVE",
"602 926 OFFCURVE",
"602 876 CURVE SMOOTH",
"602 -10 LINE SMOOTH",
"602 -151 OFFCURVE",
"564 -183 OFFCURVE",
"379 -183 CURVE",
"379 -405 LINE"
);
}
);
width = 1029;
}
);
unicode = 014B;
userData = {
com.fontlab.hintData = {
};
hhints = {
};
position = -406;
width = 237;
};
},
{
glyphname = o;
lastChange = "2016-08-02 09:57:56 +0000";
layers = (
{
layerId = "FCD7E481-103E-4A6C-AD70-01DA443B2AD0";
paths = (
{
closed = 1;
nodes = (
"628 -19 OFFCURVE",
"690 135 OFFCURVE",
"690 432 CURVE SMOOTH",
"690 752 LINE SMOOTH",
"690 1048 OFFCURVE",
"628 1203 OFFCURVE",
"392 1203 CURVE SMOOTH",
"156 1203 OFFCURVE",
"94 1046 OFFCURVE",
"94 752 CURVE SMOOTH",
"94 432 LINE SMOOTH",
"94 135 OFFCURVE",
"156 -19 OFFCURVE",
"392 -19 CURVE SMOOTH"
);
},
{
closed = 1;
nodes = (
"220 63 OFFCURVE",
"203 200 OFFCURVE",
"203 428 CURVE SMOOTH",
"203 756 LINE SMOOTH",
"203 983 OFFCURVE",
"220 1121 OFFCURVE",
"392 1121 CURVE SMOOTH",
"564 1121 OFFCURVE",
"581 983 OFFCURVE",
"581 756 CURVE SMOOTH",
"581 428 LINE SMOOTH",
"581 200 OFFCURVE",
"564 63 OFFCURVE",
"392 63 CURVE SMOOTH"
);
}
);
width = 784;
},
{
associatedMasterId = "FCD7E481-103E-4A6C-AD70-01DA443B2AD0";
layerId = "38290473-242E-4E3A-816A-4CC36D58C6CA";
name = b;
width = 1031;
},
{
layerId = "8AC5A1D3-32A8-4416-86FC-94176A419B8F";
paths = (
{
closed = 1;
nodes = (
"696 -17 OFFCURVE",
"779 153 OFFCURVE",
"779 420 CURVE SMOOTH",
"779 763 LINE SMOOTH",
"779 1030 OFFCURVE",
"696 1200 OFFCURVE",
"434 1200 CURVE SMOOTH",
"171 1200 OFFCURVE",
"89 1030 OFFCURVE",
"89 763 CURVE SMOOTH",
"89 420 LINE SMOOTH",
"89 153 OFFCURVE",
"171 -17 OFFCURVE",
"434 -17 CURVE SMOOTH"
);
},
{
closed = 1;
nodes = (
"308 145 OFFCURVE",
"308 273 OFFCURVE",
"308 406 CURVE SMOOTH",
"308 777 LINE SMOOTH",
"308 910 OFFCURVE",
"308 1039 OFFCURVE",
"434 1039 CURVE SMOOTH",
"559 1039 OFFCURVE",
"559 910 OFFCURVE",
"559 777 CURVE SMOOTH",
"559 406 LINE SMOOTH",
"559 273 OFFCURVE",
"559 145 OFFCURVE",
"434 145 CURVE SMOOTH"
);
}
);
width = 868;
},
{
layerId = "3FB85DAF-C7EF-4F81-BE96-1E190958879E";
paths = (
{
closed = 1;
nodes = (
"759 -22 OFFCURVE",
"947 96 OFFCURVE",
"947 352 CURVE SMOOTH",
"947 832 LINE SMOOTH",
"947 1087 OFFCURVE",
"759 1206 OFFCURVE",
"510 1206 CURVE SMOOTH",
"261 1206 OFFCURVE",
"78 1087 OFFCURVE",
"78 832 CURVE SMOOTH",
"78 352 LINE SMOOTH",
"78 97 OFFCURVE",
"261 -22 OFFCURVE",
"510 -22 CURVE SMOOTH"
);
},
{
closed = 1;
nodes = (
"464 218 OFFCURVE",
"439 250 OFFCURVE",
"439 326 CURVE SMOOTH",
"439 858 LINE SMOOTH",
"439 934 OFFCURVE",
"464 966 OFFCURVE",
"511 966 CURVE SMOOTH",
"561 966 OFFCURVE",
"586 936 OFFCURVE",
"586 858 CURVE SMOOTH",
"586 326 LINE SMOOTH",
"586 248 OFFCURVE",
"561 218 OFFCURVE",
"511 218 CURVE SMOOTH"
);
}
);
width = 1025;
}
);
leftKerningGroup = o;
rightKerningGroup = o;
unicode = 006F;
userData = {
com.fontlab.hintData = {
};
com.typemytype.robofont.layerData = {
b = {
anchors = (
);
components = (
);
contours = (
);
lib = {
};
name = o;
unicodes = (
);
width = 1031;
};
};
hhints = {
};
position = 590;
vhints = {
};
width = 64;
};
},
{
glyphname = oslash;
lastChange = "2016-08-02 09:57:56 +0000";
layers = (
{
components = (
{
name = o;
}
);
layerId = "FCD7E481-103E-4A6C-AD70-01DA443B2AD0";
paths = (
{
closed = 1;
nodes = (
"687 1281 LINE",
"643 1298 LINE",
"119 -118 LINE",
"160 -134 LINE"
);
}
);
width = 784;
},
{
associatedMasterId = "FCD7E481-103E-4A6C-AD70-01DA443B2AD0";
layerId = "7AB7A3CF-2DAC-4880-ACAF-DA04C91D11B0";
name = b;
width = 750;
},
{
components = (
{
name = o;
}
);
layerId = "8AC5A1D3-32A8-4416-86FC-94176A419B8F";
paths = (
{
closed = 1;
nodes = (
"752 1343 LINE",
"676 1368 LINE",
"131 -173 LINE",
"196 -195 LINE"
);
}
);
width = 868;
},
{
components = (
{
name = o;
}
);
layerId = "3FB85DAF-C7EF-4F81-BE96-1E190958879E";
paths = (
{
closed = 1;
nodes = (
"853 1346 LINE",
"774 1381 LINE",
"140 -144 LINE",
"218 -178 LINE"
);
}
);
width = 1010;
}
);
unicode = 00F8;
userData = {
com.fontlab.hintData = {
hhints = (
{
position = -22;
width = 263;
},
{
position = 943;
width = 263;
}
);
vhints = (
{
position = 72;
width = 366;
}
);
};
com.typemytype.robofont.layerData = {
b = {
anchors = (
);
components = (
);
contours = (
);
lib = {
};
name = oslash;
unicodes = (
);
width = 750;
};
};
};
},
{
glyphname = oe;
lastChange = "2016-08-02 09:57:56 +0000";
layers = (
{
layerId = "FCD7E481-103E-4A6C-AD70-01DA443B2AD0";
paths = (
{
closed = 1;
nodes = (
"536 -19 OFFCURVE",
"617 46 OFFCURVE",
"647 175 CURVE",
"685 30 OFFCURVE",
"783 -18 OFFCURVE",
"892 -19 CURVE SMOOTH",
"1114 -22 OFFCURVE",
"1187 109 OFFCURVE",
"1187 312 CURVE SMOOTH",
"1187 400 LINE",
"1079 400 LINE",
"1079 310 LINE SMOOTH",
"1079 78 OFFCURVE",
"975 67 OFFCURVE",
"892 68 CURVE SMOOTH",
"755 71 OFFCURVE",
"700 173 OFFCURVE",
"700 457 CURVE SMOOTH",
"700 621 LINE",
"1186 621 LINE",
"1188 735 LINE SMOOTH",
"1188 1074 OFFCURVE",
"1113 1203 OFFCURVE",
"897 1203 CURVE SMOOTH",
"787 1203 OFFCURVE",
"689 1165 OFFCURVE",
"646 1020 CURVE",
"616 1137 OFFCURVE",
"534 1203 OFFCURVE",
"400 1203 CURVE SMOOTH",
"165 1203 OFFCURVE",
"102 1047 OFFCURVE",
"102 753 CURVE SMOOTH",
"102 431 LINE SMOOTH",
"102 134 OFFCURVE",
"165 -19 OFFCURVE",
"400 -19 CURVE SMOOTH"
);
},
{
closed = 1;
nodes = (
"228 68 OFFCURVE",
"211 204 OFFCURVE",
"211 431 CURVE SMOOTH",
"211 753 LINE SMOOTH",
"211 980 OFFCURVE",
"228 1116 OFFCURVE",
"400 1116 CURVE SMOOTH",
"573 1116 OFFCURVE",
"591 980 OFFCURVE",
"591 753 CURVE SMOOTH",
"591 431 LINE SMOOTH",
"591 204 OFFCURVE",
"573 68 OFFCURVE",
"400 68 CURVE SMOOTH"
);
},
{
closed = 1;
nodes = (
"700 766 LINE SMOOTH",
"700 1029 OFFCURVE",
"758 1116 OFFCURVE",
"895 1116 CURVE SMOOTH",
"1064 1116 OFFCURVE",
"1079 962 OFFCURVE",
"1079 756 CURVE SMOOTH",
"1079 684 LINE",
"700 684 LINE"
);
}
);
width = 1284;
},
{
layerId = "8AC5A1D3-32A8-4416-86FC-94176A419B8F";
paths = (
{
closed = 1;
nodes = (
"587 -17 OFFCURVE",
"664 40 OFFCURVE",
"702 126 CURVE",
"742 38 OFFCURVE",
"819 -13 OFFCURVE",
"940 -17 CURVE SMOOTH",
"1179 -25 OFFCURVE",
"1287 91 OFFCURVE",
"1287 333 CURVE SMOOTH",
"1287 412 LINE",
"1068 412 LINE",
"1068 332 LINE SMOOTH",
"1068 201 OFFCURVE",
"1030 158 OFFCURVE",
"940 163 CURVE SMOOTH",
"806 171 OFFCURVE",
"812 366 OFFCURVE",
"812 523 CURVE SMOOTH",
"812 596 LINE",
"1286 596 LINE",
"1287 696 LINE SMOOTH",
"1287 1019 OFFCURVE",
"1230 1200 OFFCURVE",
"949 1200 CURVE SMOOTH",
"829 1200 OFFCURVE",
"742 1148 OFFCURVE",
"702 1060 CURVE",
"662 1143 OFFCURVE",
"587 1200 OFFCURVE",
"463 1200 CURVE SMOOTH",
"200 1200 OFFCURVE",
"116 1033 OFFCURVE",
"116 767 CURVE SMOOTH",
"116 416 LINE SMOOTH",
"116 150 OFFCURVE",
"200 -17 OFFCURVE",
"463 -17 CURVE SMOOTH"
);
},
{
closed = 1;
nodes = (
"338 163 OFFCURVE",
"336 284 OFFCURVE",
"336 416 CURVE SMOOTH",
"336 767 LINE SMOOTH",
"336 900 OFFCURVE",
"338 1022 OFFCURVE",
"463 1022 CURVE SMOOTH",
"589 1022 OFFCURVE",
"592 900 OFFCURVE",
"592 767 CURVE SMOOTH",
"592 416 LINE SMOOTH",
"592 284 OFFCURVE",
"589 163 OFFCURVE",
"463 163 CURVE SMOOTH"
);
},
{
closed = 1;
nodes = (
"812 744 LINE SMOOTH",
"812 883 OFFCURVE",
"826 1022 OFFCURVE",
"941 1022 CURVE SMOOTH",
"1061 1022 OFFCURVE",
"1068 875 OFFCURVE",
"1068 743 CURVE SMOOTH",
"1068 707 LINE",
"812 707 LINE"
);
}
);
width = 1402;
},
{
layerId = "3FB85DAF-C7EF-4F81-BE96-1E190958879E";
paths = (
{
closed = 1;
nodes = (
"1271 -30 OFFCURVE",
"1397 103 OFFCURVE",
"1397 303 CURVE SMOOTH",
"1397 481 LINE",
"1056 481 LINE",
"1056 302 LINE SMOOTH",
"1056 228 OFFCURVE",
"1045 185 OFFCURVE",
"1005 186 CURVE SMOOTH",
"969 186 OFFCURVE",
"951 236 OFFCURVE",
"951 311 CURVE SMOOTH",
"951 561 LINE",
"1396 561 LINE",
"1396 854 LINE SMOOTH",
"1396 1078 OFFCURVE",
"1294 1242 OFFCURVE",
"1033 1242 CURVE SMOOTH",
"937 1242 OFFCURVE",
"788 1194 OFFCURVE",
"747 1088 CURVE",
"709 1194 OFFCURVE",
"553 1242 OFFCURVE",
"451 1242 CURVE SMOOTH",
"241 1242 OFFCURVE",
"74 1140 OFFCURVE",
"74 903 CURVE SMOOTH",
"74 337 LINE SMOOTH",
"74 81 OFFCURVE",
"249 -28 OFFCURVE",
"423 -28 CURVE SMOOTH",
"591 -28 OFFCURVE",
"688 34 OFFCURVE",
"737 120 CURVE",
"778 26 OFFCURVE",
"893 -29 OFFCURVE",
"1042 -29 CURVE SMOOTH"
);
},
{
closed = 1;
nodes = (
"458 186 OFFCURVE",
"434 239 OFFCURVE",
"434 327 CURVE SMOOTH",
"434 924 LINE SMOOTH",
"434 1011 OFFCURVE",
"468 1031 OFFCURVE",
"499 1031 CURVE SMOOTH",
"532 1031 OFFCURVE",
"565 1007 OFFCURVE",
"565 924 CURVE SMOOTH",
"565 326 LINE SMOOTH",
"565 201 OFFCURVE",
"526 186 OFFCURVE",
"493 186 CURVE SMOOTH"
);
},
{
closed = 1;
nodes = (
"951 952 LINE SMOOTH",
"951 1012 OFFCURVE",
"985 1031 OFFCURVE",
"1004 1031 CURVE SMOOTH",
"1026 1031 OFFCURVE",
"1061 1005 OFFCURVE",
"1061 952 CURVE SMOOTH",
"1061 758 LINE",
"951 758 LINE"
);
}
);
width = 1457;
}
);
unicode = 0153;
userData = {
com.fontlab.hintData = {
hhints = (
{
position = -28;
width = 214;
},
{
position = 1032;
width = 212;
}
);
vhints = (
{
position = 72;
width = 365;
},
{
position = 564;
width = 392;
},
{
position = 1061;
width = 339;
}
);
};
};
},
{
glyphname = p;
lastChange = "2016-08-02 09:57:56 +0000";
layers = (
{
layerId = "FCD7E481-103E-4A6C-AD70-01DA443B2AD0";
paths = (
{
closed = 1;
nodes = (
"226 -390 LINE",
"226 98 LINE",
"269 45 OFFCURVE",
"340 -19 OFFCURVE",
"443 -19 CURVE SMOOTH",
"656 -19 OFFCURVE",
"720 156 OFFCURVE",
"720 487 CURVE SMOOTH",
"720 714 LINE SMOOTH",
"720 1011 OFFCURVE",
"672 1203 OFFCURVE",
"453 1203 CURVE SMOOTH",
"344 1203 OFFCURVE",
"270 1140 OFFCURVE",
"226 1083 CURVE",
"226 1184 LINE",
"117 1184 LINE",
"117 -390 LINE"
);
},
{
closed = 1;
nodes = (
"344 66 OFFCURVE",
"273 117 OFFCURVE",
"226 173 CURVE",
"226 1008 LINE",
"268 1054 OFFCURVE",
"342 1118 OFFCURVE",
"431 1118 CURVE SMOOTH",
"584 1118 OFFCURVE",
"612 997 OFFCURVE",
"612 715 CURVE SMOOTH",
"612 484 LINE SMOOTH",
"612 195 OFFCURVE",
"578 66 OFFCURVE",
"430 66 CURVE SMOOTH"
);
}
);
width = 819;
},
{
associatedMasterId = "FCD7E481-103E-4A6C-AD70-01DA443B2AD0";
layerId = "3CFB9F0A-91A9-47F1-81A5-FC9053BCC527";
name = b;
width = 1075;
},
{
layerId = "8AC5A1D3-32A8-4416-86FC-94176A419B8F";
paths = (
{
closed = 1;
nodes = (
"330 -390 LINE",
"330 88 LINE",
"380 33 OFFCURVE",
"447 -17 OFFCURVE",
"531 -17 CURVE SMOOTH",
"764 -17 OFFCURVE",
"825 217 OFFCURVE",
"825 469 CURVE SMOOTH",
"825 755 LINE SMOOTH",
"825 897 OFFCURVE",
"802 1200 OFFCURVE",
"555 1200 CURVE SMOOTH",
"454 1200 OFFCURVE",
"381 1149 OFFCURVE",
"330 1089 CURVE",
"330 1184 LINE",
"111 1184 LINE",
"111 -390 LINE"
);
},
{
closed = 1;
nodes = (
"422 156 OFFCURVE",
"370 179 OFFCURVE",
"330 208 CURVE",
"330 967 LINE",
"369 999 OFFCURVE",
"421 1028 OFFCURVE",
"479 1028 CURVE SMOOTH",
"592 1028 OFFCURVE",
"606 904 OFFCURVE",
"606 755 CURVE SMOOTH",
"606 468 LINE SMOOTH",
"606 294 OFFCURVE",
"600 156 OFFCURVE",
"487 156 CURVE SMOOTH"
);
}
);
width = 914;
},
{
layerId = "3FB85DAF-C7EF-4F81-BE96-1E190958879E";
paths = (
{
closed = 1;
nodes = (
"469 -390 LINE",
"469 90 LINE",
"554 19 OFFCURVE",
"649 -22 OFFCURVE",
"735 -22 CURVE SMOOTH",
"884 -22 OFFCURVE",
"983 98 OFFCURVE",
"983 310 CURVE SMOOTH",
"983 885 LINE SMOOTH",
"983 1091 OFFCURVE",
"894 1199 OFFCURVE",
"736 1206 CURVE SMOOTH",
"657 1209 OFFCURVE",
"560 1176 OFFCURVE",
"469 1100 CURVE",
"469 1184 LINE",
"102 1184 LINE",
"102 -390 LINE"
);
},
{
closed = 1;
nodes = (
"518 206 OFFCURVE",
"493 216 OFFCURVE",
"469 230 CURVE",
"469 963 LINE",
"495 981 OFFCURVE",
"519 994 OFFCURVE",
"538 997 CURVE SMOOTH",
"585 1003 OFFCURVE",
"616 963 OFFCURVE",
"616 918 CURVE SMOOTH",
"616 286 LINE SMOOTH",
"616 241 OFFCURVE",
"586 205 OFFCURVE",
"538 206 CURVE SMOOTH"
);
}
);
width = 1069;
}
);
leftKerningGroup = p;
rightKerningGroup = p;
unicode = 0070;
userData = {
com.typemytype.robofont.layerData = {
b = {
anchors = (
);
components = (
);
contours = (
);
lib = {
};
name = p;
unicodes = (
);
width = 1075;
};
};
};
},
{
glyphname = thorn;
lastChange = "2016-08-02 09:57:56 +0000";
layers = (
{
layerId = "FCD7E481-103E-4A6C-AD70-01DA443B2AD0";
paths = (
{
closed = 1;
nodes = (
"227 -390 LINE",
"227 98 LINE",
"269 45 OFFCURVE",
"341 -19 OFFCURVE",
"443 -19 CURVE SMOOTH",
"656 -19 OFFCURVE",
"721 156 OFFCURVE",
"721 487 CURVE SMOOTH",
"721 714 LINE SMOOTH",
"721 1011 OFFCURVE",
"672 1203 OFFCURVE",
"454 1203 CURVE SMOOTH",
"345 1203 OFFCURVE",
"270 1140 OFFCURVE",
"227 1083 CURVE",
"227 1658 LINE",
"118 1658 LINE",
"118 -390 LINE"
);
},
{
closed = 1;
nodes = (
"344 66 OFFCURVE",
"273 117 OFFCURVE",
"227 173 CURVE",
"227 1008 LINE",
"269 1054 OFFCURVE",
"342 1118 OFFCURVE",
"432 1118 CURVE SMOOTH",
"585 1118 OFFCURVE",
"612 997 OFFCURVE",
"612 715 CURVE SMOOTH",
"612 484 LINE SMOOTH",
"612 195 OFFCURVE",
"578 66 OFFCURVE",
"431 66 CURVE SMOOTH"
);
}
);
width = 815;
},
{
layerId = "8AC5A1D3-32A8-4416-86FC-94176A419B8F";
paths = (
{
closed = 1;
nodes = (
"332 -390 LINE",
"332 88 LINE",
"382 33 OFFCURVE",
"449 -17 OFFCURVE",
"533 -17 CURVE SMOOTH",
"766 -17 OFFCURVE",
"827 217 OFFCURVE",
"827 469 CURVE SMOOTH",
"827 755 LINE SMOOTH",
"827 897 OFFCURVE",
"804 1200 OFFCURVE",
"557 1200 CURVE SMOOTH",
"455 1200 OFFCURVE",
"383 1149 OFFCURVE",
"332 1089 CURVE",
"332 1658 LINE",
"113 1658 LINE",
"113 -390 LINE"
);
},
{
closed = 1;
nodes = (
"423 156 OFFCURVE",
"372 179 OFFCURVE",
"332 208 CURVE",
"332 967 LINE",
"371 999 OFFCURVE",
"422 1028 OFFCURVE",
"480 1028 CURVE SMOOTH",
"594 1028 OFFCURVE",
"608 904 OFFCURVE",
"608 755 CURVE SMOOTH",
"608 468 LINE SMOOTH",
"608 294 OFFCURVE",
"601 156 OFFCURVE",
"489 156 CURVE SMOOTH"
);
}
);
width = 915;
},
{
layerId = "3FB85DAF-C7EF-4F81-BE96-1E190958879E";
paths = (
{
closed = 1;
nodes = (
"456 -390 LINE",
"456 89 LINE",
"541 19 OFFCURVE",
"633 -22 OFFCURVE",
"719 -22 CURVE SMOOTH",
"867 -22 OFFCURVE",
"967 98 OFFCURVE",
"967 310 CURVE SMOOTH",
"967 885 LINE SMOOTH",
"967 1091 OFFCURVE",
"878 1199 OFFCURVE",
"720 1206 CURVE SMOOTH",
"641 1209 OFFCURVE",
"546 1176 OFFCURVE",
"456 1100 CURVE",
"456 1658 LINE",
"89 1658 LINE",
"89 -390 LINE"
);
},
{
closed = 1;
nodes = (
"504 206 OFFCURVE",
"480 216 OFFCURVE",
"456 230 CURVE",
"456 963 LINE",
"482 982 OFFCURVE",
"506 994 OFFCURVE",
"524 997 CURVE SMOOTH",
"572 1003 OFFCURVE",
"599 963 OFFCURVE",
"599 918 CURVE SMOOTH",
"599 286 LINE SMOOTH",
"599 241 OFFCURVE",
"572 205 OFFCURVE",
"525 206 CURVE SMOOTH"
);
}
);
width = 1039;
}
);
unicode = 00FE;
},
{
glyphname = q;
lastChange = "2016-08-02 09:57:56 +0000";
layers = (
{
layerId = "FCD7E481-103E-4A6C-AD70-01DA443B2AD0";
paths = (
{
closed = 1;
nodes = (
"697 -390 LINE",
"697 1184 LINE",
"588 1184 LINE",
"588 1092 LINE",
"544 1146 OFFCURVE",
"472 1202 OFFCURVE",
"372 1203 CURVE SMOOTH",
"155 1203 OFFCURVE",
"99 1030 OFFCURVE",
"99 697 CURVE SMOOTH",
"99 486 LINE SMOOTH",
"99 126 OFFCURVE",
"173 -19 OFFCURVE",
"377 -19 CURVE SMOOTH",
"475 -19 OFFCURVE",
"545 39 OFFCURVE",
"588 91 CURVE",
"588 -390 LINE"
);
},
{
closed = 1;
nodes = (
"244 66 OFFCURVE",
"208 190 OFFCURVE",
"208 477 CURVE SMOOTH",
"208 723 LINE SMOOTH",
"208 1000 OFFCURVE",
"238 1118 OFFCURVE",
"389 1118 CURVE SMOOTH",
"474 1118 OFFCURVE",
"545 1059 OFFCURVE",
"588 1014 CURVE",
"588 167 LINE",
"539 112 OFFCURVE",
"471 66 OFFCURVE",
"393 66 CURVE SMOOTH"
);
}
);
width = 812;
},
{
associatedMasterId = "FCD7E481-103E-4A6C-AD70-01DA443B2AD0";
layerId = "80257898-4EB6-4C6B-8C21-3A60BC18CCD5";
name = b;
width = 1076;
},
{
layerId = "8AC5A1D3-32A8-4416-86FC-94176A419B8F";
paths = (
{
closed = 1;
nodes = (
"796 -390 LINE",
"796 1184 LINE",
"578 1184 LINE",
"578 1108 LINE",
"527 1159 OFFCURVE",
"461 1200 OFFCURVE",
"381 1200 CURVE SMOOTH",
"139 1200 OFFCURVE",
"91 965 OFFCURVE",
"91 695 CURVE SMOOTH",
"91 465 LINE SMOOTH",
"91 114 OFFCURVE",
"186 -18 OFFCURVE",
"388 -17 CURVE SMOOTH",
"464 -17 OFFCURVE",
"527 21 OFFCURVE",
"578 76 CURVE",
"578 -390 LINE"
);
},
{
closed = 1;
nodes = (
"325 156 OFFCURVE",
"310 280 OFFCURVE",
"310 446 CURVE SMOOTH",
"310 781 LINE SMOOTH",
"310 915 OFFCURVE",
"335 1028 OFFCURVE",
"439 1028 CURVE SMOOTH",
"491 1028 OFFCURVE",
"538 1004 OFFCURVE",
"578 976 CURVE",
"578 200 LINE",
"532 171 OFFCURVE",
"484 156 OFFCURVE",
"443 156 CURVE SMOOTH"
);
}
);
width = 907;
},
{
layerId = "3FB85DAF-C7EF-4F81-BE96-1E190958879E";
paths = (
{
closed = 1;
nodes = (
"970 -390 LINE",
"970 1184 LINE",
"604 1184 LINE",
"604 1103 LINE",
"531 1167 OFFCURVE",
"446 1206 OFFCURVE",
"354 1206 CURVE SMOOTH",
"189 1206 OFFCURVE",
"84 1077 OFFCURVE",
"84 874 CURVE SMOOTH",
"84 309 LINE SMOOTH",
"84 98 OFFCURVE",
"183 -22 OFFCURVE",
"352 -22 CURVE SMOOTH",
"436 -22 OFFCURVE",
"523 24 OFFCURVE",
"604 104 CURVE",
"604 -390 LINE"
);
},
{
closed = 1;
nodes = (
"481 203 OFFCURVE",
"453 242 OFFCURVE",
"453 287 CURVE SMOOTH",
"453 892 LINE SMOOTH",
"453 948 OFFCURVE",
"480 987 OFFCURVE",
"530 987 CURVE SMOOTH",
"553 987 OFFCURVE",
"577 978 OFFCURVE",
"604 964 CURVE",
"604 234 LINE",
"573 215 OFFCURVE",
"546 203 OFFCURVE",
"526 203 CURVE SMOOTH"
);
}
);
width = 1070;
}
);
unicode = 0071;
userData = {
com.fontlab.hintData = {
hhints = (
{
position = -22;
width = 226;
},
{
position = 986;
width = 220;
}
);
};
com.typemytype.robofont.layerData = {
b = {
anchors = (
);
components = (
);
contours = (
);
lib = {
};
name = q;
unicodes = (
);
width = 1076;
};
};
};
},
{
glyphname = r;
lastChange = "2016-08-02 09:57:56 +0000";
layers = (
{
layerId = "FCD7E481-103E-4A6C-AD70-01DA443B2AD0";
paths = (
{
closed = 1;
nodes = (
"240 0 LINE",
"240 935 LINE",
"298 1034 OFFCURVE",
"384 1088 OFFCURVE",
"496 1088 CURVE SMOOTH",
"508 1088 OFFCURVE",
"531 1085 OFFCURVE",
"540 1082 CURVE",
"540 1195 LINE",
"536 1195 OFFCURVE",
"523 1196 OFFCURVE",
"520 1196 CURVE SMOOTH",
"429 1196 OFFCURVE",
"310 1141 OFFCURVE",
"240 1024 CURVE",
"240 1184 LINE",
"132 1184 LINE",
"132 0 LINE"
);
}
);
width = 580;
},
{
associatedMasterId = "FCD7E481-103E-4A6C-AD70-01DA443B2AD0";
layerId = "1648B2FC-6C9D-4BCB-B82A-A4C471982E27";
name = b;
width = 549;
},
{
layerId = "8AC5A1D3-32A8-4416-86FC-94176A419B8F";
paths = (
{
closed = 1;
nodes = (
"335 0 LINE",
"335 865 LINE",
"391 955 OFFCURVE",
"445 978 OFFCURVE",
"513 978 CURVE SMOOTH",
"555 978 OFFCURVE",
"601 967 OFFCURVE",
"633 955 CURVE",
"633 1197 LINE",
"617 1199 OFFCURVE",
"608 1199 OFFCURVE",
"597 1199 CURVE SMOOTH",
"509 1199 OFFCURVE",
"422 1160 OFFCURVE",
"335 1015 CURVE",
"335 1184 LINE",
"116 1184 LINE",
"116 0 LINE"
);
}
);
width = 658;
},
{
layerId = "3FB85DAF-C7EF-4F81-BE96-1E190958879E";
paths = (
{
closed = 1;
nodes = (
"473 0 LINE",
"473 727 LINE",
"539 822 OFFCURVE",
"617 875 OFFCURVE",
"723 882 CURVE SMOOTH",
"733 883 OFFCURVE",
"743 883 OFFCURVE",
"753 882 CURVE",
"753 1188 LINE",
"735 1195 OFFCURVE",
"718 1198 OFFCURVE",
"702 1198 CURVE SMOOTH",
"614 1198 OFFCURVE",
"538 1112 OFFCURVE",
"473 978 CURVE",
"473 1184 LINE",
"106 1184 LINE",
"106 0 LINE"
);
}
);
width = 790;
}
);
leftKerningGroup = r;
rightKerningGroup = r;
unicode = 0072;
userData = {
com.fontlab.hintData = {
hhints = (
{
position = 880;
width = 318;
}
);
vhints = (
{
position = 86;
width = 651;
}
);
};
com.typemytype.robofont.layerData = {
b = {
anchors = (
);
components = (
);
contours = (
);
lib = {
};
name = r;
unicodes = (
);
width = 549;
};
};
};
},
{
glyphname = s;
lastChange = "2016-08-02 09:57:56 +0000";
layers = (
{
layerId = "FCD7E481-103E-4A6C-AD70-01DA443B2AD0";
paths = (
{
closed = 1;
nodes = (
"561 -19 OFFCURVE",
"674 81 OFFCURVE",
"674 253 CURVE SMOOTH",
"671 424 OFFCURVE",
"565 520 OFFCURVE",
"458 612 CURVE",
"317 737 LINE SMOOTH",
"220 820 OFFCURVE",
"196 874 OFFCURVE",
"196 962 CURVE SMOOTH",
"195 1066 OFFCURVE",
"267 1121 OFFCURVE",
"370 1121 CURVE SMOOTH",
"478 1121 OFFCURVE",
"546 1052 OFFCURVE",
"552 868 CURVE",
"633 892 LINE",
"626 1082 OFFCURVE",
"540 1203 OFFCURVE",
"365 1203 CURVE SMOOTH",
"203 1203 OFFCURVE",
"97 1112 OFFCURVE",
"96 950 CURVE",
"95 831 OFFCURVE",
"147 749 OFFCURVE",
"267 649 CURVE SMOOTH",
"404 533 LINE SMOOTH",
"525 431 OFFCURVE",
"576 340 OFFCURVE",
"577 255 CURVE SMOOTH",
"578 133 OFFCURVE",
"507 63 OFFCURVE",
"389 63 CURVE SMOOTH",
"255 63 OFFCURVE",
"176 148 OFFCURVE",
"161 346 CURVE",
"69 319 LINE",
"86 111 OFFCURVE",
"198 -19 OFFCURVE",
"384 -19 CURVE SMOOTH"
);
}
);
width = 730;
},
{
associatedMasterId = "FCD7E481-103E-4A6C-AD70-01DA443B2AD0";
layerId = "7E0A1B02-F170-43EE-B8AC-0C70348D1842";
name = b;
width = 716;
},
{
layerId = "8AC5A1D3-32A8-4416-86FC-94176A419B8F";
paths = (
{
closed = 1;
nodes = (
"580 -17 OFFCURVE",
"713 84 OFFCURVE",
"713 286 CURVE SMOOTH",
"713 438 OFFCURVE",
"631 530 OFFCURVE",
"545 606 CURVE",
"335 798 LINE SMOOTH",
"293 835 OFFCURVE",
"276 875 OFFCURVE",
"276 918 CURVE SMOOTH",
"275 984 OFFCURVE",
"321 1039 OFFCURVE",
"394 1039 CURVE SMOOTH",
"487 1039 OFFCURVE",
"523 957 OFFCURVE",
"539 834 CURVE",
"687 889 LINE",
"672 1060 OFFCURVE",
"573 1200 OFFCURVE",
"386 1200 CURVE SMOOTH",
"201 1200 OFFCURVE",
"86 1095 OFFCURVE",
"80 909 CURVE",
"77 771 OFFCURVE",
"144 690 OFFCURVE",
"226 620 CURVE SMOOTH",
"428 447 LINE SMOOTH",
"492 392 OFFCURVE",
"521 333 OFFCURVE",
"524 281 CURVE SMOOTH",
"528 203 OFFCURVE",
"473 145 OFFCURVE",
"394 145 CURVE SMOOTH",
"298 145 OFFCURVE",
"251 220 OFFCURVE",
"234 371 CURVE",
"51 316 LINE",
"68 117 OFFCURVE",
"190 -17 OFFCURVE",
"385 -17 CURVE SMOOTH"
);
}
);
width = 765;
},
{
layerId = "3FB85DAF-C7EF-4F81-BE96-1E190958879E";
paths = (
{
closed = 1;
nodes = (
"669 -22 OFFCURVE",
"866 96 OFFCURVE",
"866 305 CURVE SMOOTH",
"866 457 OFFCURVE",
"745 554 OFFCURVE",
"638 646 CURVE",
"592 685 LINE SMOOTH",
"499 765 OFFCURVE",
"391 841 OFFCURVE",
"396 899 CURVE SMOOTH",
"397 926 OFFCURVE",
"420 956 OFFCURVE",
"468 952 CURVE SMOOTH",
"530 947 OFFCURVE",
"590 855 OFFCURVE",
"614 790 CURVE",
"850 904 LINE",
"785 1104 OFFCURVE",
"643 1206 OFFCURVE",
"446 1206 CURVE SMOOTH",
"248 1206 OFFCURVE",
"64 1064 OFFCURVE",
"64 868 CURVE",
"62 741 OFFCURVE",
"179 606 OFFCURVE",
"284 517 CURVE SMOOTH",
"336 473 LINE SMOOTH",
"414 407 OFFCURVE",
"518 335 OFFCURVE",
"519 287 CURVE SMOOTH",
"520 250 OFFCURVE",
"494 225 OFFCURVE",
"463 221 CURVE SMOOTH",
"398 213 OFFCURVE",
"329 285 OFFCURVE",
"279 379 CURVE",
"36 264 LINE",
"140 51 OFFCURVE",
"273 -22 OFFCURVE",
"473 -22 CURVE SMOOTH"
);
}
);
width = 897;
}
);
leftKerningGroup = s;
rightKerningGroup = s;
unicode = 0073;
userData = {
com.fontlab.hintData = {
hhints = (
{
position = -22;
width = 249;
}
);
vhints = (
{
position = 496;
width = 353;
}
);
};
com.typemytype.robofont.layerData = {
b = {
anchors = (
);
components = (
);
contours = (
);
lib = {
};
name = s;
unicodes = (
);
width = 716;
};
};
};
},
{
glyphname = germandbls;
lastChange = "2016-08-02 09:57:56 +0000";
layers = (
{
layerId = "FCD7E481-103E-4A6C-AD70-01DA443B2AD0";
paths = (
{
closed = 1;
nodes = (
"803 -22 OFFCURVE",
"896 248 OFFCURVE",
"896 492 CURVE SMOOTH",
"896 689 OFFCURVE",
"829 885 OFFCURVE",
"612 933 CURVE",
"747 976 OFFCURVE",
"811 1102 OFFCURVE",
"811 1299 CURVE SMOOTH",
"811 1568 OFFCURVE",
"677 1698 OFFCURVE",
"468 1698 CURVE SMOOTH",
"250 1698 OFFCURVE",
"131 1602 OFFCURVE",
"131 1250 CURVE SMOOTH",
"131 0 LINE",
"240 0 LINE",
"240 1252 LINE SMOOTH",
"240 1556 OFFCURVE",
"326 1612 OFFCURVE",
"472 1612 CURVE SMOOTH",
"636 1612 OFFCURVE",
"705 1503 OFFCURVE",
"705 1299 CURVE SMOOTH",
"705 1123 OFFCURVE",
"652 972 OFFCURVE",
"470 972 CURVE",
"465 881 LINE",
"718 881 OFFCURVE",
"790 684 OFFCURVE",
"790 486 CURVE SMOOTH",
"790 294 OFFCURVE",
"725 69 OFFCURVE",
"349 69 CURVE",
"349 -22 LINE"
);
}
);
width = 992;
},
{
associatedMasterId = "FCD7E481-103E-4A6C-AD70-01DA443B2AD0";
layerId = "251A47F6-4F16-47CF-AC2C-C63A23189F56";
name = b;
width = 967;
},
{
layerId = "8AC5A1D3-32A8-4416-86FC-94176A419B8F";
paths = (
{
closed = 1;
nodes = (
"800 -18 OFFCURVE",
"940 162 OFFCURVE",
"940 476 CURVE SMOOTH",
"940 681 OFFCURVE",
"845 832 OFFCURVE",
"676 877 CURVE",
"808 946 OFFCURVE",
"878 1056 OFFCURVE",
"878 1251 CURVE SMOOTH",
"878 1525 OFFCURVE",
"743 1677 OFFCURVE",
"472 1677 CURVE SMOOTH",
"237 1677 OFFCURVE",
"120 1512 OFFCURVE",
"120 1253 CURVE SMOOTH",
"120 0 LINE",
"339 0 LINE",
"339 1256 LINE SMOOTH",
"339 1407 OFFCURVE",
"371 1498 OFFCURVE",
"499 1498 CURVE SMOOTH",
"635 1498 OFFCURVE",
"664 1393 OFFCURVE",
"664 1251 CURVE SMOOTH",
"664 1101 OFFCURVE",
"621 950 OFFCURVE",
"473 950 CURVE",
"472 769 LINE",
"645 769 OFFCURVE",
"722 648 OFFCURVE",
"722 475 CURVE SMOOTH",
"722 276 OFFCURVE",
"677 163 OFFCURVE",
"456 163 CURVE",
"456 -18 LINE"
);
}
);
width = 1055;
},
{
layerId = "3FB85DAF-C7EF-4F81-BE96-1E190958879E";
paths = (
{
closed = 1;
nodes = (
"876 -34 OFFCURVE",
"1095 94 OFFCURVE",
"1095 460 CURVE SMOOTH",
"1095 653 OFFCURVE",
"963 818 OFFCURVE",
"742 882 CURVE",
"928 953 OFFCURVE",
"996 1083 OFFCURVE",
"996 1232 CURVE SMOOTH",
"996 1515 OFFCURVE",
"859 1686 OFFCURVE",
"533 1686 CURVE SMOOTH",
"195 1686 OFFCURVE",
"87 1440 OFFCURVE",
"86 1217 CURVE SMOOTH",
"86 0 LINE",
"453 0 LINE",
"453 1217 LINE SMOOTH",
"449 1347 OFFCURVE",
"478 1439 OFFCURVE",
"563 1439 CURVE SMOOTH",
"629 1439 OFFCURVE",
"693 1376 OFFCURVE",
"693 1225 CURVE SMOOTH",
"693 1054 OFFCURVE",
"638 984 OFFCURVE",
"557 984 CURVE",
"560 706 LINE",
"641 706 OFFCURVE",
"721 624 OFFCURVE",
"730 512 CURVE SMOOTH",
"747 302 OFFCURVE",
"658 240 OFFCURVE",
"538 240 CURVE",
"538 -34 LINE"
);
}
);
width = 1126;
}
);
unicode = 00DF;
userData = {
com.fontlab.hintData = {
hhints = (
{
position = 1437;
width = 249;
}
);
vhints = (
{
position = 694;
width = 306;
}
);
};
com.typemytype.robofont.layerData = {
b = {
anchors = (
);
components = (
);
contours = (
);
lib = {
};
name = germandbls;
unicodes = (
);
width = 967;
};
};
};
},
{
glyphname = t;
lastChange = "2016-08-02 09:57:56 +0000";
layers = (
{
layerId = "FCD7E481-103E-4A6C-AD70-01DA443B2AD0";
paths = (
{
closed = 1;
nodes = (
"410 -13 OFFCURVE",
"454 -8 OFFCURVE",
"487 1 CURVE",
"487 83 LINE",
"459 78 OFFCURVE",
"425 73 OFFCURVE",
"400 73 CURVE SMOOTH",
"312 73 OFFCURVE",
"296 118 OFFCURVE",
"296 247 CURVE SMOOTH",
"296 1112 LINE",
"497 1112 LINE",
"497 1184 LINE",
"296 1184 LINE",
"296 1562 LINE",
"188 1562 LINE",
"188 1184 LINE",
"33 1184 LINE",
"33 1112 LINE",
"188 1112 LINE",
"188 234 LINE SMOOTH",
"188 95 OFFCURVE",
"211 -13 OFFCURVE",
"376 -13 CURVE SMOOTH"
);
}
);
width = 538;
},
{
associatedMasterId = "FCD7E481-103E-4A6C-AD70-01DA443B2AD0";
layerId = "409EEF32-0E4D-4045-88E5-6BA20AFB5369";
name = b;
width = 755;
},
{
layerId = "8AC5A1D3-32A8-4416-86FC-94176A419B8F";
paths = (
{
closed = 1;
nodes = (
"481 -17 OFFCURVE",
"522 -12 OFFCURVE",
"578 -5 CURVE",
"578 157 LINE",
"551 153 OFFCURVE",
"518 152 OFFCURVE",
"497 152 CURVE SMOOTH",
"411 152 OFFCURVE",
"389 189 OFFCURVE",
"389 281 CURVE SMOOTH",
"389 1038 LINE",
"579 1038 LINE",
"579 1184 LINE",
"389 1184 LINE",
"389 1529 LINE",
"170 1529 LINE",
"170 1184 LINE",
"46 1184 LINE",
"46 1038 LINE",
"170 1038 LINE",
"170 266 LINE SMOOTH",
"172 86 OFFCURVE",
"239 -17 OFFCURVE",
"426 -17 CURVE SMOOTH"
);
}
);
width = 631;
},
{
layerId = "3FB85DAF-C7EF-4F81-BE96-1E190958879E";
paths = (
{
closed = 1;
nodes = (
"573 -19 OFFCURVE",
"662 -1 OFFCURVE",
"699 6 CURVE",
"699 299 LINE",
"697 298 OFFCURVE",
"653 286 OFFCURVE",
"606 289 CURVE SMOOTH",
"552 292 OFFCURVE",
"501 316 OFFCURVE",
"501 377 CURVE SMOOTH",
"501 945 LINE",
"664 945 LINE",
"664 1184 LINE",
"501 1184 LINE",
"501 1549 LINE",
"130 1549 LINE",
"130 1184 LINE",
"19 1184 LINE",
"19 945 LINE",
"130 945 LINE",
"130 461 LINE SMOOTH",
"130 228 OFFCURVE",
"155 -1 OFFCURVE",
"443 -13 CURVE SMOOTH"
);
}
);
width = 751;
}
);
leftKerningGroup = t;
rightKerningGroup = t;
unicode = 0074;
userData = {
com.fontlab.hintData = {
hhints = (
{
position = -13;
width = 313;
}
);
};
com.typemytype.robofont.layerData = {
b = {
anchors = (
);
components = (
);
contours = (
);
lib = {
};
name = t;
unicodes = (
);
width = 755;
};
};
};
},
{
glyphname = tbar;
lastChange = "2016-08-02 09:56:48 +0000";
layers = (
{
components = (
{
name = t;
}
);
layerId = "FCD7E481-103E-4A6C-AD70-01DA443B2AD0";
paths = (
{
closed = 1;
nodes = (
"478 742 LINE",
"478 809 LINE",
"60 809 LINE",
"60 742 LINE"
);
}
);
width = 500;
},
{
associatedMasterId = "FCD7E481-103E-4A6C-AD70-01DA443B2AD0";
layerId = "9E3458E5-430B-4A6C-9DB0-56F0B3DB062F";
name = b;
width = 500;
},
{
components = (
{
name = t;
}
);
layerId = "8AC5A1D3-32A8-4416-86FC-94176A419B8F";
paths = (
{
closed = 1;
nodes = (
"594 697 LINE",
"594 809 LINE",
"53 809 LINE",
"53 697 LINE"
);
}
);
width = 500;
},
{
components = (
{
name = t;
}
);
layerId = "3FB85DAF-C7EF-4F81-BE96-1E190958879E";
paths = (
{
closed = 1;
nodes = (
"659 599 LINE",
"659 752 LINE",
"19 752 LINE",
"19 599 LINE"
);
}
);
width = 745;
}
);
unicode = 0167;
userData = {
com.fontlab.hintData = {
hhints = (
{
position = -13;
width = 313;
}
);
};
com.typemytype.robofont.layerData = {
b = {
anchors = (
);
components = (
);
contours = (
);
lib = {
};
name = tbar;
unicodes = (
);
width = 500;
};
};
};
},
{
glyphname = u;
lastChange = "2016-08-02 09:57:56 +0000";
layers = (
{
layerId = "FCD7E481-103E-4A6C-AD70-01DA443B2AD0";
paths = (
{
closed = 1;
nodes = (
"405 -19 OFFCURVE",
"507 44 OFFCURVE",
"583 139 CURVE",
"583 0 LINE",
"691 0 LINE",
"691 1184 LINE",
"583 1184 LINE",
"583 208 LINE",
"512 125 OFFCURVE",
"423 66 OFFCURVE",
"339 66 CURVE SMOOTH",
"264 66 OFFCURVE",
"215 107 OFFCURVE",
"215 252 CURVE SMOOTH",
"215 1184 LINE",
"106 1184 LINE",
"106 240 LINE SMOOTH",
"106 51 OFFCURVE",
"187 -19 OFFCURVE",
"292 -19 CURVE SMOOTH"
);
}
);
width = 808;
},
{
associatedMasterId = "FCD7E481-103E-4A6C-AD70-01DA443B2AD0";
layerId = "81EEA61D-F192-43C0-B3BA-30F3CCB75E1B";
name = b;
width = 1075;
},
{
layerId = "8AC5A1D3-32A8-4416-86FC-94176A419B8F";
paths = (
{
closed = 1;
nodes = (
"395 -16 OFFCURVE",
"491 43 OFFCURVE",
"569 117 CURVE",
"569 0 LINE",
"788 0 LINE",
"788 1184 LINE",
"569 1184 LINE",
"569 229 LINE",
"520 188 OFFCURVE",
"465 156 OFFCURVE",
"416 156 CURVE SMOOTH",
"339 156 OFFCURVE",
"322 206 OFFCURVE",
"322 290 CURVE SMOOTH",
"322 1184 LINE",
"103 1184 LINE",
"103 226 LINE SMOOTH",
"103 111 OFFCURVE",
"139 -16 OFFCURVE",
"280 -16 CURVE SMOOTH"
);
}
);
width = 901;
},
{
layerId = "3FB85DAF-C7EF-4F81-BE96-1E190958879E";
paths = (
{
closed = 1;
nodes = (
"420 -22 OFFCURVE",
"512 24 OFFCURVE",
"600 107 CURVE",
"600 0 LINE",
"966 0 LINE",
"966 1184 LINE",
"600 1184 LINE",
"600 246 LINE",
"568 229 OFFCURVE",
"540 221 OFFCURVE",
"519 220 CURVE SMOOTH",
"475 218 OFFCURVE",
"457 245 OFFCURVE",
"457 294 CURVE SMOOTH",
"457 1184 LINE",
"91 1184 LINE",
"91 265 LINE SMOOTH",
"91 94 OFFCURVE",
"177 -22 OFFCURVE",
"322 -22 CURVE SMOOTH"
);
}
);
width = 1069;
}
);
leftKerningGroup = u;
rightKerningGroup = u;
unicode = 0075;
userData = {
com.fontlab.hintData = {
hhints = (
{
position = -22;
width = 258;
}
);
};
com.typemytype.robofont.layerData = {
b = {
anchors = (
);
components = (
);
contours = (
);
lib = {
};
name = u;
unicodes = (
);
width = 1075;
};
};
};
},
{
glyphname = v;
lastChange = "2016-08-02 09:57:56 +0000";
layers = (
{
layerId = "FCD7E481-103E-4A6C-AD70-01DA443B2AD0";
paths = (
{
closed = 1;
nodes = (
"433 0 LINE",
"692 1184 LINE",
"587 1184 LINE",
"371 138 LINE",
"149 1184 LINE",
"39 1184 LINE",
"311 0 LINE"
);
}
);
width = 731;
},
{
associatedMasterId = "FCD7E481-103E-4A6C-AD70-01DA443B2AD0";
layerId = "C6B74EBF-483B-4C34-9A77-AFBF07549F9B";
name = b;
width = 708;
},
{
layerId = "8AC5A1D3-32A8-4416-86FC-94176A419B8F";
paths = (
{
closed = 1;
nodes = (
"533 0 LINE",
"757 1184 LINE",
"544 1184 LINE",
"397 231 LINE",
"251 1184 LINE",
"31 1184 LINE",
"265 0 LINE"
);
}
);
width = 788;
},
{
layerId = "3FB85DAF-C7EF-4F81-BE96-1E190958879E";
paths = (
{
closed = 1;
nodes = (
"625 0 LINE",
"874 1184 LINE",
"525 1184 LINE",
"450 486 LINE",
"366 1184 LINE",
"18 1184 LINE",
"256 0 LINE"
);
}
);
width = 884;
}
);
unicode = 0076;
userData = {
com.typemytype.robofont.layerData = {
b = {
anchors = (
);
components = (
);
contours = (
);
lib = {
};
name = v;
unicodes = (
);
width = 708;
};
};
};
},
{
glyphname = w;
lastChange = "2016-08-02 09:57:56 +0000";
layers = (
{
layerId = "FCD7E481-103E-4A6C-AD70-01DA443B2AD0";
paths = (
{
closed = 1;
nodes = (
"386 0 LINE",
"585 1039 LINE",
"791 0 LINE",
"904 0 LINE",
"1093 1184 LINE",
"997 1184 LINE",
"843 129 LINE",
"636 1184 LINE",
"530 1184 LINE",
"328 124 LINE",
"163 1184 LINE",
"67 1184 LINE",
"263 0 LINE"
);
}
);
width = 1160;
},
{
associatedMasterId = "FCD7E481-103E-4A6C-AD70-01DA443B2AD0";
layerId = "5F1A9E24-9E70-4E27-9F2A-D3F1D251C808";
name = b;
width = 1142;
},
{
layerId = "8AC5A1D3-32A8-4416-86FC-94176A419B8F";
paths = (
{
closed = 1;
nodes = (
"445 0 LINE",
"605 835 LINE",
"765 0 LINE",
"951 0 LINE",
"1146 1184 LINE",
"967 1184 LINE",
"843 315 LINE",
"686 1184 LINE",
"519 1184 LINE",
"361 312 LINE",
"238 1184 LINE",
"58 1184 LINE",
"247 0 LINE"
);
}
);
width = 1204;
},
{
layerId = "3FB85DAF-C7EF-4F81-BE96-1E190958879E";
paths = (
{
closed = 1;
nodes = (
"517 0 LINE",
"618 616 LINE",
"702 0 LINE",
"1017 0 LINE",
"1190 1184 LINE",
"908 1184 LINE",
"816 548 LINE",
"758 1184 LINE",
"496 1184 LINE",
"421 569 LINE",
"346 1184 LINE",
"39 1184 LINE",
"209 0 LINE"
);
}
);
width = 1229;
}
);
leftKerningGroup = w;
rightKerningGroup = w;
unicode = 0077;
userData = {
com.fontlab.hintData = {
vhints = (
{
position = 495;
width = 266;
}
);
};
com.typemytype.robofont.layerData = {
b = {
anchors = (
);
components = (
);
contours = (
);
lib = {
};
name = w;
unicodes = (
);
width = 1142;
};
};
};
},
{
glyphname = x;
lastChange = "2016-08-02 09:57:56 +0000";
layers = (
{
layerId = "FCD7E481-103E-4A6C-AD70-01DA443B2AD0";
paths = (
{
closed = 1;
nodes = (
"148 0 LINE",
"383 504 LINE",
"625 0 LINE",
"728 0 LINE",
"443 606 LINE",
"723 1184 LINE",
"611 1184 LINE",
"392 714 LINE",
"171 1184 LINE",
"59 1184 LINE",
"330 617 LINE",
"41 0 LINE"
);
}
);
width = 767;
},
{
associatedMasterId = "FCD7E481-103E-4A6C-AD70-01DA443B2AD0";
layerId = "CDD1C723-703C-486E-B65C-1FBCAA29EF53";
name = b;
width = 756;
},
{
layerId = "8AC5A1D3-32A8-4416-86FC-94176A419B8F";
paths = (
{
closed = 1;
nodes = (
"226 0 LINE",
"386 402 LINE",
"572 0 LINE",
"781 0 LINE",
"506 595 LINE",
"776 1184 LINE",
"561 1184 LINE",
"407 809 LINE",
"234 1184 LINE",
"24 1184 LINE",
"284 622 LINE",
"19 0 LINE"
);
}
);
width = 796;
},
{
layerId = "3FB85DAF-C7EF-4F81-BE96-1E190958879E";
paths = (
{
closed = 1;
nodes = (
"320 0 LINE",
"426 303 LINE",
"560 0 LINE",
"935 0 LINE",
"669 601 LINE",
"893 1184 LINE",
"625 1184 LINE",
"525 925 LINE",
"410 1184 LINE",
"38 1184 LINE",
"270 658 LINE",
"22 0 LINE"
);
}
);
width = 939;
}
);
unicode = 0078;
userData = {
com.typemytype.robofont.layerData = {
b = {
anchors = (
);
components = (
);
contours = (
);
lib = {
};
name = x;
unicodes = (
);
width = 756;
};
};
};
},
{
glyphname = y;
lastChange = "2016-08-02 09:57:56 +0000";
layers = (
{
layerId = "FCD7E481-103E-4A6C-AD70-01DA443B2AD0";
paths = (
{
closed = 1;
nodes = (
"121 -295 LINE",
"313 -295 OFFCURVE",
"402 -236 OFFCURVE",
"434 -97 CURVE SMOOTH",
"723 1184 LINE",
"614 1184 LINE",
"390 103 LINE",
"156 1184 LINE",
"49 1184 LINE",
"69 1097 OFFCURVE",
"276 206 OFFCURVE",
"297 120 CURVE SMOOTH",
"310 64 OFFCURVE",
"327 -5 OFFCURVE",
"331 -44 CURVE SMOOTH",
"338 -149 OFFCURVE",
"309 -207 OFFCURVE",
"76 -207 CURVE",
"76 -295 LINE"
);
}
);
width = 767;
},
{
layerId = "8AC5A1D3-32A8-4416-86FC-94176A419B8F";
paths = (
{
closed = 1;
nodes = (
"119 -296 LINE",
"334 -296 OFFCURVE",
"458 -238 OFFCURVE",
"497 -65 CURVE SMOOTH",
"781 1184 LINE",
"559 1184 LINE",
"405 299 LINE",
"246 1184 LINE",
"24 1184 LINE",
"95 884 OFFCURVE",
"191 476 OFFCURVE",
"262 176 CURVE SMOOTH",
"275 122 OFFCURVE",
"288 65 OFFCURVE",
"300 13 CURVE SMOOTH",
"325 -102 OFFCURVE",
"287 -130 OFFCURVE",
"92 -130 CURVE",
"92 -296 LINE"
);
}
);
width = 802;
},
{
layerId = "3FB85DAF-C7EF-4F81-BE96-1E190958879E";
paths = (
{
closed = 1;
nodes = (
"203 -358 LINE",
"400 -361 OFFCURVE",
"599 -300 OFFCURVE",
"651 -65 CURVE SMOOTH",
"929 1184 LINE",
"588 1184 LINE",
"488 558 LINE",
"341 1184 LINE",
"0 1184 LINE",
"3 1171 OFFCURVE",
"286 203 OFFCURVE",
"290 190 CURVE SMOOTH",
"301 152 OFFCURVE",
"334 28 OFFCURVE",
"334 -4 CURVE SMOOTH",
"335 -99 OFFCURVE",
"264 -109 OFFCURVE",
"150 -109 CURVE",
"150 -358 LINE"
);
}
);
width = 951;
}
);
leftKerningGroup = y;
rightKerningGroup = y;
unicode = 0079;
userData = {
com.fontlab.hintData = {
};
hhints = {
};
position = -294;
width = 56;
};
},
{
glyphname = z;
lastChange = "2016-08-02 09:57:56 +0000";
layers = (
{
layerId = "FCD7E481-103E-4A6C-AD70-01DA443B2AD0";
paths = (
{
closed = 1;
nodes = (
"597 0 LINE",
"597 83 LINE",
"181 83 LINE",
"605 1113 LINE",
"605 1184 LINE",
"111 1184 LINE",
"111 1100 LINE",
"493 1100 LINE",
"66 79 LINE",
"66 0 LINE"
);
}
);
width = 666;
},
{
associatedMasterId = "FCD7E481-103E-4A6C-AD70-01DA443B2AD0";
layerId = "2B42D809-E944-4BD9-8968-66C364E1B0A4";
name = b;
width = 648;
},
{
layerId = "8AC5A1D3-32A8-4416-86FC-94176A419B8F";
paths = (
{
closed = 1;
nodes = (
"655 0 LINE",
"655 165 LINE",
"300 165 LINE",
"663 1065 LINE",
"663 1184 LINE",
"102 1184 LINE",
"102 1020 LINE",
"428 1020 LINE",
"65 147 LINE",
"65 0 LINE"
);
}
);
width = 710;
},
{
layerId = "3FB85DAF-C7EF-4F81-BE96-1E190958879E";
paths = (
{
closed = 1;
nodes = (
"776 0 LINE",
"776 267 LINE",
"451 267 LINE",
"767 956 LINE",
"767 1184 LINE",
"94 1184 LINE",
"94 918 LINE",
"390 918 LINE",
"73 235 LINE",
"73 0 LINE"
);
}
);
width = 829;
}
);
leftKerningGroup = z;
rightKerningGroup = z;
unicode = 007A;
userData = {
com.fontlab.hintData = {
vhints = (
{
position = 56;
width = 676;
}
);
};
com.typemytype.robofont.layerData = {
b = {
anchors = (
);
components = (
);
contours = (
);
lib = {
};
name = z;
unicodes = (
);
width = 648;
};
};
};
},
{
glyphname = uniFB01;
lastChange = "2016-08-02 09:57:56 +0000";
layers = (
{
layerId = "FCD7E481-103E-4A6C-AD70-01DA443B2AD0";
paths = (
{
closed = 1;
nodes = (
"303 0 LINE",
"303 1107 LINE",
"625 1107 LINE",
"625 0 LINE",
"734 0 LINE",
"734 1184 LINE",
"303 1184 LINE",
"303 1346 LINE SMOOTH",
"303 1480 OFFCURVE",
"318 1526 OFFCURVE",
"410 1526 CURVE SMOOTH",
"436 1526 OFFCURVE",
"468 1521 OFFCURVE",
"496 1515 CURVE",
"496 1598 LINE",
"467 1606 OFFCURVE",
"423 1612 OFFCURVE",
"394 1612 CURVE SMOOTH",
"216 1612 OFFCURVE",
"195 1498 OFFCURVE",
"195 1344 CURVE SMOOTH",
"195 1184 LINE",
"35 1184 LINE",
"35 1107 LINE",
"195 1107 LINE",
"195 0 LINE"
);
},
{
closed = 1;
nodes = (
"734 1339 LINE",
"734 1528 LINE",
"631 1528 LINE",
"631 1339 LINE"
);
}
);
width = 879;
},
{
associatedMasterId = "FCD7E481-103E-4A6C-AD70-01DA443B2AD0";
layerId = "380FB0A8-AE65-49F8-8745-75638EAE01AD";
name = b;
width = 827;
},
{
layerId = "8AC5A1D3-32A8-4416-86FC-94176A419B8F";
paths = (
{
closed = 1;
nodes = (
"399 0 LINE",
"399 1021 LINE",
"664 1021 LINE",
"664 0 LINE",
"883 0 LINE",
"883 1184 LINE",
"399 1184 LINE",
"399 1283 LINE SMOOTH",
"399 1390 OFFCURVE",
"417 1433 OFFCURVE",
"503 1433 CURVE SMOOTH",
"524 1433 OFFCURVE",
"550 1430 OFFCURVE",
"579 1425 CURVE",
"579 1589 LINE",
"537 1595 OFFCURVE",
"496 1598 OFFCURVE",
"461 1598 CURVE SMOOTH",
"245 1598 OFFCURVE",
"181 1480 OFFCURVE",
"181 1245 CURVE SMOOTH",
"181 1184 LINE",
"38 1184 LINE",
"38 1021 LINE",
"181 1021 LINE",
"181 0 LINE"
);
},
{
closed = 1;
nodes = (
"884 1359 LINE",
"884 1589 LINE",
"684 1589 LINE",
"684 1359 LINE"
);
}
);
width = 1006;
},
{
layerId = "3FB85DAF-C7EF-4F81-BE96-1E190958879E";
paths = (
{
closed = 1;
nodes = (
"498 0 LINE",
"498 941 LINE",
"704 941 LINE",
"704 0 LINE",
"1066 0 LINE",
"1066 1184 LINE",
"498 1184 LINE",
"498 1285 LINE SMOOTH",
"498 1354 OFFCURVE",
"530 1370 OFFCURVE",
"568 1370 CURVE SMOOTH",
"581 1370 OFFCURVE",
"594 1368 OFFCURVE",
"606 1366 CURVE",
"606 1614 LINE",
"551 1623 OFFCURVE",
"501 1627 OFFCURVE",
"457 1627 CURVE SMOOTH",
"201 1627 OFFCURVE",
"131 1483 OFFCURVE",
"131 1280 CURVE SMOOTH",
"131 1184 LINE",
"27 1184 LINE",
"27 941 LINE",
"131 941 LINE",
"131 0 LINE"
);
},
{
closed = 1;
nodes = (
"1066 1390 LINE",
"1066 1625 LINE",
"725 1625 LINE",
"725 1390 LINE"
);
}
);
width = 1165;
}
);
unicode = FB01;
userData = {
com.fontlab.hintData = {
hhints = (
{
position = 1303;
width = 277;
}
);
vhints = (
{
position = 80;
width = 32;
}
);
};
com.typemytype.robofont.guides = (
);
com.typemytype.robofont.layerData = {
b = {
anchors = (
);
components = (
);
contours = (
);
lib = {
};
name = uniFB01;
unicodes = (
);
width = 827;
};
};
};
},
{
glyphname = uniFB02;
lastChange = "2016-08-02 09:57:56 +0000";
layers = (
{
layerId = "FCD7E481-103E-4A6C-AD70-01DA443B2AD0";
paths = (
{
closed = 1;
nodes = (
"303 0 LINE",
"303 1107 LINE",
"501 1107 LINE",
"501 1184 LINE",
"303 1184 LINE",
"303 1184 OFFCURVE",
"303 1336 OFFCURVE",
"303 1337 CURVE SMOOTH",
"303 1455 OFFCURVE",
"309 1547 OFFCURVE",
"512 1547 CURVE SMOOTH",
"554 1547 OFFCURVE",
"604 1543 OFFCURVE",
"666 1535 CURVE",
"666 0 LINE",
"775 0 LINE",
"775 1598 LINE",
"664 1620 OFFCURVE",
"575 1630 OFFCURVE",
"503 1630 CURVE SMOOTH",
"212 1630 OFFCURVE",
"195 1476 OFFCURVE",
"195 1344 CURVE SMOOTH",
"195 1184 LINE",
"35 1184 LINE",
"35 1107 LINE",
"195 1107 LINE",
"195 0 LINE"
);
}
);
width = 910;
},
{
associatedMasterId = "FCD7E481-103E-4A6C-AD70-01DA443B2AD0";
layerId = "32FC97EC-BBD9-4420-8A42-C47743B63620";
name = b;
width = 851;
},
{
layerId = "8AC5A1D3-32A8-4416-86FC-94176A419B8F";
paths = (
{
closed = 1;
nodes = (
"399 0 LINE",
"399 1021 LINE",
"580 1021 LINE",
"580 1184 LINE",
"399 1184 LINE",
"399 1184 OFFCURVE",
"399 1249 OFFCURVE",
"399 1250 CURVE SMOOTH",
"399 1382 OFFCURVE",
"401 1477 OFFCURVE",
"592 1477 CURVE SMOOTH",
"627 1477 OFFCURVE",
"667 1474 OFFCURVE",
"716 1468 CURVE",
"716 0 LINE",
"936 0 LINE",
"936 1589 LINE",
"781 1624 OFFCURVE",
"657 1640 OFFCURVE",
"559 1640 CURVE SMOOTH",
"189 1640 OFFCURVE",
"181 1420 OFFCURVE",
"181 1245 CURVE SMOOTH",
"181 1184 LINE",
"38 1184 LINE",
"38 1021 LINE",
"181 1021 LINE",
"181 0 LINE"
);
}
);
width = 1054;
},
{
layerId = "3FB85DAF-C7EF-4F81-BE96-1E190958879E";
paths = (
{
closed = 1;
nodes = (
"488 0 LINE",
"488 929 LINE",
"597 929 LINE",
"597 1184 LINE",
"488 1184 LINE",
"488 1184 OFFCURVE",
"488 1276 OFFCURVE",
"488 1276 CURVE SMOOTH",
"488 1352 OFFCURVE",
"499 1415 OFFCURVE",
"646 1415 CURVE SMOOTH",
"663 1415 OFFCURVE",
"682 1415 OFFCURVE",
"702 1413 CURVE",
"702 0 LINE",
"1069 0 LINE",
"1069 1614 LINE",
"886 1644 OFFCURVE",
"739 1657 OFFCURVE",
"620 1657 CURVE SMOOTH",
"156 1657 OFFCURVE",
"121 1458 OFFCURVE",
"121 1280 CURVE SMOOTH",
"121 1184 LINE",
"17 1184 LINE",
"17 929 LINE",
"121 929 LINE",
"121 0 LINE"
);
}
);
width = 1151;
}
);
unicode = FB02;
userData = {
com.fontlab.hintData = {
vhints = (
{
position = 80;
width = 32;
}
);
};
com.typemytype.robofont.layerData = {
b = {
anchors = (
);
components = (
);
contours = (
);
lib = {
};
name = uniFB02;
unicodes = (
);
width = 851;
};
};
};
},
{
glyphname = uniFB03;
lastChange = "2016-08-02 09:57:56 +0000";
layers = (
{
layerId = "FCD7E481-103E-4A6C-AD70-01DA443B2AD0";
paths = (
{
closed = 1;
nodes = (
"303 0 LINE",
"303 1107 LINE",
"672 1107 LINE",
"672 0 LINE",
"780 0 LINE",
"780 1107 LINE",
"1142 1107 LINE",
"1142 0 LINE",
"1251 0 LINE",
"1251 1184 LINE",
"780 1184 LINE",
"780 1346 LINE SMOOTH",
"780 1475 OFFCURVE",
"794 1527 OFFCURVE",
"886 1527 CURVE SMOOTH",
"912 1527 OFFCURVE",
"946 1520 OFFCURVE",
"973 1515 CURVE",
"973 1598 LINE",
"940 1607 OFFCURVE",
"899 1612 OFFCURVE",
"864 1612 CURVE SMOOTH",
"685 1612 OFFCURVE",
"672 1494 OFFCURVE",
"672 1344 CURVE SMOOTH",
"672 1184 LINE",
"303 1184 LINE",
"303 1346 LINE SMOOTH",
"303 1475 OFFCURVE",
"317 1527 OFFCURVE",
"409 1527 CURVE SMOOTH",
"435 1527 OFFCURVE",
"469 1520 OFFCURVE",
"496 1515 CURVE",
"496 1598 LINE",
"463 1607 OFFCURVE",
"422 1612 OFFCURVE",
"387 1612 CURVE SMOOTH",
"208 1612 OFFCURVE",
"195 1494 OFFCURVE",
"195 1344 CURVE SMOOTH",
"195 1184 LINE",
"35 1184 LINE",
"35 1107 LINE",
"195 1107 LINE",
"195 0 LINE"
);
},
{
closed = 1;
nodes = (
"1251 1339 LINE",
"1251 1528 LINE",
"1142 1528 LINE",
"1142 1339 LINE"
);
}
);
width = 1396;
},
{
associatedMasterId = "FCD7E481-103E-4A6C-AD70-01DA443B2AD0";
layerId = "44E494FB-1D23-4073-A5F6-59B471DCABF3";
name = b;
width = 1351;
},
{
layerId = "8AC5A1D3-32A8-4416-86FC-94176A419B8F";
paths = (
{
closed = 1;
nodes = (
"399 0 LINE",
"399 1021 LINE",
"673 1021 LINE",
"673 0 LINE",
"891 0 LINE",
"891 1021 LINE",
"1165 1021 LINE",
"1165 0 LINE",
"1383 0 LINE",
"1383 1184 LINE",
"891 1184 LINE",
"891 1283 LINE SMOOTH",
"891 1374 OFFCURVE",
"904 1435 OFFCURVE",
"990 1435 CURVE SMOOTH",
"1013 1435 OFFCURVE",
"1046 1428 OFFCURVE",
"1071 1425 CURVE",
"1071 1589 LINE",
"1014 1596 OFFCURVE",
"984 1600 OFFCURVE",
"929 1600 CURVE SMOOTH",
"706 1600 OFFCURVE",
"673 1464 OFFCURVE",
"673 1245 CURVE SMOOTH",
"673 1184 LINE",
"399 1184 LINE",
"399 1283 LINE SMOOTH",
"399 1374 OFFCURVE",
"412 1435 OFFCURVE",
"498 1435 CURVE SMOOTH",
"522 1435 OFFCURVE",
"555 1428 OFFCURVE",
"579 1425 CURVE",
"579 1589 LINE",
"523 1596 OFFCURVE",
"492 1600 OFFCURVE",
"437 1600 CURVE SMOOTH",
"214 1600 OFFCURVE",
"181 1464 OFFCURVE",
"181 1245 CURVE SMOOTH",
"181 1184 LINE",
"38 1184 LINE",
"38 1021 LINE",
"181 1021 LINE",
"181 0 LINE"
);
},
{
closed = 1;
nodes = (
"1384 1359 LINE",
"1384 1589 LINE",
"1165 1589 LINE",
"1165 1359 LINE"
);
}
);
width = 1507;
},
{
layerId = "3FB85DAF-C7EF-4F81-BE96-1E190958879E";
paths = (
{
closed = 1;
nodes = (
"488 0 LINE",
"488 944 LINE",
"680 944 LINE",
"680 0 LINE",
"1046 0 LINE",
"1046 944 LINE",
"1233 944 LINE",
"1233 0 LINE",
"1600 0 LINE",
"1600 1184 LINE",
"1046 1184 LINE",
"1046 1278 LINE SMOOTH",
"1046 1335 OFFCURVE",
"1073 1350 OFFCURVE",
"1106 1350 CURVE SMOOTH",
"1125 1350 OFFCURVE",
"1146 1345 OFFCURVE",
"1165 1342 CURVE",
"1165 1614 LINE",
"1103 1621 OFFCURVE",
"1073 1624 OFFCURVE",
"1024 1624 CURVE SMOOTH",
"718 1624 OFFCURVE",
"680 1485 OFFCURVE",
"680 1280 CURVE SMOOTH",
"680 1184 LINE",
"488 1184 LINE",
"488 1278 LINE SMOOTH",
"488 1335 OFFCURVE",
"511 1350 OFFCURVE",
"544 1350 CURVE SMOOTH",
"562 1350 OFFCURVE",
"582 1345 OFFCURVE",
"601 1342 CURVE",
"601 1614 LINE",
"539 1621 OFFCURVE",
"515 1624 OFFCURVE",
"466 1624 CURVE SMOOTH",
"159 1624 OFFCURVE",
"121 1485 OFFCURVE",
"121 1280 CURVE SMOOTH",
"121 1184 LINE",
"17 1184 LINE",
"17 944 LINE",
"121 944 LINE",
"121 0 LINE"
);
},
{
closed = 1;
nodes = (
"1600 1390 LINE",
"1600 1625 LINE",
"1270 1625 LINE",
"1270 1390 LINE"
);
}
);
width = 1686;
}
);
userData = {
com.fontlab.hintData = {
};
com.typemytype.robofont.layerData = {
b = {
anchors = (
);
components = (
);
contours = (
);
lib = {
};
name = uniFB03;
unicodes = (
);
width = 1351;
};
};
hhints = {
};
position = 1234;
vhints = {
};
width = 237;
};
},
{
glyphname = ordfeminine;
lastChange = "2016-08-02 09:57:56 +0000";
layers = (
{
layerId = "FCD7E481-103E-4A6C-AD70-01DA443B2AD0";
paths = (
{
closed = 1;
nodes = (
"451 719 OFFCURVE",
"537 775 OFFCURVE",
"573 852 CURVE",
"581 733 LINE",
"663 733 LINE",
"663 1342 LINE SMOOTH",
"663 1576 OFFCURVE",
"610 1680 OFFCURVE",
"429 1680 CURVE SMOOTH",
"267 1680 OFFCURVE",
"178 1598 OFFCURVE",
"174 1424 CURVE",
"264 1422 LINE",
"264 1573 OFFCURVE",
"346 1607 OFFCURVE",
"429 1607 CURVE SMOOTH",
"530 1607 OFFCURVE",
"568 1546 OFFCURVE",
"568 1351 CURVE SMOOTH",
"568 1273 LINE",
"220 1132 OFFCURVE",
"145 1077 OFFCURVE",
"145 921 CURVE SMOOTH",
"145 798 OFFCURVE",
"228 719 OFFCURVE",
"354 719 CURVE"
);
},
{
closed = 1;
nodes = (
"312 794 OFFCURVE",
"240 826 OFFCURVE",
"240 931 CURVE SMOOTH",
"240 1070 OFFCURVE",
"312 1101 OFFCURVE",
"568 1218 CURVE",
"568 927 LINE",
"528 853 OFFCURVE",
"464 794 OFFCURVE",
"374 794 CURVE SMOOTH"
);
}
);
width = 803;
},
{
layerId = "8AC5A1D3-32A8-4416-86FC-94176A419B8F";
paths = (
{
closed = 1;
nodes = (
"462 658 OFFCURVE",
"541 720 OFFCURVE",
"581 800 CURVE",
"582 670 LINE",
"758 670 LINE",
"758 1287 LINE SMOOTH",
"758 1539 OFFCURVE",
"705 1683 OFFCURVE",
"479 1683 CURVE SMOOTH",
"296 1683 OFFCURVE",
"194 1547 OFFCURVE",
"190 1345 CURVE",
"370 1345 LINE",
"370 1446 OFFCURVE",
"397 1525 OFFCURVE",
"477 1525 CURVE SMOOTH",
"550 1525 OFFCURVE",
"565 1447 OFFCURVE",
"565 1348 CURVE SMOOTH",
"565 1240 LINE",
"366 1170 OFFCURVE",
"157 1115 OFFCURVE",
"157 884 CURVE SMOOTH",
"157 753 OFFCURVE",
"244 658 OFFCURVE",
"365 658 CURVE"
);
},
{
closed = 1;
nodes = (
"386 825 OFFCURVE",
"352 863 OFFCURVE",
"352 930 CURVE SMOOTH",
"352 1042 OFFCURVE",
"456 1095 OFFCURVE",
"565 1154 CURVE",
"565 921 LINE",
"543 872 OFFCURVE",
"494 825 OFFCURVE",
"436 825 CURVE SMOOTH"
);
}
);
width = 908;
},
{
layerId = "3FB85DAF-C7EF-4F81-BE96-1E190958879E";
paths = (
{
closed = 1;
nodes = (
"488 637 OFFCURVE",
"558 710 OFFCURVE",
"587 795 CURVE",
"611 656 LINE",
"899 656 LINE",
"899 1380 LINE SMOOTH",
"899 1550 OFFCURVE",
"780 1682 OFFCURVE",
"551 1682 CURVE SMOOTH",
"296 1682 OFFCURVE",
"135 1579 OFFCURVE",
"134 1319 CURVE",
"453 1308 LINE",
"466 1419 OFFCURVE",
"475 1450 OFFCURVE",
"518 1450 CURVE SMOOTH",
"557 1450 OFFCURVE",
"570 1419 OFFCURVE",
"570 1386 CURVE SMOOTH",
"570 1276 LINE",
"413 1218 OFFCURVE",
"103 1158 OFFCURVE",
"103 886 CURVE SMOOTH",
"103 768 OFFCURVE",
"193 641 OFFCURVE",
"376 637 CURVE"
);
},
{
closed = 1;
nodes = (
"451 841 OFFCURVE",
"412 878 OFFCURVE",
"412 941 CURVE SMOOTH",
"412 1001 OFFCURVE",
"466 1107 OFFCURVE",
"570 1152 CURVE",
"570 880 LINE",
"549 853 OFFCURVE",
"521 841 OFFCURVE",
"496 841 CURVE SMOOTH"
);
}
);
width = 1012;
}
);
unicode = 00AA;
userData = {
com.fontlab.hintData = {
hhints = (
{
position = 637;
width = 204;
},
{
position = 1447;
width = 235;
}
);
vhints = (
{
position = 101;
width = 313;
}
);
};
};
},
{
glyphname = ordmasculine;
lastChange = "2016-08-02 09:57:56 +0000";
layers = (
{
layerId = "FCD7E481-103E-4A6C-AD70-01DA443B2AD0";
paths = (
{
closed = 1;
nodes = (
"617 718 OFFCURVE",
"672 843 OFFCURVE",
"672 1018 CURVE SMOOTH",
"672 1381 LINE SMOOTH",
"672 1556 OFFCURVE",
"608 1680 OFFCURVE",
"401 1680 CURVE SMOOTH",
"192 1680 OFFCURVE",
"131 1559 OFFCURVE",
"131 1381 CURVE SMOOTH",
"131 1018 LINE SMOOTH",
"131 840 OFFCURVE",
"184 718 OFFCURVE",
"401 718 CURVE SMOOTH"
);
},
{
closed = 1;
nodes = (
"254 787 OFFCURVE",
"216 884 OFFCURVE",
"216 1020 CURVE SMOOTH",
"216 1379 LINE SMOOTH",
"216 1514 OFFCURVE",
"256 1611 OFFCURVE",
"400 1611 CURVE SMOOTH",
"546 1611 OFFCURVE",
"584 1514 OFFCURVE",
"584 1379 CURVE SMOOTH",
"584 1020 LINE SMOOTH",
"584 884 OFFCURVE",
"547 787 OFFCURVE",
"400 787 CURVE SMOOTH"
);
}
);
width = 803;
},
{
layerId = "8AC5A1D3-32A8-4416-86FC-94176A419B8F";
paths = (
{
closed = 1;
nodes = (
"683 655 OFFCURVE",
"771 812 OFFCURVE",
"771 1035 CURVE SMOOTH",
"771 1304 LINE SMOOTH",
"771 1528 OFFCURVE",
"682 1683 OFFCURVE",
"454 1683 CURVE SMOOTH",
"215 1683 OFFCURVE",
"137 1537 OFFCURVE",
"137 1304 CURVE SMOOTH",
"137 1035 LINE SMOOTH",
"137 802 OFFCURVE",
"214 655 OFFCURVE",
"454 655 CURVE SMOOTH"
);
},
{
closed = 1;
nodes = (
"327 816 OFFCURVE",
"319 931 OFFCURVE",
"319 1059 CURVE SMOOTH",
"319 1280 LINE SMOOTH",
"319 1408 OFFCURVE",
"327 1522 OFFCURVE",
"450 1522 CURVE SMOOTH",
"576 1522 OFFCURVE",
"578 1409 OFFCURVE",
"578 1280 CURVE SMOOTH",
"578 1059 LINE SMOOTH",
"578 930 OFFCURVE",
"575 816 OFFCURVE",
"450 816 CURVE SMOOTH"
);
}
);
width = 908;
},
{
layerId = "3FB85DAF-C7EF-4F81-BE96-1E190958879E";
paths = (
{
closed = 1;
nodes = (
"708 637 OFFCURVE",
"870 734 OFFCURVE",
"870 942 CURVE SMOOTH",
"870 1378 LINE SMOOTH",
"870 1586 OFFCURVE",
"708 1683 OFFCURVE",
"504 1683 CURVE SMOOTH",
"300 1683 OFFCURVE",
"142 1586 OFFCURVE",
"142 1378 CURVE SMOOTH",
"142 942 LINE SMOOTH",
"142 735 OFFCURVE",
"300 637 OFFCURVE",
"504 637 CURVE SMOOTH"
);
},
{
closed = 1;
nodes = (
"466 849 OFFCURVE",
"438 876 OFFCURVE",
"438 938 CURVE SMOOTH",
"438 1382 LINE SMOOTH",
"438 1445 OFFCURVE",
"466 1471 OFFCURVE",
"505 1471 CURVE SMOOTH",
"546 1471 OFFCURVE",
"575 1447 OFFCURVE",
"575 1382 CURVE SMOOTH",
"575 938 LINE SMOOTH",
"575 874 OFFCURVE",
"546 849 OFFCURVE",
"505 849 CURVE SMOOTH"
);
}
);
width = 1012;
}
);
unicode = 00BA;
userData = {
com.fontlab.hintData = {
hhints = (
{
position = 637;
width = 213;
},
{
position = 1469;
width = 214;
}
);
vhints = (
{
position = 142;
width = 300;
},
{
position = 575;
width = 299;
}
);
};
};
},
{
glyphname = afii10017;
lastChange = "2016-08-02 09:57:56 +0000";
layers = (
{
layerId = "FCD7E481-103E-4A6C-AD70-01DA443B2AD0";
paths = (
{
closed = 1;
nodes = (
"166 0 LINE",
"254 458 LINE",
"685 458 LINE",
"771 0 LINE",
"883 0 LINE",
"532 1658 LINE",
"404 1658 LINE",
"55 0 LINE"
);
},
{
closed = 1;
nodes = (
"469 1523 LINE",
"669 541 LINE",
"271 541 LINE"
);
}
);
width = 938;
},
{
associatedMasterId = "FCD7E481-103E-4A6C-AD70-01DA443B2AD0";
layerId = "2C328BFF-1A78-46A0-8C93-DD77D5603EE3";
name = b;
width = 1122;
},
{
layerId = "8AC5A1D3-32A8-4416-86FC-94176A419B8F";
paths = (
{
closed = 1;
nodes = (
"256 0 LINE",
"334 418 LINE",
"672 418 LINE",
"748 0 LINE",
"968 0 LINE",
"613 1658 LINE",
"391 1658 LINE",
"37 0 LINE"
);
},
{
closed = 1;
nodes = (
"503 1332 LINE",
"642 583 LINE",
"365 583 LINE"
);
}
);
width = 1005;
},
{
layerId = "3FB85DAF-C7EF-4F81-BE96-1E190958879E";
paths = (
{
closed = 1;
nodes = (
"406 0 LINE",
"455 331 LINE",
"671 331 LINE",
"723 0 LINE",
"1094 0 LINE",
"796 1658 LINE",
"324 1658 LINE",
"23 0 LINE"
);
},
{
closed = 1;
nodes = (
"562 1184 LINE",
"637 565 LINE",
"487 565 LINE"
);
}
);
width = 1118;
}
);
unicode = 0410;
userData = {
com.typemytype.robofont.layerData = {
b = {
anchors = (
);
components = (
);
contours = (
);
lib = {
};
name = afii10017;
unicodes = (
);
width = 1122;
};
};
};
},
{
glyphname = afii10018;
lastChange = "2016-08-02 09:57:56 +0000";
layers = (
{
layerId = "FCD7E481-103E-4A6C-AD70-01DA443B2AD0";
paths = (
{
closed = 1;
nodes = (
"450 0 LINE SMOOTH",
"772 0 OFFCURVE",
"890 194 OFFCURVE",
"890 470 CURVE SMOOTH",
"890 795 OFFCURVE",
"752 959 OFFCURVE",
"446 959 CURVE SMOOTH",
"264 959 LINE",
"264 1573 LINE",
"790 1573 LINE",
"790 1658 LINE",
"152 1658 LINE",
"152 0 LINE"
);
},
{
closed = 1;
nodes = (
"264 868 LINE",
"452 868 LINE SMOOTH",
"696 868 OFFCURVE",
"777 719 OFFCURVE",
"777 472 CURVE SMOOTH",
"777 225 OFFCURVE",
"695 91 OFFCURVE",
"453 91 CURVE SMOOTH",
"264 91 LINE"
);
}
);
width = 962;
},
{
associatedMasterId = "FCD7E481-103E-4A6C-AD70-01DA443B2AD0";
layerId = "F5856759-37C7-43FC-B285-B558C80DEF4F";
name = b;
width = 1175;
},
{
layerId = "8AC5A1D3-32A8-4416-86FC-94176A419B8F";
paths = (
{
closed = 1;
nodes = (
"424 0 LINE SMOOTH",
"782 0 OFFCURVE",
"945 144 OFFCURVE",
"945 486 CURVE SMOOTH",
"945 866 OFFCURVE",
"771 968 OFFCURVE",
"412 968 CURVE SMOOTH",
"361 968 LINE",
"361 1491 LINE",
"841 1491 LINE",
"841 1658 LINE",
"130 1658 LINE",
"130 0 LINE"
);
},
{
closed = 1;
nodes = (
"361 801 LINE",
"420 801 LINE SMOOTH",
"653 801 OFFCURVE",
"726 713 OFFCURVE",
"726 488 CURVE SMOOTH",
"726 216 OFFCURVE",
"630 166 OFFCURVE",
"425 166 CURVE SMOOTH",
"361 166 LINE"
);
}
);
width = 1012;
},
{
layerId = "3FB85DAF-C7EF-4F81-BE96-1E190958879E";
paths = (
{
closed = 1;
nodes = (
"575 0 LINE SMOOTH",
"847 0 OFFCURVE",
"1099 57 OFFCURVE",
"1099 478 CURVE SMOOTH",
"1099 795 OFFCURVE",
"922 955 OFFCURVE",
"621 955 CURVE SMOOTH",
"535 955 LINE",
"535 1347 LINE",
"985 1347 LINE",
"985 1658 LINE",
"130 1658 LINE",
"130 0 LINE"
);
},
{
closed = 1;
nodes = (
"535 676 LINE",
"573 676 LINE SMOOTH",
"697 676 OFFCURVE",
"721 580 OFFCURVE",
"725 487 CURVE SMOOTH",
"730 348 OFFCURVE",
"696 263 OFFCURVE",
"577 263 CURVE SMOOTH",
"535 263 LINE"
);
}
);
width = 1169;
}
);
unicode = 0411;
userData = {
com.fontlab.hintData = {
vhints = (
{
position = 683;
width = 380;
}
);
};
com.typemytype.robofont.layerData = {
b = {
anchors = (
);
components = (
);
contours = (
);
lib = {
};
name = afii10018;
unicodes = (
);
width = 1175;
};
};
};
},
{
glyphname = afii10019;
lastChange = "2016-08-02 09:57:56 +0000";
layers = (
{
layerId = "FCD7E481-103E-4A6C-AD70-01DA443B2AD0";
paths = (
{
closed = 1;
nodes = (
"545 0 LINE SMOOTH",
"864 0 OFFCURVE",
"915 233 OFFCURVE",
"915 483 CURVE SMOOTH",
"915 630 OFFCURVE",
"877 837 OFFCURVE",
"684 894 CURVE",
"845 934 OFFCURVE",
"879 1112 OFFCURVE",
"879 1245 CURVE SMOOTH",
"879 1475 OFFCURVE",
"800 1658 OFFCURVE",
"495 1658 CURVE SMOOTH",
"153 1658 LINE",
"153 0 LINE"
);
},
{
closed = 1;
nodes = (
"265 843 LINE",
"546 843 LINE SMOOTH",
"745 843 OFFCURVE",
"806 679 OFFCURVE",
"806 482 CURVE SMOOTH",
"806 213 OFFCURVE",
"750 88 OFFCURVE",
"531 88 CURVE SMOOTH",
"265 88 LINE"
);
},
{
closed = 1;
nodes = (
"265 1569 LINE",
"470 1569 LINE SMOOTH",
"729 1569 OFFCURVE",
"775 1430 OFFCURVE",
"775 1245 CURVE SMOOTH",
"775 1074 OFFCURVE",
"728 931 OFFCURVE",
"544 931 CURVE SMOOTH",
"265 931 LINE"
);
}
);
width = 1000;
},
{
associatedMasterId = "FCD7E481-103E-4A6C-AD70-01DA443B2AD0";
layerId = "8FDFF93B-375B-4D4D-BC8D-9A21DA5BB0A5";
name = b;
width = 1253.13;
},
{
layerId = "8AC5A1D3-32A8-4416-86FC-94176A419B8F";
paths = (
{
closed = 1;
nodes = (
"571 0 LINE SMOOTH",
"868 0 OFFCURVE",
"997 187 OFFCURVE",
"997 474 CURVE SMOOTH",
"997 708 OFFCURVE",
"913 845 OFFCURVE",
"715 893 CURVE",
"876 915 OFFCURVE",
"953 1039 OFFCURVE",
"953 1243 CURVE SMOOTH",
"953 1528 OFFCURVE",
"809 1658 OFFCURVE",
"509 1658 CURVE SMOOTH",
"130 1658 LINE",
"130 0 LINE"
);
},
{
closed = 1;
nodes = (
"361 790 LINE",
"498 790 LINE SMOOTH",
"701 790 OFFCURVE",
"777 680 OFFCURVE",
"777 474 CURVE SMOOTH",
"777 259 OFFCURVE",
"723 166 OFFCURVE",
"517 166 CURVE SMOOTH",
"361 166 LINE"
);
},
{
closed = 1;
nodes = (
"361 1487 LINE",
"415 1487 LINE SMOOTH",
"651 1487 OFFCURVE",
"751 1471 OFFCURVE",
"751 1243 CURVE SMOOTH",
"751 1047 OFFCURVE",
"692 966 OFFCURVE",
"497 966 CURVE SMOOTH",
"361 966 LINE"
);
}
);
width = 1073;
},
{
layerId = "3FB85DAF-C7EF-4F81-BE96-1E190958879E";
paths = (
{
closed = 1;
nodes = (
"660 0 LINE SMOOTH",
"985 0 OFFCURVE",
"1190 138 OFFCURVE",
"1184 498 CURVE SMOOTH",
"1180 732 OFFCURVE",
"1075 873 OFFCURVE",
"887 890 CURVE",
"1033 920 OFFCURVE",
"1125 1019 OFFCURVE",
"1130 1218 CURVE SMOOTH",
"1140 1612 OFFCURVE",
"857 1658 OFFCURVE",
"578 1658 CURVE SMOOTH",
"130 1658 LINE",
"130 0 LINE"
);
},
{
closed = 1;
nodes = (
"535 744 LINE",
"593 744 LINE SMOOTH",
"743 744 OFFCURVE",
"792 684 OFFCURVE",
"792 505 CURVE SMOOTH",
"792 361 OFFCURVE",
"742 283 OFFCURVE",
"591 283 CURVE SMOOTH",
"535 283 LINE"
);
},
{
closed = 1;
nodes = (
"535 1391 LINE",
"603 1391 LINE SMOOTH",
"711 1391 OFFCURVE",
"776 1309 OFFCURVE",
"776 1207 CURVE SMOOTH",
"776 1084 OFFCURVE",
"746 1003 OFFCURVE",
"590 1003 CURVE SMOOTH",
"535 1003 LINE"
);
}
);
width = 1246;
}
);
unicode = 0412;
userData = {
com.fontlab.hintData = {
hhints = (
{
position = 0;
width = 287;
},
{
position = 742;
width = 262;
},
{
position = 1388;
width = 270;
}
);
vhints = (
{
position = 745;
width = 360;
},
{
position = 761;
width = 398;
}
);
};
com.typemytype.robofont.layerData = {
b = {
anchors = (
);
components = (
);
contours = (
);
lib = {
};
name = afii10019;
unicodes = (
);
width = 1253.1271;
};
};
};
},
{
glyphname = afii10020;
lastChange = "2016-08-02 09:57:56 +0000";
layers = (
{
layerId = "FCD7E481-103E-4A6C-AD70-01DA443B2AD0";
paths = (
{
closed = 1;
nodes = (
"265 0 LINE",
"265 1569 LINE",
"716 1569 LINE",
"716 1658 LINE",
"153 1658 LINE",
"153 0 LINE"
);
}
);
width = 755;
},
{
associatedMasterId = "FCD7E481-103E-4A6C-AD70-01DA443B2AD0";
layerId = "35961E50-49F1-489E-8A1B-C45EBBA9260B";
name = b;
width = 1002;
},
{
layerId = "8AC5A1D3-32A8-4416-86FC-94176A419B8F";
paths = (
{
closed = 1;
nodes = (
"361 0 LINE",
"361 1487 LINE",
"759 1487 LINE",
"759 1658 LINE",
"130 1658 LINE",
"130 0 LINE"
);
}
);
width = 791;
},
{
layerId = "3FB85DAF-C7EF-4F81-BE96-1E190958879E";
paths = (
{
closed = 1;
nodes = (
"535 0 LINE",
"535 1358 LINE",
"935 1358 LINE",
"935 1658 LINE",
"130 1658 LINE",
"130 0 LINE"
);
}
);
width = 994;
}
);
leftKerningGroup = afii10020;
rightKerningGroup = afii10020;
unicode = 0413;
userData = {
com.typemytype.robofont.layerData = {
b = {
anchors = (
);
components = (
);
contours = (
);
lib = {
};
name = afii10020;
unicodes = (
);
width = 1002;
};
};
};
},
{
glyphname = uni0490;
lastChange = "2016-08-02 09:57:56 +0000";
layers = (
{
layerId = "FCD7E481-103E-4A6C-AD70-01DA443B2AD0";
paths = (
{
closed = 1;
nodes = (
"264 0 LINE",
"264 1572 LINE",
"727 1572 LINE",
"728 1837 LINE",
"652 1837 LINE",
"652 1658 LINE",
"152 1658 LINE",
"152 0 LINE"
);
}
);
width = 763;
},
{
associatedMasterId = "FCD7E481-103E-4A6C-AD70-01DA443B2AD0";
layerId = "A850848D-B50A-4962-9FCF-1DBC194E9FCE";
name = b;
width = 1002;
},
{
layerId = "8AC5A1D3-32A8-4416-86FC-94176A419B8F";
paths = (
{
closed = 1;
nodes = (
"361 0 LINE",
"361 1487 LINE",
"761 1487 LINE",
"761 1881 LINE",
"616 1881 LINE",
"617 1658 LINE",
"130 1658 LINE",
"130 0 LINE"
);
}
);
width = 772;
},
{
layerId = "3FB85DAF-C7EF-4F81-BE96-1E190958879E";
paths = (
{
closed = 1;
nodes = (
"535 0 LINE",
"535 1358 LINE",
"935 1358 LINE",
"935 1941 LINE",
"700 1941 LINE",
"700 1658 LINE",
"130 1658 LINE",
"130 0 LINE"
);
}
);
width = 993;
}
);
unicode = 0490;
userData = {
com.typemytype.robofont.layerData = {
b = {
anchors = (
);
components = (
);
contours = (
);
lib = {
};
name = uni0490;
unicodes = (
);
width = 1002;
};
};
};
},
{
glyphname = afii10021;
lastChange = "2016-08-02 09:57:56 +0000";
layers = (
{
layerId = "FCD7E481-103E-4A6C-AD70-01DA443B2AD0";
paths = (
{
closed = 1;
nodes = (
"108 -275 LINE",
"120 0 LINE",
"994 0 LINE",
"1006 -275 LINE",
"1096 -275 LINE",
"1096 87 LINE",
"974 87 LINE",
"974 1658 LINE",
"391 1658 LINE",
"348 1094 LINE SMOOTH",
"281 204 OFFCURVE",
"216 174 OFFCURVE",
"77 87 CURVE",
"18 87 LINE",
"18 -275 LINE"
);
},
{
closed = 1;
nodes = (
"316 162 OFFCURVE",
"386 189 OFFCURVE",
"454 1073 CURVE SMOOTH",
"494 1572 LINE",
"862 1572 LINE",
"862 87 LINE",
"203 87 LINE"
);
}
);
width = 1156;
},
{
associatedMasterId = "FCD7E481-103E-4A6C-AD70-01DA443B2AD0";
layerId = "9CD98C1F-E440-415E-B68A-1ABABFF30A1C";
name = b;
paths = (
{
closed = 1;
nodes = (
"40 -7 LINE",
"349 16 OFFCURVE",
"319 51 OFFCURVE",
"417 1147 CURVE SMOOTH",
"458 1606 LINE",
"867 1606 LINE",
"867 0 LINE",
"931 0 LINE",
"931 1658 LINE",
"394 1658 LINE",
"351 1149 LINE SMOOTH",
"260 69 OFFCURVE",
"287 68 OFFCURVE",
"40 48 CURVE"
);
}
);
width = 1104;
},
{
layerId = "8AC5A1D3-32A8-4416-86FC-94176A419B8F";
paths = (
{
closed = 1;
nodes = (
"201 -302 LINE",
"219 0 LINE",
"1042 0 LINE",
"1061 -302 LINE",
"1240 -302 LINE",
"1240 166 LINE",
"1080 166 LINE",
"1080 1658 LINE",
"384 1658 LINE",
"359 1168 LINE SMOOTH",
"321 407 OFFCURVE",
"215 264 OFFCURVE",
"98 166 CURVE",
"22 166 LINE",
"22 -302 LINE"
);
},
{
closed = 1;
nodes = (
"433 279 OFFCURVE",
"536 372 OFFCURVE",
"566 1113 CURVE SMOOTH",
"581 1487 LINE",
"849 1487 LINE",
"849 166 LINE",
"313 166 LINE"
);
}
);
width = 1284;
},
{
layerId = "3FB85DAF-C7EF-4F81-BE96-1E190958879E";
paths = (
{
closed = 1;
nodes = (
"316 -375 LINE",
"336 0 LINE",
"1144 0 LINE",
"1164 -375 LINE",
"1424 -375 LINE",
"1424 289 LINE",
"1228 289 LINE",
"1228 1658 LINE",
"436 1658 LINE",
"386 1053 LINE SMOOTH",
"345 549 OFFCURVE",
"247 326 OFFCURVE",
"80 289 CURVE",
"40 289 LINE",
"40 -375 LINE"
);
},
{
closed = 1;
nodes = (
"563 377 OFFCURVE",
"678 477 OFFCURVE",
"715 1022 CURVE SMOOTH",
"736 1373 LINE",
"855 1373 LINE",
"855 289 LINE",
"462 289 LINE"
);
}
);
width = 1459;
}
);
unicode = 0414;
userData = {
com.fontlab.hintData = {
hhints = (
{
position = -20;
width = 20;
}
);
vhints = (
{
position = 14;
width = 279;
},
{
position = 1314;
width = 303;
}
);
};
com.typemytype.robofont.guides = (
);
com.typemytype.robofont.layerData = {
b = {
anchors = (
);
components = (
);
contours = (
{
points = (
{
segmentType = line;
smooth = 0;
x = 40;
y = -7;
},
{
smooth = 0;
x = 349;
y = 16;
},
{
smooth = 0;
x = 319;
y = 51;
},
{
segmentType = curve;
smooth = 1;
x = 417;
y = 1147;
},
{
segmentType = line;
smooth = 0;
x = 458;
y = 1606;
},
{
segmentType = line;
smooth = 0;
x = 867;
y = 1606;
},
{
segmentType = line;
smooth = 0;
x = 867;
y = 0;
},
{
segmentType = line;
smooth = 0;
x = 931;
y = 0;
},
{
segmentType = line;
smooth = 0;
x = 931;
y = 1658;
},
{
segmentType = line;
smooth = 0;
x = 394;
y = 1658;
},
{
segmentType = line;
smooth = 1;
x = 351;
y = 1149;
},
{
smooth = 0;
x = 260;
y = 69;
},
{
smooth = 0;
x = 287;
y = 68;
},
{
segmentType = curve;
smooth = 0;
x = 40;
y = 48;
}
);
}
);
lib = {
};
name = afii10021;
unicodes = (
);
width = 1104;
};
};
};
},
